<svg xmlns="http://www.w3.org/2000/svg"
     viewBox="0 0 560 140"
     width="560"
     height="140"><rect x="0" y="0" width="16" height="16" rx="4" fill="#22c55e"/><circle cx="8" cy="8" r="2" fill="#facc15">
                <animate attributeName="r" values="2;6;2" dur="1.5s" repeatCount="indefinite"/>
                <animate attributeName="opacity" values="1;0.5;1" dur="1.5s" repeatCount="indefinite"/>
              </circle><rect x="20" y="0" width="16" height="16" rx="4" fill="#86efac"/><rect x="40" y="0" width="16" height="16" rx="4" fill="#facc15"/><circle cx="48" cy="8" r="2" fill="#facc15">
                <animate attributeName="r" values="2;6;2" dur="1.5s" repeatCount="indefinite"/>
                <animate attributeName="opacity" values="1;0.5;1" dur="1.5s" repeatCount="indefinite"/>
              </circle><rect x="60" y="0" width="16" height="16" rx="4" fill="#facc15"/><circle cx="68" cy="8" r="2" fill="#facc15">
                <animate attributeName="r" values="2;6;2" dur="1.5s" repeatCount="indefinite"/>
                <animate attributeName="opacity" values="1;0.5;1" dur="1.5s" repeatCount="indefinite"/>
              </circle><rect x="80" y="0" width="16" height="16" rx="4" fill="#facc15"/><circle cx="88" cy="8" r="2" fill="#facc15">
                <animate attributeName="r" values="2;6;2" dur="1.5s" repeatCount="indefinite"/>
                <animate attributeName="opacity" values="1;0.5;1" dur="1.5s" repeatCount="indefinite"/>
              </circle><rect x="100" y="0" width="16" height="16" rx="4" fill="#22c55e"/><circle cx="108" cy="8" r="2" fill="#facc15">
                <animate attributeName="r" values="2;6;2" dur="1.5s" repeatCount="indefinite"/>
                <animate attributeName="opacity" values="1;0.5;1" dur="1.5s" repeatCount="indefinite"/>
              </circle><rect x="120" y="0" width="16" height="16" rx="4" fill="#86efac"/><rect x="140" y="0" width="16" height="16" rx="4" fill="#86efac"/><rect x="160" y="0" width="16" height="16" rx="4" fill="#22c55e"/><circle cx="168" cy="8" r="2" fill="#facc15">
                <animate attributeName="r" values="2;6;2" dur="1.5s" repeatCount="indefinite"/>
                <animate attributeName="opacity" values="1;0.5;1" dur="1.5s" repeatCount="indefinite"/>
              </circle><rect x="180" y="0" width="16" height="16" rx="4" fill="#22c55e"/><circle cx="188" cy="8" r="2" fill="#facc15">
                <animate attributeName="r" values="2;6;2" dur="1.5s" repeatCount="indefinite"/>
                <animate attributeName="opacity" values="1;0.5;1" dur="1.5s" repeatCount="indefinite"/>
              </circle><rect x="200" y="0" width="16" height="16" rx="4" fill="#facc15"/><circle cx="208" cy="8" r="2" fill="#facc15">
                <animate attributeName="r" values="2;6;2" dur="1.5s" repeatCount="indefinite"/>
                <animate attributeName="opacity" values="1;0.5;1" dur="1.5s" repeatCount="indefinite"/>
              </circle><rect x="220" y="0" width="16" height="16" rx="4" fill="#e5e7eb"/><rect x="240" y="0" width="16" height="16" rx="4" fill="#22c55e"/><circle cx="248" cy="8" r="2" fill="#facc15">
                <animate attributeName="r" values="2;6;2" dur="1.5s" repeatCount="indefinite"/>
                <animate attributeName="opacity" values="1;0.5;1" dur="1.5s" repeatCount="indefinite"/>
              </circle><rect x="260" y="0" width="16" height="16" rx="4" fill="#e5e7eb"/><rect x="280" y="0" width="16" height="16" rx="4" fill="#e5e7eb"/><rect x="300" y="0" width="16" height="16" rx="4" fill="#22c55e"/><circle cx="308" cy="8" r="2" fill="#facc15">
                <animate attributeName="r" values="2;6;2" dur="1.5s" repeatCount="indefinite"/>
                <animate attributeName="opacity" values="1;0.5;1" dur="1.5s" repeatCount="indefinite"/>
              </circle><rect x="320" y="0" width="16" height="16" rx="4" fill="#86efac"/><rect x="340" y="0" width="16" height="16" rx="4" fill="#22c55e"/><circle cx="348" cy="8" r="2" fill="#facc15">
                <animate attributeName="r" values="2;6;2" dur="1.5s" repeatCount="indefinite"/>
                <animate attributeName="opacity" values="1;0.5;1" dur="1.5s" repeatCount="indefinite"/>
              </circle><rect x="360" y="0" width="16" height="16" rx="4" fill="#e5e7eb"/><rect x="380" y="0" width="16" height="16" rx="4" fill="#86efac"/><rect x="400" y="0" width="16" height="16" rx="4" fill="#86efac"/><rect x="420" y="0" width="16" height="16" rx="4" fill="#86efac"/><rect x="440" y="0" width="16" height="16" rx="4" fill="#86efac"/><rect x="460" y="0" width="16" height="16" rx="4" fill="#86efac"/><rect x="480" y="0" width="16" height="16" rx="4" fill="#86efac"/><rect x="500" y="0" width="16" height="16" rx="4" fill="#e5e7eb"/><rect x="520" y="0" width="16" height="16" rx="4" fill="#e5e7eb"/><rect x="540" y="0" width="16" height="16" rx="4" fill="#86efac"/><rect x="0" y="20" width="16" height="16" rx="4" fill="#86efac"/><rect x="20" y="20" width="16" height="16" rx="4" fill="#86efac"/><rect x="40" y="20" width="16" height="16" rx="4" fill="#22c55e"/><circle cx="48" cy="28" r="2" fill="#facc15">
                <animate attributeName="r" values="2;6;2" dur="1.5s" repeatCount="indefinite"/>
                <animate attributeName="opacity" values="1;0.5;1" dur="1.5s" repeatCount="indefinite"/>
              </circle><rect x="60" y="20" width="16" height="16" rx="4" fill="#86efac"/><rect x="80" y="20" width="16" height="16" rx="4" fill="#facc15"/><circle cx="88" cy="28" r="2" fill="#facc15">
                <animate attributeName="r" values="2;6;2" dur="1.5s" repeatCount="indefinite"/>
                <animate attributeName="opacity" values="1;0.5;1" dur="1.5s" repeatCount="indefinite"/>
              </circle><rect x="100" y="20" width="16" height="16" rx="4" fill="#22c55e"/><circle cx="108" cy="28" r="2" fill="#facc15">
                <animate attributeName="r" values="2;6;2" dur="1.5s" repeatCount="indefinite"/>
                <animate attributeName="opacity" values="1;0.5;1" dur="1.5s" repeatCount="indefinite"/>
              </circle><rect x="120" y="20" width="16" height="16" rx="4" fill="#22c55e"/><circle cx="128" cy="28" r="2" fill="#facc15">
                <animate attributeName="r" values="2;6;2" dur="1.5s" repeatCount="indefinite"/>
                <animate attributeName="opacity" values="1;0.5;1" dur="1.5s" repeatCount="indefinite"/>
              </circle><rect x="140" y="20" width="16" height="16" rx="4" fill="#22c55e"/><circle cx="148" cy="28" r="2" fill="#facc15">
                <animate attributeName="r" values="2;6;2" dur="1.5s" repeatCount="indefinite"/>
                <animate attributeName="opacity" values="1;0.5;1" dur="1.5s" repeatCount="indefinite"/>
              </circle><rect x="160" y="20" width="16" height="16" rx="4" fill="#22c55e"/><circle cx="168" cy="28" r="2" fill="#facc15">
                <animate attributeName="r" values="2;6;2" dur="1.5s" repeatCount="indefinite"/>
                <animate attributeName="opacity" values="1;0.5;1" dur="1.5s" repeatCount="indefinite"/>
              </circle><rect x="180" y="20" width="16" height="16" rx="4" fill="#22c55e"/><circle cx="188" cy="28" r="2" fill="#facc15">
                <animate attributeName="r" values="2;6;2" dur="1.5s" repeatCount="indefinite"/>
                <animate attributeName="opacity" values="1;0.5;1" dur="1.5s" repeatCount="indefinite"/>
              </circle><rect x="200" y="20" width="16" height="16" rx="4" fill="#86efac"/><rect x="220" y="20" width="16" height="16" rx="4" fill="#e5e7eb"/><rect x="240" y="20" width="16" height="16" rx="4" fill="#facc15"/><circle cx="248" cy="28" r="2" fill="#facc15">
                <animate attributeName="r" values="2;6;2" dur="1.5s" repeatCount="indefinite"/>
                <animate attributeName="opacity" values="1;0.5;1" dur="1.5s" repeatCount="indefinite"/>
              </circle><rect x="260" y="20" width="16" height="16" rx="4" fill="#e5e7eb"/><rect x="280" y="20" width="16" height="16" rx="4" fill="#facc15"/><circle cx="288" cy="28" r="2" fill="#facc15">
                <animate attributeName="r" values="2;6;2" dur="1.5s" repeatCount="indefinite"/>
                <animate attributeName="opacity" values="1;0.5;1" dur="1.5s" repeatCount="indefinite"/>
              </circle><rect x="300" y="20" width="16" height="16" rx="4" fill="#e5e7eb"/><rect x="320" y="20" width="16" height="16" rx="4" fill="#facc15"/><circle cx="328" cy="28" r="2" fill="#facc15">
                <animate attributeName="r" values="2;6;2" dur="1.5s" repeatCount="indefinite"/>
                <animate attributeName="opacity" values="1;0.5;1" dur="1.5s" repeatCount="indefinite"/>
              </circle><rect x="340" y="20" width="16" height="16" rx="4" fill="#facc15"/><circle cx="348" cy="28" r="2" fill="#facc15">
                <animate attributeName="r" values="2;6;2" dur="1.5s" repeatCount="indefinite"/>
                <animate attributeName="opacity" values="1;0.5;1" dur="1.5s" repeatCount="indefinite"/>
              </circle><rect x="360" y="20" width="16" height="16" rx="4" fill="#86efac"/><rect x="380" y="20" width="16" height="16" rx="4" fill="#22c55e"/><circle cx="388" cy="28" r="2" fill="#facc15">
                <animate attributeName="r" values="2;6;2" dur="1.5s" repeatCount="indefinite"/>
                <animate attributeName="opacity" values="1;0.5;1" dur="1.5s" repeatCount="indefinite"/>
              </circle><rect x="400" y="20" width="16" height="16" rx="4" fill="#22c55e"/><circle cx="408" cy="28" r="2" fill="#facc15">
                <animate attributeName="r" values="2;6;2" dur="1.5s" repeatCount="indefinite"/>
                <animate attributeName="opacity" values="1;0.5;1" dur="1.5s" repeatCount="indefinite"/>
              </circle><rect x="420" y="20" width="16" height="16" rx="4" fill="#facc15"/><circle cx="428" cy="28" r="2" fill="#facc15">
                <animate attributeName="r" values="2;6;2" dur="1.5s" repeatCount="indefinite"/>
                <animate attributeName="opacity" values="1;0.5;1" dur="1.5s" repeatCount="indefinite"/>
              </circle><rect x="440" y="20" width="16" height="16" rx="4" fill="#22c55e"/><circle cx="448" cy="28" r="2" fill="#facc15">
                <animate attributeName="r" values="2;6;2" dur="1.5s" repeatCount="indefinite"/>
                <animate attributeName="opacity" values="1;0.5;1" dur="1.5s" repeatCount="indefinite"/>
              </circle><rect x="460" y="20" width="16" height="16" rx="4" fill="#e5e7eb"/><rect x="480" y="20" width="16" height="16" rx="4" fill="#22c55e"/><circle cx="488" cy="28" r="2" fill="#facc15">
                <animate attributeName="r" values="2;6;2" dur="1.5s" repeatCount="indefinite"/>
                <animate attributeName="opacity" values="1;0.5;1" dur="1.5s" repeatCount="indefinite"/>
              </circle><rect x="500" y="20" width="16" height="16" rx="4" fill="#86efac"/><rect x="520" y="20" width="16" height="16" rx="4" fill="#e5e7eb"/><rect x="540" y="20" width="16" height="16" rx="4" fill="#86efac"/><rect x="0" y="40" width="16" height="16" rx="4" fill="#e5e7eb"/><rect x="20" y="40" width="16" height="16" rx="4" fill="#22c55e"/><circle cx="28" cy="48" r="2" fill="#facc15">
                <animate attributeName="r" values="2;6;2" dur="1.5s" repeatCount="indefinite"/>
                <animate attributeName="opacity" values="1;0.5;1" dur="1.5s" repeatCount="indefinite"/>
              </circle><rect x="40" y="40" width="16" height="16" rx="4" fill="#86efac"/><rect x="60" y="40" width="16" height="16" rx="4" fill="#facc15"/><circle cx="68" cy="48" r="2" fill="#facc15">
                <animate attributeName="r" values="2;6;2" dur="1.5s" repeatCount="indefinite"/>
                <animate attributeName="opacity" values="1;0.5;1" dur="1.5s" repeatCount="indefinite"/>
              </circle><rect x="80" y="40" width="16" height="16" rx="4" fill="#86efac"/><rect x="100" y="40" width="16" height="16" rx="4" fill="#e5e7eb"/><rect x="120" y="40" width="16" height="16" rx="4" fill="#facc15"/><circle cx="128" cy="48" r="2" fill="#facc15">
                <animate attributeName="r" values="2;6;2" dur="1.5s" repeatCount="indefinite"/>
                <animate attributeName="opacity" values="1;0.5;1" dur="1.5s" repeatCount="indefinite"/>
              </circle><rect x="140" y="40" width="16" height="16" rx="4" fill="#86efac"/><rect x="160" y="40" width="16" height="16" rx="4" fill="#86efac"/><rect x="180" y="40" width="16" height="16" rx="4" fill="#facc15"/><circle cx="188" cy="48" r="2" fill="#facc15">
                <animate attributeName="r" values="2;6;2" dur="1.5s" repeatCount="indefinite"/>
                <animate attributeName="opacity" values="1;0.5;1" dur="1.5s" repeatCount="indefinite"/>
              </circle><rect x="200" y="40" width="16" height="16" rx="4" fill="#22c55e"/><circle cx="208" cy="48" r="2" fill="#facc15">
                <animate attributeName="r" values="2;6;2" dur="1.5s" repeatCount="indefinite"/>
                <animate attributeName="opacity" values="1;0.5;1" dur="1.5s" repeatCount="indefinite"/>
              </circle><rect x="220" y="40" width="16" height="16" rx="4" fill="#86efac"/><rect x="240" y="40" width="16" height="16" rx="4" fill="#22c55e"/><circle cx="248" cy="48" r="2" fill="#facc15">
                <animate attributeName="r" values="2;6;2" dur="1.5s" repeatCount="indefinite"/>
                <animate attributeName="opacity" values="1;0.5;1" dur="1.5s" repeatCount="indefinite"/>
              </circle><rect x="260" y="40" width="16" height="16" rx="4" fill="#facc15"/><circle cx="268" cy="48" r="2" fill="#facc15">
                <animate attributeName="r" values="2;6;2" dur="1.5s" repeatCount="indefinite"/>
                <animate attributeName="opacity" values="1;0.5;1" dur="1.5s" repeatCount="indefinite"/>
              </circle><rect x="280" y="40" width="16" height="16" rx="4" fill="#facc15"/><circle cx="288" cy="48" r="2" fill="#facc15">
                <animate attributeName="r" values="2;6;2" dur="1.5s" repeatCount="indefinite"/>
                <animate attributeName="opacity" values="1;0.5;1" dur="1.5s" repeatCount="indefinite"/>
              </circle><rect x="300" y="40" width="16" height="16" rx="4" fill="#e5e7eb"/><rect x="320" y="40" width="16" height="16" rx="4" fill="#86efac"/><rect x="340" y="40" width="16" height="16" rx="4" fill="#86efac"/><rect x="360" y="40" width="16" height="16" rx="4" fill="#facc15"/><circle cx="368" cy="48" r="2" fill="#facc15">
                <animate attributeName="r" values="2;6;2" dur="1.5s" repeatCount="indefinite"/>
                <animate attributeName="opacity" values="1;0.5;1" dur="1.5s" repeatCount="indefinite"/>
              </circle><rect x="380" y="40" width="16" height="16" rx="4" fill="#86efac"/><rect x="400" y="40" width="16" height="16" rx="4" fill="#86efac"/><rect x="420" y="40" width="16" height="16" rx="4" fill="#86efac"/><rect x="440" y="40" width="16" height="16" rx="4" fill="#22c55e"/><circle cx="448" cy="48" r="2" fill="#facc15">
                <animate attributeName="r" values="2;6;2" dur="1.5s" repeatCount="indefinite"/>
                <animate attributeName="opacity" values="1;0.5;1" dur="1.5s" repeatCount="indefinite"/>
              </circle><rect x="460" y="40" width="16" height="16" rx="4" fill="#86efac"/><rect x="480" y="40" width="16" height="16" rx="4" fill="#86efac"/><rect x="500" y="40" width="16" height="16" rx="4" fill="#22c55e"/><circle cx="508" cy="48" r="2" fill="#facc15">
                <animate attributeName="r" values="2;6;2" dur="1.5s" repeatCount="indefinite"/>
                <animate attributeName="opacity" values="1;0.5;1" dur="1.5s" repeatCount="indefinite"/>
              </circle><rect x="520" y="40" width="16" height="16" rx="4" fill="#e5e7eb"/><rect x="540" y="40" width="16" height="16" rx="4" fill="#22c55e"/><circle cx="548" cy="48" r="2" fill="#facc15">
                <animate attributeName="r" values="2;6;2" dur="1.5s" repeatCount="indefinite"/>
                <animate attributeName="opacity" values="1;0.5;1" dur="1.5s" repeatCount="indefinite"/>
              </circle><rect x="0" y="60" width="16" height="16" rx="4" fill="#e5e7eb"/><rect x="20" y="60" width="16" height="16" rx="4" fill="#22c55e"/><circle cx="28" cy="68" r="2" fill="#facc15">
                <animate attributeName="r" values="2;6;2" dur="1.5s" repeatCount="indefinite"/>
                <animate attributeName="opacity" values="1;0.5;1" dur="1.5s" repeatCount="indefinite"/>
              </circle><rect x="40" y="60" width="16" height="16" rx="4" fill="#22c55e"/><circle cx="48" cy="68" r="2" fill="#facc15">
                <animate attributeName="r" values="2;6;2" dur="1.5s" repeatCount="indefinite"/>
                <animate attributeName="opacity" values="1;0.5;1" dur="1.5s" repeatCount="indefinite"/>
              </circle><rect x="60" y="60" width="16" height="16" rx="4" fill="#22c55e"/><circle cx="68" cy="68" r="2" fill="#facc15">
                <animate attributeName="r" values="2;6;2" dur="1.5s" repeatCount="indefinite"/>
                <animate attributeName="opacity" values="1;0.5;1" dur="1.5s" repeatCount="indefinite"/>
              </circle><rect x="80" y="60" width="16" height="16" rx="4" fill="#22c55e"/><circle cx="88" cy="68" r="2" fill="#facc15">
                <animate attributeName="r" values="2;6;2" dur="1.5s" repeatCount="indefinite"/>
                <animate attributeName="opacity" values="1;0.5;1" dur="1.5s" repeatCount="indefinite"/>
              </circle><rect x="100" y="60" width="16" height="16" rx="4" fill="#22c55e"/><circle cx="108" cy="68" r="2" fill="#facc15">
                <animate attributeName="r" values="2;6;2" dur="1.5s" repeatCount="indefinite"/>
                <animate attributeName="opacity" values="1;0.5;1" dur="1.5s" repeatCount="indefinite"/>
              </circle><rect x="120" y="60" width="16" height="16" rx="4" fill="#facc15"/><circle cx="128" cy="68" r="2" fill="#facc15">
                <animate attributeName="r" values="2;6;2" dur="1.5s" repeatCount="indefinite"/>
                <animate attributeName="opacity" values="1;0.5;1" dur="1.5s" repeatCount="indefinite"/>
              </circle><rect x="140" y="60" width="16" height="16" rx="4" fill="#86efac"/><rect x="160" y="60" width="16" height="16" rx="4" fill="#86efac"/><rect x="180" y="60" width="16" height="16" rx="4" fill="#facc15"/><circle cx="188" cy="68" r="2" fill="#facc15">
                <animate attributeName="r" values="2;6;2" dur="1.5s" repeatCount="indefinite"/>
                <animate attributeName="opacity" values="1;0.5;1" dur="1.5s" repeatCount="indefinite"/>
              </circle><rect x="200" y="60" width="16" height="16" rx="4" fill="#86efac"/><rect x="220" y="60" width="16" height="16" rx="4" fill="#facc15"/><circle cx="228" cy="68" r="2" fill="#facc15">
                <animate attributeName="r" values="2;6;2" dur="1.5s" repeatCount="indefinite"/>
                <animate attributeName="opacity" values="1;0.5;1" dur="1.5s" repeatCount="indefinite"/>
              </circle><rect x="240" y="60" width="16" height="16" rx="4" fill="#22c55e"/><circle cx="248" cy="68" r="2" fill="#facc15">
                <animate attributeName="r" values="2;6;2" dur="1.5s" repeatCount="indefinite"/>
                <animate attributeName="opacity" values="1;0.5;1" dur="1.5s" repeatCount="indefinite"/>
              </circle><rect x="260" y="60" width="16" height="16" rx="4" fill="#facc15"/><circle cx="268" cy="68" r="2" fill="#facc15">
                <animate attributeName="r" values="2;6;2" dur="1.5s" repeatCount="indefinite"/>
                <animate attributeName="opacity" values="1;0.5;1" dur="1.5s" repeatCount="indefinite"/>
              </circle><rect x="280" y="60" width="16" height="16" rx="4" fill="#86efac"/><rect x="300" y="60" width="16" height="16" rx="4" fill="#86efac"/><rect x="320" y="60" width="16" height="16" rx="4" fill="#86efac"/><rect x="340" y="60" width="16" height="16" rx="4" fill="#e5e7eb"/><rect x="360" y="60" width="16" height="16" rx="4" fill="#22c55e"/><circle cx="368" cy="68" r="2" fill="#facc15">
                <animate attributeName="r" values="2;6;2" dur="1.5s" repeatCount="indefinite"/>
                <animate attributeName="opacity" values="1;0.5;1" dur="1.5s" repeatCount="indefinite"/>
              </circle><rect x="380" y="60" width="16" height="16" rx="4" fill="#86efac"/><rect x="400" y="60" width="16" height="16" rx="4" fill="#e5e7eb"/><rect x="420" y="60" width="16" height="16" rx="4" fill="#facc15"/><circle cx="428" cy="68" r="2" fill="#facc15">
                <animate attributeName="r" values="2;6;2" dur="1.5s" repeatCount="indefinite"/>
                <animate attributeName="opacity" values="1;0.5;1" dur="1.5s" repeatCount="indefinite"/>
              </circle><rect x="440" y="60" width="16" height="16" rx="4" fill="#e5e7eb"/><rect x="460" y="60" width="16" height="16" rx="4" fill="#22c55e"/><circle cx="468" cy="68" r="2" fill="#facc15">
                <animate attributeName="r" values="2;6;2" dur="1.5s" repeatCount="indefinite"/>
                <animate attributeName="opacity" values="1;0.5;1" dur="1.5s" repeatCount="indefinite"/>
              </circle><rect x="480" y="60" width="16" height="16" rx="4" fill="#facc15"/><circle cx="488" cy="68" r="2" fill="#facc15">
                <animate attributeName="r" values="2;6;2" dur="1.5s" repeatCount="indefinite"/>
                <animate attributeName="opacity" values="1;0.5;1" dur="1.5s" repeatCount="indefinite"/>
              </circle><rect x="500" y="60" width="16" height="16" rx="4" fill="#e5e7eb"/><rect x="520" y="60" width="16" height="16" rx="4" fill="#facc15"/><circle cx="528" cy="68" r="2" fill="#facc15">
                <animate attributeName="r" values="2;6;2" dur="1.5s" repeatCount="indefinite"/>
                <animate attributeName="opacity" values="1;0.5;1" dur="1.5s" repeatCount="indefinite"/>
              </circle><rect x="540" y="60" width="16" height="16" rx="4" fill="#86efac"/><rect x="0" y="80" width="16" height="16" rx="4" fill="#facc15"/><circle cx="8" cy="88" r="2" fill="#facc15">
                <animate attributeName="r" values="2;6;2" dur="1.5s" repeatCount="indefinite"/>
                <animate attributeName="opacity" values="1;0.5;1" dur="1.5s" repeatCount="indefinite"/>
              </circle><rect x="20" y="80" width="16" height="16" rx="4" fill="#e5e7eb"/><rect x="40" y="80" width="16" height="16" rx="4" fill="#86efac"/><rect x="60" y="80" width="16" height="16" rx="4" fill="#22c55e"/><circle cx="68" cy="88" r="2" fill="#facc15">
                <animate attributeName="r" values="2;6;2" dur="1.5s" repeatCount="indefinite"/>
                <animate attributeName="opacity" values="1;0.5;1" dur="1.5s" repeatCount="indefinite"/>
              </circle><rect x="80" y="80" width="16" height="16" rx="4" fill="#22c55e"/><circle cx="88" cy="88" r="2" fill="#facc15">
                <animate attributeName="r" values="2;6;2" dur="1.5s" repeatCount="indefinite"/>
                <animate attributeName="opacity" values="1;0.5;1" dur="1.5s" repeatCount="indefinite"/>
              </circle><rect x="100" y="80" width="16" height="16" rx="4" fill="#86efac"/><rect x="120" y="80" width="16" height="16" rx="4" fill="#e5e7eb"/><rect x="140" y="80" width="16" height="16" rx="4" fill="#22c55e"/><circle cx="148" cy="88" r="2" fill="#facc15">
                <animate attributeName="r" values="2;6;2" dur="1.5s" repeatCount="indefinite"/>
                <animate attributeName="opacity" values="1;0.5;1" dur="1.5s" repeatCount="indefinite"/>
              </circle><rect x="160" y="80" width="16" height="16" rx="4" fill="#86efac"/><rect x="180" y="80" width="16" height="16" rx="4" fill="#facc15"/><circle cx="188" cy="88" r="2" fill="#facc15">
                <animate attributeName="r" values="2;6;2" dur="1.5s" repeatCount="indefinite"/>
                <animate attributeName="opacity" values="1;0.5;1" dur="1.5s" repeatCount="indefinite"/>
              </circle><rect x="200" y="80" width="16" height="16" rx="4" fill="#86efac"/><rect x="220" y="80" width="16" height="16" rx="4" fill="#22c55e"/><circle cx="228" cy="88" r="2" fill="#facc15">
                <animate attributeName="r" values="2;6;2" dur="1.5s" repeatCount="indefinite"/>
                <animate attributeName="opacity" values="1;0.5;1" dur="1.5s" repeatCount="indefinite"/>
              </circle><rect x="240" y="80" width="16" height="16" rx="4" fill="#86efac"/><rect x="260" y="80" width="16" height="16" rx="4" fill="#86efac"/><rect x="280" y="80" width="16" height="16" rx="4" fill="#86efac"/><rect x="300" y="80" width="16" height="16" rx="4" fill="#facc15"/><circle cx="308" cy="88" r="2" fill="#facc15">
                <animate attributeName="r" values="2;6;2" dur="1.5s" repeatCount="indefinite"/>
                <animate attributeName="opacity" values="1;0.5;1" dur="1.5s" repeatCount="indefinite"/>
              </circle><rect x="320" y="80" width="16" height="16" rx="4" fill="#22c55e"/><circle cx="328" cy="88" r="2" fill="#facc15">
                <animate attributeName="r" values="2;6;2" dur="1.5s" repeatCount="indefinite"/>
                <animate attributeName="opacity" values="1;0.5;1" dur="1.5s" repeatCount="indefinite"/>
              </circle><rect x="340" y="80" width="16" height="16" rx="4" fill="#e5e7eb"/><rect x="360" y="80" width="16" height="16" rx="4" fill="#e5e7eb"/><rect x="380" y="80" width="16" height="16" rx="4" fill="#facc15"/><circle cx="388" cy="88" r="2" fill="#facc15">
                <animate attributeName="r" values="2;6;2" dur="1.5s" repeatCount="indefinite"/>
                <animate attributeName="opacity" values="1;0.5;1" dur="1.5s" repeatCount="indefinite"/>
              </circle><rect x="400" y="80" width="16" height="16" rx="4" fill="#86efac"/><rect x="420" y="80" width="16" height="16" rx="4" fill="#facc15"/><circle cx="428" cy="88" r="2" fill="#facc15">
                <animate attributeName="r" values="2;6;2" dur="1.5s" repeatCount="indefinite"/>
                <animate attributeName="opacity" values="1;0.5;1" dur="1.5s" repeatCount="indefinite"/>
              </circle><rect x="440" y="80" width="16" height="16" rx="4" fill="#86efac"/><rect x="460" y="80" width="16" height="16" rx="4" fill="#facc15"/><circle cx="468" cy="88" r="2" fill="#facc15">
                <animate attributeName="r" values="2;6;2" dur="1.5s" repeatCount="indefinite"/>
                <animate attributeName="opacity" values="1;0.5;1" dur="1.5s" repeatCount="indefinite"/>
              </circle><rect x="480" y="80" width="16" height="16" rx="4" fill="#e5e7eb"/><rect x="500" y="80" width="16" height="16" rx="4" fill="#86efac"/><rect x="520" y="80" width="16" height="16" rx="4" fill="#facc15"/><circle cx="528" cy="88" r="2" fill="#facc15">
                <animate attributeName="r" values="2;6;2" dur="1.5s" repeatCount="indefinite"/>
                <animate attributeName="opacity" values="1;0.5;1" dur="1.5s" repeatCount="indefinite"/>
              </circle><rect x="540" y="80" width="16" height="16" rx="4" fill="#e5e7eb"/><rect x="0" y="100" width="16" height="16" rx="4" fill="#e5e7eb"/><rect x="20" y="100" width="16" height="16" rx="4" fill="#86efac"/><rect x="40" y="100" width="16" height="16" rx="4" fill="#86efac"/><rect x="60" y="100" width="16" height="16" rx="4" fill="#22c55e"/><circle cx="68" cy="108" r="2" fill="#facc15">
                <animate attributeName="r" values="2;6;2" dur="1.5s" repeatCount="indefinite"/>
                <animate attributeName="opacity" values="1;0.5;1" dur="1.5s" repeatCount="indefinite"/>
              </circle><rect x="80" y="100" width="16" height="16" rx="4" fill="#86efac"/><rect x="100" y="100" width="16" height="16" rx="4" fill="#86efac"/><rect x="120" y="100" width="16" height="16" rx="4" fill="#22c55e"/><circle cx="128" cy="108" r="2" fill="#facc15">
                <animate attributeName="r" values="2;6;2" dur="1.5s" repeatCount="indefinite"/>
                <animate attributeName="opacity" values="1;0.5;1" dur="1.5s" repeatCount="indefinite"/>
              </circle><rect x="140" y="100" width="16" height="16" rx="4" fill="#22c55e"/><circle cx="148" cy="108" r="2" fill="#facc15">
                <animate attributeName="r" values="2;6;2" dur="1.5s" repeatCount="indefinite"/>
                <animate attributeName="opacity" values="1;0.5;1" dur="1.5s" repeatCount="indefinite"/>
              </circle><rect x="160" y="100" width="16" height="16" rx="4" fill="#e5e7eb"/><rect x="180" y="100" width="16" height="16" rx="4" fill="#86efac"/><rect x="200" y="100" width="16" height="16" rx="4" fill="#86efac"/><rect x="220" y="100" width="16" height="16" rx="4" fill="#86efac"/><rect x="240" y="100" width="16" height="16" rx="4" fill="#facc15"/><circle cx="248" cy="108" r="2" fill="#facc15">
                <animate attributeName="r" values="2;6;2" dur="1.5s" repeatCount="indefinite"/>
                <animate attributeName="opacity" values="1;0.5;1" dur="1.5s" repeatCount="indefinite"/>
              </circle><rect x="260" y="100" width="16" height="16" rx="4" fill="#22c55e"/><circle cx="268" cy="108" r="2" fill="#facc15">
                <animate attributeName="r" values="2;6;2" dur="1.5s" repeatCount="indefinite"/>
                <animate attributeName="opacity" values="1;0.5;1" dur="1.5s" repeatCount="indefinite"/>
              </circle><rect x="280" y="100" width="16" height="16" rx="4" fill="#22c55e"/><circle cx="288" cy="108" r="2" fill="#facc15">
                <animate attributeName="r" values="2;6;2" dur="1.5s" repeatCount="indefinite"/>
                <animate attributeName="opacity" values="1;0.5;1" dur="1.5s" repeatCount="indefinite"/>
              </circle><rect x="300" y="100" width="16" height="16" rx="4" fill="#86efac"/><rect x="320" y="100" width="16" height="16" rx="4" fill="#22c55e"/><circle cx="328" cy="108" r="2" fill="#facc15">
                <animate attributeName="r" values="2;6;2" dur="1.5s" repeatCount="indefinite"/>
                <animate attributeName="opacity" values="1;0.5;1" dur="1.5s" repeatCount="indefinite"/>
              </circle><rect x="340" y="100" width="16" height="16" rx="4" fill="#22c55e"/><circle cx="348" cy="108" r="2" fill="#facc15">
                <animate attributeName="r" values="2;6;2" dur="1.5s" repeatCount="indefinite"/>
                <animate attributeName="opacity" values="1;0.5;1" dur="1.5s" repeatCount="indefinite"/>
              </circle><rect x="360" y="100" width="16" height="16" rx="4" fill="#86efac"/><rect x="380" y="100" width="16" height="16" rx="4" fill="#22c55e"/><circle cx="388" cy="108" r="2" fill="#facc15">
                <animate attributeName="r" values="2;6;2" dur="1.5s" repeatCount="indefinite"/>
                <animate attributeName="opacity" values="1;0.5;1" dur="1.5s" repeatCount="indefinite"/>
              </circle><rect x="400" y="100" width="16" height="16" rx="4" fill="#22c55e"/><circle cx="408" cy="108" r="2" fill="#facc15">
                <animate attributeName="r" values="2;6;2" dur="1.5s" repeatCount="indefinite"/>
                <animate attributeName="opacity" values="1;0.5;1" dur="1.5s" repeatCount="indefinite"/>
              </circle><rect x="420" y="100" width="16" height="16" rx="4" fill="#facc15"/><circle cx="428" cy="108" r="2" fill="#facc15">
                <animate attributeName="r" values="2;6;2" dur="1.5s" repeatCount="indefinite"/>
                <animate attributeName="opacity" values="1;0.5;1" dur="1.5s" repeatCount="indefinite"/>
              </circle><rect x="440" y="100" width="16" height="16" rx="4" fill="#facc15"/><circle cx="448" cy="108" r="2" fill="#facc15">
                <animate attributeName="r" values="2;6;2" dur="1.5s" repeatCount="indefinite"/>
                <animate attributeName="opacity" values="1;0.5;1" dur="1.5s" repeatCount="indefinite"/>
              </circle><rect x="460" y="100" width="16" height="16" rx="4" fill="#86efac"/><rect x="480" y="100" width="16" height="16" rx="4" fill="#22c55e"/><circle cx="488" cy="108" r="2" fill="#facc15">
                <animate attributeName="r" values="2;6;2" dur="1.5s" repeatCount="indefinite"/>
                <animate attributeName="opacity" values="1;0.5;1" dur="1.5s" repeatCount="indefinite"/>
              </circle><rect x="500" y="100" width="16" height="16" rx="4" fill="#22c55e"/><circle cx="508" cy="108" r="2" fill="#facc15">
                <animate attributeName="r" values="2;6;2" dur="1.5s" repeatCount="indefinite"/>
                <animate attributeName="opacity" values="1;0.5;1" dur="1.5s" repeatCount="indefinite"/>
              </circle><rect x="520" y="100" width="16" height="16" rx="4" fill="#22c55e"/><circle cx="528" cy="108" r="2" fill="#facc15">
                <animate attributeName="r" values="2;6;2" dur="1.5s" repeatCount="indefinite"/>
                <animate attributeName="opacity" values="1;0.5;1" dur="1.5s" repeatCount="indefinite"/>
              </circle><rect x="540" y="100" width="16" height="16" rx="4" fill="#facc15"/><circle cx="548" cy="108" r="2" fill="#facc15">
                <animate attributeName="r" values="2;6;2" dur="1.5s" repeatCount="indefinite"/>
                <animate attributeName="opacity" values="1;0.5;1" dur="1.5s" repeatCount="indefinite"/>
              </circle><rect x="0" y="120" width="16" height="16" rx="4" fill="#86efac"/><rect x="20" y="120" width="16" height="16" rx="4" fill="#86efac"/><rect x="40" y="120" width="16" height="16" rx="4" fill="#facc15"/><circle cx="48" cy="128" r="2" fill="#facc15">
                <animate attributeName="r" values="2;6;2" dur="1.5s" repeatCount="indefinite"/>
                <animate attributeName="opacity" values="1;0.5;1" dur="1.5s" repeatCount="indefinite"/>
              </circle><rect x="60" y="120" width="16" height="16" rx="4" fill="#86efac"/><rect x="80" y="120" width="16" height="16" rx="4" fill="#22c55e"/><circle cx="88" cy="128" r="2" fill="#facc15">
                <animate attributeName="r" values="2;6;2" dur="1.5s" repeatCount="indefinite"/>
                <animate attributeName="opacity" values="1;0.5;1" dur="1.5s" repeatCount="indefinite"/>
              </circle><rect x="100" y="120" width="16" height="16" rx="4" fill="#86efac"/><rect x="120" y="120" width="16" height="16" rx="4" fill="#86efac"/><rect x="140" y="120" width="16" height="16" rx="4" fill="#86efac"/><rect x="160" y="120" width="16" height="16" rx="4" fill="#86efac"/><rect x="180" y="120" width="16" height="16" rx="4" fill="#22c55e"/><circle cx="188" cy="128" r="2" fill="#facc15">
                <animate attributeName="r" values="2;6;2" dur="1.5s" repeatCount="indefinite"/>
                <animate attributeName="opacity" values="1;0.5;1" dur="1.5s" repeatCount="indefinite"/>
              </circle><rect x="200" y="120" width="16" height="16" rx="4" fill="#22c55e"/><circle cx="208" cy="128" r="2" fill="#facc15">
                <animate attributeName="r" values="2;6;2" dur="1.5s" repeatCount="indefinite"/>
                <animate attributeName="opacity" values="1;0.5;1" dur="1.5s" repeatCount="indefinite"/>
              </circle><rect x="220" y="120" width="16" height="16" rx="4" fill="#22c55e"/><circle cx="228" cy="128" r="2" fill="#facc15">
                <animate attributeName="r" values="2;6;2" dur="1.5s" repeatCount="indefinite"/>
                <animate attributeName="opacity" values="1;0.5;1" dur="1.5s" repeatCount="indefinite"/>
              </circle><rect x="240" y="120" width="16" height="16" rx="4" fill="#22c55e"/><circle cx="248" cy="128" r="2" fill="#facc15">
                <animate attributeName="r" values="2;6;2" dur="1.5s" repeatCount="indefinite"/>
                <animate attributeName="opacity" values="1;0.5;1" dur="1.5s" repeatCount="indefinite"/>
              </circle><rect x="260" y="120" width="16" height="16" rx="4" fill="#22c55e"/><circle cx="268" cy="128" r="2" fill="#facc15">
                <animate attributeName="r" values="2;6;2" dur="1.5s" repeatCount="indefinite"/>
                <animate attributeName="opacity" values="1;0.5;1" dur="1.5s" repeatCount="indefinite"/>
              </circle><rect x="280" y="120" width="16" height="16" rx="4" fill="#86efac"/><rect x="300" y="120" width="16" height="16" rx="4" fill="#e5e7eb"/><rect x="320" y="120" width="16" height="16" rx="4" fill="#86efac"/><rect x="340" y="120" width="16" height="16" rx="4" fill="#86efac"/><rect x="360" y="120" width="16" height="16" rx="4" fill="#facc15"/><circle cx="368" cy="128" r="2" fill="#facc15">
                <animate attributeName="r" values="2;6;2" dur="1.5s" repeatCount="indefinite"/>
                <animate attributeName="opacity" values="1;0.5;1" dur="1.5s" repeatCount="indefinite"/>
              </circle><rect x="380" y="120" width="16" height="16" rx="4" fill="#facc15"/><circle cx="388" cy="128" r="2" fill="#facc15">
                <animate attributeName="r" values="2;6;2" dur="1.5s" repeatCount="indefinite"/>
                <animate attributeName="opacity" values="1;0.5;1" dur="1.5s" repeatCount="indefinite"/>
              </circle><rect x="400" y="120" width="16" height="16" rx="4" fill="#86efac"/><rect x="420" y="120" width="16" height="16" rx="4" fill="#facc15"/><circle cx="428" cy="128" r="2" fill="#facc15">
                <animate attributeName="r" values="2;6;2" dur="1.5s" repeatCount="indefinite"/>
                <animate attributeName="opacity" values="1;0.5;1" dur="1.5s" repeatCount="indefinite"/>
              </circle><rect x="440" y="120" width="16" height="16" rx="4" fill="#86efac"/><rect x="460" y="120" width="16" height="16" rx="4" fill="#86efac"/><rect x="480" y="120" width="16" height="16" rx="4" fill="#e5e7eb"/><rect x="500" y="120" width="16" height="16" rx="4" fill="#86efac"/><rect x="520" y="120" width="16" height="16" rx="4" fill="#22c55e"/><circle cx="528" cy="128" r="2" fill="#facc15">
                <animate attributeName="r" values="2;6;2" dur="1.5s" repeatCount="indefinite"/>
                <animate attributeName="opacity" values="1;0.5;1" dur="1.5s" repeatCount="indefinite"/>
              </circle><rect x="540" y="120" width="16" height="16" rx="4" fill="#22c55e"/><circle cx="548" cy="128" r="2" fill="#facc15">
                <animate attributeName="r" values="2;6;2" dur="1.5s" repeatCount="indefinite"/>
                <animate attributeName="opacity" values="1;0.5;1" dur="1.5s" repeatCount="indefinite"/>
              </circle></svg>