<svg xmlns="http://www.w3.org/2000/svg" width="560" height="140"><rect x="0" y="0" width="18" height="18" fill="#e5e7eb">
    <title>2025-11-18: 0 commits</title>
  </rect><rect x="20" y="0" width="18" height="18" fill="#e5e7eb">
    <title>2025-11-19: 0 commits</title>
  </rect><rect x="40" y="0" width="18" height="18" fill="#e5e7eb">
    <title>2025-11-20: 0 commits</title>
  </rect><rect x="60" y="0" width="18" height="18" fill="#e5e7eb">
    <title>2025-11-21: 0 commits</title>
  </rect><rect x="80" y="0" width="18" height="18" fill="#e5e7eb">
    <title>2025-11-22: 0 commits</title>
  </rect><rect x="100" y="0" width="18" height="18" fill="#e5e7eb">
    <title>2025-11-23: 0 commits</title>
  </rect><rect x="120" y="0" width="18" height="18" fill="#e5e7eb">
    <title>2025-11-24: 0 commits</title>
  </rect><rect x="140" y="0" width="18" height="18" fill="#e5e7eb">
    <title>2025-11-25: 0 commits</title>
  </rect><rect x="160" y="0" width="18" height="18" fill="#e5e7eb">
    <title>2025-11-26: 0 commits</title>
  </rect><rect x="180" y="0" width="18" height="18" fill="#e5e7eb">
    <title>2025-11-27: 0 commits</title>
  </rect><rect x="200" y="0" width="18" height="18" fill="#e5e7eb">
    <title>2025-11-28: 0 commits</title>
  </rect><rect x="220" y="0" width="18" height="18" fill="#e5e7eb">
    <title>2025-11-29: 0 commits</title>
  </rect><rect x="240" y="0" width="18" height="18" fill="#e5e7eb">
    <title>2025-11-30: 0 commits</title>
  </rect><rect x="260" y="0" width="18" height="18" fill="#e5e7eb">
    <title>2025-12-01: 0 commits</title>
  </rect><rect x="280" y="0" width="18" height="18" fill="#e5e7eb">
    <title>2025-12-02: 0 commits</title>
  </rect><rect x="300" y="0" width="18" height="18" fill="#e5e7eb">
    <title>2025-12-03: 0 commits</title>
  </rect><rect x="320" y="0" width="18" height="18" fill="#e5e7eb">
    <title>2025-12-04: 0 commits</title>
  </rect><rect x="340" y="0" width="18" height="18" fill="#e5e7eb">
    <title>2025-12-05: 0 commits</title>
  </rect><rect x="360" y="0" width="18" height="18" fill="#e5e7eb">
    <title>2025-12-06: 0 commits</title>
  </rect><rect x="380" y="0" width="18" height="18" fill="#e5e7eb">
    <title>2025-12-07: 0 commits</title>
  </rect><rect x="400" y="0" width="18" height="18" fill="#e5e7eb">
    <title>2025-12-08: 0 commits</title>
  </rect><rect x="420" y="0" width="18" height="18" fill="#e5e7eb">
    <title>2025-12-09: 0 commits</title>
  </rect><rect x="440" y="0" width="18" height="18" fill="#e5e7eb">
    <title>2025-12-10: 0 commits</title>
  </rect><rect x="460" y="0" width="18" height="18" fill="#e5e7eb">
    <title>2025-12-11: 0 commits</title>
  </rect><rect x="480" y="0" width="18" height="18" fill="#e5e7eb">
    <title>2025-12-12: 0 commits</title>
  </rect><rect x="500" y="0" width="18" height="18" fill="#e5e7eb">
    <title>2025-12-13: 0 commits</title>
  </rect><rect x="520" y="0" width="18" height="18" fill="#e5e7eb">
    <title>2025-12-14: 0 commits</title>
  </rect><rect x="540" y="0" width="18" height="18" fill="#86efac">
    <title>2025-12-15: 1 commits</title>
  </rect></svg>