<svg xmlns="http://www.w3.org/2000/svg"
     viewBox="0 0 560 190"
     width="560"
     height="190"><rect x="0" y="170" width="16" height="16" fill="#15803d"/><rect x="0" y="150" width="16" height="16" fill="#15803d"/><rect x="0" y="130" width="16" height="16" fill="#15803d"/><rect x="0" y="110" width="16" height="16" fill="#15803d"/><rect x="0" y="90" width="16" height="16" fill="#15803d"/><rect x="0" y="70" width="16" height="16" fill="#15803d"/><rect x="0" y="50" width="16" height="16" fill="#15803d"/><rect x="20" y="170" width="16" height="16" fill="#15803d"/><rect x="20" y="150" width="16" height="16" fill="#15803d"/><rect x="20" y="130" width="16" height="16" fill="#15803d"/><rect x="20" y="110" width="16" height="16" fill="#15803d"/><rect x="20" y="90" width="16" height="16" fill="#15803d"/><rect x="20" y="70" width="16" height="16" fill="#15803d"/><rect x="60" y="170" width="16" height="16" fill="#15803d"/><rect x="80" y="170" width="16" height="16" fill="#15803d"/><rect x="80" y="150" width="16" height="16" fill="#15803d"/><rect x="80" y="130" width="16" height="16" fill="#15803d"/><rect x="80" y="110" width="16" height="16" fill="#15803d"/><rect x="80" y="90" width="16" height="16" fill="#15803d"/><rect x="80" y="70" width="16" height="16" fill="#15803d"/><rect x="80" y="50" width="16" height="16" fill="#15803d"/><rect x="120" y="170" width="16" height="16" fill="#15803d"/><rect x="120" y="150" width="16" height="16" fill="#15803d"/><rect x="120" y="130" width="16" height="16" fill="#15803d"/><rect x="140" y="170" width="16" height="16" fill="#15803d"/><rect x="140" y="150" width="16" height="16" fill="#15803d"/><rect x="160" y="170" width="16" height="16" fill="#15803d"/><rect x="180" y="170" width="16" height="16" fill="#15803d"/><rect x="180" y="150" width="16" height="16" fill="#15803d"/><rect x="180" y="130" width="16" height="16" fill="#15803d"/><rect x="180" y="110" width="16" height="16" fill="#15803d"/><rect x="200" y="170" width="16" height="16" fill="#15803d"/><rect x="200" y="150" width="16" height="16" fill="#15803d"/><rect x="200" y="130" width="16" height="16" fill="#15803d"/><rect x="200" y="110" width="16" height="16" fill="#15803d"/><rect x="200" y="90" width="16" height="16" fill="#15803d"/><rect x="200" y="70" width="16" height="16" fill="#15803d"/><rect x="220" y="170" width="16" height="16" fill="#15803d"/><rect x="220" y="150" width="16" height="16" fill="#15803d"/><rect x="240" y="170" width="16" height="16" fill="#15803d"/><rect x="260" y="170" width="16" height="16" fill="#15803d"/><rect x="260" y="150" width="16" height="16" fill="#15803d"/><rect x="260" y="130" width="16" height="16" fill="#15803d"/><rect x="260" y="110" width="16" height="16" fill="#15803d"/><rect x="260" y="90" width="16" height="16" fill="#15803d"/><rect x="260" y="70" width="16" height="16" fill="#15803d"/><rect x="280" y="170" width="16" height="16" fill="#15803d"/><rect x="280" y="150" width="16" height="16" fill="#15803d"/><rect x="300" y="170" width="16" height="16" fill="#15803d"/><rect x="300" y="150" width="16" height="16" fill="#15803d"/><rect x="300" y="130" width="16" height="16" fill="#15803d"/><rect x="320" y="170" width="16" height="16" fill="#15803d"/><rect x="320" y="150" width="16" height="16" fill="#15803d"/><rect x="320" y="130" width="16" height="16" fill="#15803d"/><rect x="320" y="110" width="16" height="16" fill="#15803d"/><rect x="320" y="90" width="16" height="16" fill="#15803d"/><rect x="320" y="70" width="16" height="16" fill="#15803d"/><rect x="340" y="170" width="16" height="16" fill="#15803d"/><rect x="340" y="150" width="16" height="16" fill="#15803d"/><rect x="340" y="130" width="16" height="16" fill="#15803d"/><rect x="340" y="110" width="16" height="16" fill="#15803d"/><rect x="360" y="170" width="16" height="16" fill="#15803d"/><rect x="360" y="150" width="16" height="16" fill="#15803d"/><rect x="380" y="170" width="16" height="16" fill="#15803d"/><rect x="400" y="170" width="16" height="16" fill="#15803d"/><rect x="420" y="170" width="16" height="16" fill="#15803d"/><rect x="420" y="150" width="16" height="16" fill="#15803d"/><rect x="420" y="130" width="16" height="16" fill="#15803d"/><rect x="420" y="110" width="16" height="16" fill="#15803d"/><rect x="420" y="90" width="16" height="16" fill="#15803d"/><rect x="420" y="70" width="16" height="16" fill="#15803d"/><rect x="440" y="170" width="16" height="16" fill="#15803d"/><rect x="440" y="150" width="16" height="16" fill="#15803d"/><rect x="440" y="130" width="16" height="16" fill="#15803d"/><rect x="440" y="110" width="16" height="16" fill="#15803d"/><rect x="440" y="90" width="16" height="16" fill="#15803d"/><rect x="440" y="70" width="16" height="16" fill="#15803d"/><rect x="440" y="50" width="16" height="16" fill="#15803d"/><rect x="460" y="170" width="16" height="16" fill="#15803d"/><rect x="460" y="150" width="16" height="16" fill="#15803d"/><rect x="460" y="130" width="16" height="16" fill="#15803d"/><rect x="460" y="110" width="16" height="16" fill="#15803d"/><rect x="500" y="170" width="16" height="16" fill="#15803d"/><rect x="500" y="150" width="16" height="16" fill="#15803d"/><rect x="520" y="170" width="16" height="16" fill="#15803d"/><rect x="520" y="150" width="16" height="16" fill="#15803d"/><rect x="540" y="170" width="16" height="16" fill="#15803d"/><rect x="540" y="150" width="16" height="16" fill="#15803d"/><rect x="540" y="130" width="16" height="16" fill="#15803d"/><rect x="540" y="110" width="16" height="16" fill="#15803d"/><rect x="540" y="90" width="16" height="16" fill="#15803d"/><rect x="540" y="70" width="16" height="16" fill="#15803d"/><rect x="0" y="150" width="16" height="16" fill="#15803d"/><rect x="20" y="150" width="16" height="16" fill="#15803d"/><rect x="20" y="130" width="16" height="16" fill="#15803d"/><rect x="20" y="110" width="16" height="16" fill="#15803d"/><rect x="20" y="90" width="16" height="16" fill="#15803d"/><rect x="20" y="70" width="16" height="16" fill="#15803d"/><rect x="20" y="50" width="16" height="16" fill="#15803d"/><rect x="20" y="30" width="16" height="16" fill="#15803d"/><rect x="40" y="150" width="16" height="16" fill="#15803d"/><rect x="40" y="130" width="16" height="16" fill="#15803d"/><rect x="60" y="150" width="16" height="16" fill="#15803d"/><rect x="60" y="130" width="16" height="16" fill="#15803d"/><rect x="60" y="110" width="16" height="16" fill="#15803d"/><rect x="60" y="90" width="16" height="16" fill="#15803d"/><rect x="60" y="70" width="16" height="16" fill="#15803d"/><rect x="60" y="50" width="16" height="16" fill="#15803d"/><rect x="60" y="30" width="16" height="16" fill="#15803d"/><rect x="80" y="150" width="16" height="16" fill="#15803d"/><rect x="100" y="150" width="16" height="16" fill="#15803d"/><rect x="100" y="130" width="16" height="16" fill="#15803d"/><rect x="100" y="110" width="16" height="16" fill="#15803d"/><rect x="140" y="150" width="16" height="16" fill="#15803d"/><rect x="140" y="130" width="16" height="16" fill="#15803d"/><rect x="140" y="110" width="16" height="16" fill="#15803d"/><rect x="160" y="150" width="16" height="16" fill="#15803d"/><rect x="160" y="130" width="16" height="16" fill="#15803d"/><rect x="180" y="150" width="16" height="16" fill="#15803d"/><rect x="180" y="130" width="16" height="16" fill="#15803d"/><rect x="180" y="110" width="16" height="16" fill="#15803d"/><rect x="180" y="90" width="16" height="16" fill="#15803d"/><rect x="180" y="70" width="16" height="16" fill="#15803d"/><rect x="180" y="50" width="16" height="16" fill="#15803d"/><rect x="180" y="30" width="16" height="16" fill="#15803d"/><rect x="200" y="150" width="16" height="16" fill="#15803d"/><rect x="200" y="130" width="16" height="16" fill="#15803d"/><rect x="200" y="110" width="16" height="16" fill="#15803d"/><rect x="200" y="90" width="16" height="16" fill="#15803d"/><rect x="200" y="70" width="16" height="16" fill="#15803d"/><rect x="200" y="50" width="16" height="16" fill="#15803d"/><rect x="200" y="30" width="16" height="16" fill="#15803d"/><rect x="220" y="150" width="16" height="16" fill="#15803d"/><rect x="220" y="130" width="16" height="16" fill="#15803d"/><rect x="220" y="110" width="16" height="16" fill="#15803d"/><rect x="220" y="90" width="16" height="16" fill="#15803d"/><rect x="220" y="70" width="16" height="16" fill="#15803d"/><rect x="240" y="150" width="16" height="16" fill="#15803d"/><rect x="240" y="130" width="16" height="16" fill="#15803d"/><rect x="260" y="150" width="16" height="16" fill="#15803d"/><rect x="260" y="130" width="16" height="16" fill="#15803d"/><rect x="260" y="110" width="16" height="16" fill="#15803d"/><rect x="260" y="90" width="16" height="16" fill="#15803d"/><rect x="280" y="150" width="16" height="16" fill="#15803d"/><rect x="280" y="130" width="16" height="16" fill="#15803d"/><rect x="280" y="110" width="16" height="16" fill="#15803d"/><rect x="280" y="90" width="16" height="16" fill="#15803d"/><rect x="280" y="70" width="16" height="16" fill="#15803d"/><rect x="300" y="150" width="16" height="16" fill="#15803d"/><rect x="300" y="130" width="16" height="16" fill="#15803d"/><rect x="300" y="110" width="16" height="16" fill="#15803d"/><rect x="300" y="90" width="16" height="16" fill="#15803d"/><rect x="320" y="150" width="16" height="16" fill="#15803d"/><rect x="320" y="130" width="16" height="16" fill="#15803d"/><rect x="340" y="150" width="16" height="16" fill="#15803d"/><rect x="340" y="130" width="16" height="16" fill="#15803d"/><rect x="340" y="110" width="16" height="16" fill="#15803d"/><rect x="340" y="90" width="16" height="16" fill="#15803d"/><rect x="340" y="70" width="16" height="16" fill="#15803d"/><rect x="360" y="150" width="16" height="16" fill="#15803d"/><rect x="360" y="130" width="16" height="16" fill="#15803d"/><rect x="360" y="110" width="16" height="16" fill="#15803d"/><rect x="380" y="150" width="16" height="16" fill="#15803d"/><rect x="380" y="130" width="16" height="16" fill="#15803d"/><rect x="380" y="110" width="16" height="16" fill="#15803d"/><rect x="380" y="90" width="16" height="16" fill="#15803d"/><rect x="380" y="70" width="16" height="16" fill="#15803d"/><rect x="380" y="50" width="16" height="16" fill="#15803d"/><rect x="380" y="30" width="16" height="16" fill="#15803d"/><rect x="400" y="150" width="16" height="16" fill="#15803d"/><rect x="400" y="130" width="16" height="16" fill="#15803d"/><rect x="400" y="110" width="16" height="16" fill="#15803d"/><rect x="420" y="150" width="16" height="16" fill="#15803d"/><rect x="420" y="130" width="16" height="16" fill="#15803d"/><rect x="420" y="110" width="16" height="16" fill="#15803d"/><rect x="420" y="90" width="16" height="16" fill="#15803d"/><rect x="420" y="70" width="16" height="16" fill="#15803d"/><rect x="420" y="50" width="16" height="16" fill="#15803d"/><rect x="420" y="30" width="16" height="16" fill="#15803d"/><rect x="440" y="150" width="16" height="16" fill="#15803d"/><rect x="440" y="130" width="16" height="16" fill="#15803d"/><rect x="460" y="150" width="16" height="16" fill="#15803d"/><rect x="500" y="150" width="16" height="16" fill="#15803d"/><rect x="500" y="130" width="16" height="16" fill="#15803d"/><rect x="500" y="110" width="16" height="16" fill="#15803d"/><rect x="500" y="90" width="16" height="16" fill="#15803d"/><rect x="500" y="70" width="16" height="16" fill="#15803d"/><rect x="520" y="150" width="16" height="16" fill="#15803d"/><rect x="520" y="130" width="16" height="16" fill="#15803d"/><rect x="520" y="110" width="16" height="16" fill="#15803d"/><rect x="540" y="150" width="16" height="16" fill="#15803d"/><rect x="0" y="130" width="16" height="16" fill="#15803d"/><rect x="40" y="130" width="16" height="16" fill="#15803d"/><rect x="40" y="110" width="16" height="16" fill="#15803d"/><rect x="40" y="90" width="16" height="16" fill="#15803d"/><rect x="80" y="130" width="16" height="16" fill="#15803d"/><rect x="100" y="130" width="16" height="16" fill="#15803d"/><rect x="100" y="110" width="16" height="16" fill="#15803d"/><rect x="100" y="90" width="16" height="16" fill="#15803d"/><rect x="100" y="70" width="16" height="16" fill="#15803d"/><rect x="120" y="130" width="16" height="16" fill="#15803d"/><rect x="140" y="130" width="16" height="16" fill="#15803d"/><rect x="140" y="110" width="16" height="16" fill="#15803d"/><rect x="140" y="90" width="16" height="16" fill="#15803d"/><rect x="140" y="70" width="16" height="16" fill="#15803d"/><rect x="140" y="50" width="16" height="16" fill="#15803d"/><rect x="140" y="30" width="16" height="16" fill="#15803d"/><rect x="160" y="130" width="16" height="16" fill="#15803d"/><rect x="160" y="110" width="16" height="16" fill="#15803d"/><rect x="160" y="90" width="16" height="16" fill="#15803d"/><rect x="160" y="70" width="16" height="16" fill="#15803d"/><rect x="160" y="50" width="16" height="16" fill="#15803d"/><rect x="160" y="30" width="16" height="16" fill="#15803d"/><rect x="180" y="130" width="16" height="16" fill="#15803d"/><rect x="180" y="110" width="16" height="16" fill="#15803d"/><rect x="180" y="90" width="16" height="16" fill="#15803d"/><rect x="180" y="70" width="16" height="16" fill="#15803d"/><rect x="180" y="50" width="16" height="16" fill="#15803d"/><rect x="180" y="30" width="16" height="16" fill="#15803d"/><rect x="200" y="130" width="16" height="16" fill="#15803d"/><rect x="200" y="110" width="16" height="16" fill="#15803d"/><rect x="220" y="130" width="16" height="16" fill="#15803d"/><rect x="220" y="110" width="16" height="16" fill="#15803d"/><rect x="220" y="90" width="16" height="16" fill="#15803d"/><rect x="220" y="70" width="16" height="16" fill="#15803d"/><rect x="220" y="50" width="16" height="16" fill="#15803d"/><rect x="220" y="30" width="16" height="16" fill="#15803d"/><rect x="240" y="130" width="16" height="16" fill="#15803d"/><rect x="240" y="110" width="16" height="16" fill="#15803d"/><rect x="260" y="130" width="16" height="16" fill="#15803d"/><rect x="280" y="130" width="16" height="16" fill="#15803d"/><rect x="280" y="110" width="16" height="16" fill="#15803d"/><rect x="280" y="90" width="16" height="16" fill="#15803d"/><rect x="280" y="70" width="16" height="16" fill="#15803d"/><rect x="280" y="50" width="16" height="16" fill="#15803d"/><rect x="300" y="130" width="16" height="16" fill="#15803d"/><rect x="300" y="110" width="16" height="16" fill="#15803d"/><rect x="300" y="90" width="16" height="16" fill="#15803d"/><rect x="300" y="70" width="16" height="16" fill="#15803d"/><rect x="300" y="50" width="16" height="16" fill="#15803d"/><rect x="320" y="130" width="16" height="16" fill="#15803d"/><rect x="320" y="110" width="16" height="16" fill="#15803d"/><rect x="320" y="90" width="16" height="16" fill="#15803d"/><rect x="320" y="70" width="16" height="16" fill="#15803d"/><rect x="320" y="50" width="16" height="16" fill="#15803d"/><rect x="320" y="30" width="16" height="16" fill="#15803d"/><rect x="360" y="130" width="16" height="16" fill="#15803d"/><rect x="360" y="110" width="16" height="16" fill="#15803d"/><rect x="360" y="90" width="16" height="16" fill="#15803d"/><rect x="360" y="70" width="16" height="16" fill="#15803d"/><rect x="360" y="50" width="16" height="16" fill="#15803d"/><rect x="360" y="30" width="16" height="16" fill="#15803d"/><rect x="360" y="10" width="16" height="16" fill="#15803d"/><rect x="380" y="130" width="16" height="16" fill="#15803d"/><rect x="380" y="110" width="16" height="16" fill="#15803d"/><rect x="380" y="90" width="16" height="16" fill="#15803d"/><rect x="380" y="70" width="16" height="16" fill="#15803d"/><rect x="380" y="50" width="16" height="16" fill="#15803d"/><rect x="380" y="30" width="16" height="16" fill="#15803d"/><rect x="400" y="130" width="16" height="16" fill="#15803d"/><rect x="400" y="110" width="16" height="16" fill="#15803d"/><rect x="400" y="90" width="16" height="16" fill="#15803d"/><rect x="400" y="70" width="16" height="16" fill="#15803d"/><rect x="420" y="130" width="16" height="16" fill="#15803d"/><rect x="440" y="130" width="16" height="16" fill="#15803d"/><rect x="440" y="110" width="16" height="16" fill="#15803d"/><rect x="440" y="90" width="16" height="16" fill="#15803d"/><rect x="440" y="70" width="16" height="16" fill="#15803d"/><rect x="440" y="50" width="16" height="16" fill="#15803d"/><rect x="440" y="30" width="16" height="16" fill="#15803d"/><rect x="440" y="10" width="16" height="16" fill="#15803d"/><rect x="460" y="130" width="16" height="16" fill="#15803d"/><rect x="460" y="110" width="16" height="16" fill="#15803d"/><rect x="460" y="90" width="16" height="16" fill="#15803d"/><rect x="460" y="70" width="16" height="16" fill="#15803d"/><rect x="460" y="50" width="16" height="16" fill="#15803d"/><rect x="480" y="130" width="16" height="16" fill="#15803d"/><rect x="480" y="110" width="16" height="16" fill="#15803d"/><rect x="480" y="90" width="16" height="16" fill="#15803d"/><rect x="480" y="70" width="16" height="16" fill="#15803d"/><rect x="480" y="50" width="16" height="16" fill="#15803d"/><rect x="500" y="130" width="16" height="16" fill="#15803d"/><rect x="500" y="110" width="16" height="16" fill="#15803d"/><rect x="500" y="90" width="16" height="16" fill="#15803d"/><rect x="500" y="70" width="16" height="16" fill="#15803d"/><rect x="500" y="50" width="16" height="16" fill="#15803d"/><rect x="500" y="30" width="16" height="16" fill="#15803d"/><rect x="520" y="130" width="16" height="16" fill="#15803d"/><rect x="520" y="110" width="16" height="16" fill="#15803d"/><rect x="520" y="90" width="16" height="16" fill="#15803d"/><rect x="520" y="70" width="16" height="16" fill="#15803d"/><rect x="520" y="50" width="16" height="16" fill="#15803d"/><rect x="540" y="130" width="16" height="16" fill="#15803d"/><rect x="540" y="110" width="16" height="16" fill="#15803d"/><rect x="0" y="110" width="16" height="16" fill="#15803d"/><rect x="0" y="90" width="16" height="16" fill="#15803d"/><rect x="0" y="70" width="16" height="16" fill="#15803d"/><rect x="0" y="50" width="16" height="16" fill="#15803d"/><rect x="0" y="30" width="16" height="16" fill="#15803d"/><rect x="0" y="10" width="16" height="16" fill="#15803d"/><rect x="0" y="-10" width="16" height="16" fill="#15803d"/><rect x="20" y="110" width="16" height="16" fill="#15803d"/><rect x="20" y="90" width="16" height="16" fill="#15803d"/><rect x="20" y="70" width="16" height="16" fill="#15803d"/><rect x="20" y="50" width="16" height="16" fill="#15803d"/><rect x="20" y="30" width="16" height="16" fill="#15803d"/><rect x="20" y="10" width="16" height="16" fill="#15803d"/><rect x="40" y="110" width="16" height="16" fill="#15803d"/><rect x="40" y="90" width="16" height="16" fill="#15803d"/><rect x="40" y="70" width="16" height="16" fill="#15803d"/><rect x="40" y="50" width="16" height="16" fill="#15803d"/><rect x="40" y="30" width="16" height="16" fill="#15803d"/><rect x="40" y="10" width="16" height="16" fill="#15803d"/><rect x="60" y="110" width="16" height="16" fill="#15803d"/><rect x="60" y="90" width="16" height="16" fill="#15803d"/><rect x="60" y="70" width="16" height="16" fill="#15803d"/><rect x="60" y="50" width="16" height="16" fill="#15803d"/><rect x="80" y="110" width="16" height="16" fill="#15803d"/><rect x="80" y="90" width="16" height="16" fill="#15803d"/><rect x="80" y="70" width="16" height="16" fill="#15803d"/><rect x="80" y="50" width="16" height="16" fill="#15803d"/><rect x="80" y="30" width="16" height="16" fill="#15803d"/><rect x="80" y="10" width="16" height="16" fill="#15803d"/><rect x="100" y="110" width="16" height="16" fill="#15803d"/><rect x="100" y="90" width="16" height="16" fill="#15803d"/><rect x="100" y="70" width="16" height="16" fill="#15803d"/><rect x="140" y="110" width="16" height="16" fill="#15803d"/><rect x="140" y="90" width="16" height="16" fill="#15803d"/><rect x="140" y="70" width="16" height="16" fill="#15803d"/><rect x="180" y="110" width="16" height="16" fill="#15803d"/><rect x="220" y="110" width="16" height="16" fill="#15803d"/><rect x="240" y="110" width="16" height="16" fill="#15803d"/><rect x="260" y="110" width="16" height="16" fill="#15803d"/><rect x="260" y="90" width="16" height="16" fill="#15803d"/><rect x="260" y="70" width="16" height="16" fill="#15803d"/><rect x="260" y="50" width="16" height="16" fill="#15803d"/><rect x="260" y="30" width="16" height="16" fill="#15803d"/><rect x="260" y="10" width="16" height="16" fill="#15803d"/><rect x="280" y="110" width="16" height="16" fill="#15803d"/><rect x="280" y="90" width="16" height="16" fill="#15803d"/><rect x="280" y="70" width="16" height="16" fill="#15803d"/><rect x="280" y="50" width="16" height="16" fill="#15803d"/><rect x="300" y="110" width="16" height="16" fill="#15803d"/><rect x="320" y="110" width="16" height="16" fill="#15803d"/><rect x="320" y="90" width="16" height="16" fill="#15803d"/><rect x="320" y="70" width="16" height="16" fill="#15803d"/><rect x="320" y="50" width="16" height="16" fill="#15803d"/><rect x="320" y="30" width="16" height="16" fill="#15803d"/><rect x="340" y="110" width="16" height="16" fill="#15803d"/><rect x="340" y="90" width="16" height="16" fill="#15803d"/><rect x="340" y="70" width="16" height="16" fill="#15803d"/><rect x="340" y="50" width="16" height="16" fill="#15803d"/><rect x="340" y="30" width="16" height="16" fill="#15803d"/><rect x="360" y="110" width="16" height="16" fill="#15803d"/><rect x="380" y="110" width="16" height="16" fill="#15803d"/><rect x="380" y="90" width="16" height="16" fill="#15803d"/><rect x="380" y="70" width="16" height="16" fill="#15803d"/><rect x="400" y="110" width="16" height="16" fill="#15803d"/><rect x="400" y="90" width="16" height="16" fill="#15803d"/><rect x="400" y="70" width="16" height="16" fill="#15803d"/><rect x="400" y="50" width="16" height="16" fill="#15803d"/><rect x="400" y="30" width="16" height="16" fill="#15803d"/><rect x="420" y="110" width="16" height="16" fill="#15803d"/><rect x="420" y="90" width="16" height="16" fill="#15803d"/><rect x="420" y="70" width="16" height="16" fill="#15803d"/><rect x="460" y="110" width="16" height="16" fill="#15803d"/><rect x="460" y="90" width="16" height="16" fill="#15803d"/><rect x="480" y="110" width="16" height="16" fill="#15803d"/><rect x="480" y="90" width="16" height="16" fill="#15803d"/><rect x="480" y="70" width="16" height="16" fill="#15803d"/><rect x="480" y="50" width="16" height="16" fill="#15803d"/><rect x="480" y="30" width="16" height="16" fill="#15803d"/><rect x="500" y="110" width="16" height="16" fill="#15803d"/><rect x="520" y="110" width="16" height="16" fill="#15803d"/><rect x="0" y="90" width="16" height="16" fill="#15803d"/><rect x="0" y="70" width="16" height="16" fill="#15803d"/><rect x="0" y="50" width="16" height="16" fill="#15803d"/><rect x="20" y="90" width="16" height="16" fill="#15803d"/><rect x="20" y="70" width="16" height="16" fill="#15803d"/><rect x="20" y="50" width="16" height="16" fill="#15803d"/><rect x="20" y="30" width="16" height="16" fill="#15803d"/><rect x="20" y="10" width="16" height="16" fill="#15803d"/><rect x="40" y="90" width="16" height="16" fill="#15803d"/><rect x="40" y="70" width="16" height="16" fill="#15803d"/><rect x="60" y="90" width="16" height="16" fill="#15803d"/><rect x="60" y="70" width="16" height="16" fill="#15803d"/><rect x="80" y="90" width="16" height="16" fill="#15803d"/><rect x="80" y="70" width="16" height="16" fill="#15803d"/><rect x="80" y="50" width="16" height="16" fill="#15803d"/><rect x="80" y="30" width="16" height="16" fill="#15803d"/><rect x="80" y="10" width="16" height="16" fill="#15803d"/><rect x="80" y="-10" width="16" height="16" fill="#15803d"/><rect x="100" y="90" width="16" height="16" fill="#15803d"/><rect x="100" y="70" width="16" height="16" fill="#15803d"/><rect x="100" y="50" width="16" height="16" fill="#15803d"/><rect x="100" y="30" width="16" height="16" fill="#15803d"/><rect x="120" y="90" width="16" height="16" fill="#15803d"/><rect x="120" y="70" width="16" height="16" fill="#15803d"/><rect x="120" y="50" width="16" height="16" fill="#15803d"/><rect x="120" y="30" width="16" height="16" fill="#15803d"/><rect x="120" y="10" width="16" height="16" fill="#15803d"/><rect x="120" y="-10" width="16" height="16" fill="#15803d"/><rect x="120" y="-30" width="16" height="16" fill="#15803d"/><rect x="140" y="90" width="16" height="16" fill="#15803d"/><rect x="140" y="70" width="16" height="16" fill="#15803d"/><rect x="140" y="50" width="16" height="16" fill="#15803d"/><rect x="140" y="30" width="16" height="16" fill="#15803d"/><rect x="140" y="10" width="16" height="16" fill="#15803d"/><rect x="140" y="-10" width="16" height="16" fill="#15803d"/><rect x="140" y="-30" width="16" height="16" fill="#15803d"/><rect x="160" y="90" width="16" height="16" fill="#15803d"/><rect x="160" y="70" width="16" height="16" fill="#15803d"/><rect x="160" y="50" width="16" height="16" fill="#15803d"/><rect x="160" y="30" width="16" height="16" fill="#15803d"/><rect x="160" y="10" width="16" height="16" fill="#15803d"/><rect x="160" y="-10" width="16" height="16" fill="#15803d"/><rect x="160" y="-30" width="16" height="16" fill="#15803d"/><rect x="180" y="90" width="16" height="16" fill="#15803d"/><rect x="200" y="90" width="16" height="16" fill="#15803d"/><rect x="200" y="70" width="16" height="16" fill="#15803d"/><rect x="240" y="90" width="16" height="16" fill="#15803d"/><rect x="240" y="70" width="16" height="16" fill="#15803d"/><rect x="240" y="50" width="16" height="16" fill="#15803d"/><rect x="240" y="30" width="16" height="16" fill="#15803d"/><rect x="240" y="10" width="16" height="16" fill="#15803d"/><rect x="240" y="-10" width="16" height="16" fill="#15803d"/><rect x="240" y="-30" width="16" height="16" fill="#15803d"/><rect x="260" y="90" width="16" height="16" fill="#15803d"/><rect x="260" y="70" width="16" height="16" fill="#15803d"/><rect x="260" y="50" width="16" height="16" fill="#15803d"/><rect x="260" y="30" width="16" height="16" fill="#15803d"/><rect x="280" y="90" width="16" height="16" fill="#15803d"/><rect x="280" y="70" width="16" height="16" fill="#15803d"/><rect x="280" y="50" width="16" height="16" fill="#15803d"/><rect x="300" y="90" width="16" height="16" fill="#15803d"/><rect x="300" y="70" width="16" height="16" fill="#15803d"/><rect x="300" y="50" width="16" height="16" fill="#15803d"/><rect x="300" y="30" width="16" height="16" fill="#15803d"/><rect x="300" y="10" width="16" height="16" fill="#15803d"/><rect x="320" y="90" width="16" height="16" fill="#15803d"/><rect x="320" y="70" width="16" height="16" fill="#15803d"/><rect x="320" y="50" width="16" height="16" fill="#15803d"/><rect x="320" y="30" width="16" height="16" fill="#15803d"/><rect x="320" y="10" width="16" height="16" fill="#15803d"/><rect x="320" y="-10" width="16" height="16" fill="#15803d"/><rect x="320" y="-30" width="16" height="16" fill="#15803d"/><rect x="340" y="90" width="16" height="16" fill="#15803d"/><rect x="340" y="70" width="16" height="16" fill="#15803d"/><rect x="340" y="50" width="16" height="16" fill="#15803d"/><rect x="340" y="30" width="16" height="16" fill="#15803d"/><rect x="340" y="10" width="16" height="16" fill="#15803d"/><rect x="340" y="-10" width="16" height="16" fill="#15803d"/><rect x="340" y="-30" width="16" height="16" fill="#15803d"/><rect x="380" y="90" width="16" height="16" fill="#15803d"/><rect x="380" y="70" width="16" height="16" fill="#15803d"/><rect x="380" y="50" width="16" height="16" fill="#15803d"/><rect x="380" y="30" width="16" height="16" fill="#15803d"/><rect x="400" y="90" width="16" height="16" fill="#15803d"/><rect x="400" y="70" width="16" height="16" fill="#15803d"/><rect x="400" y="50" width="16" height="16" fill="#15803d"/><rect x="400" y="30" width="16" height="16" fill="#15803d"/><rect x="400" y="10" width="16" height="16" fill="#15803d"/><rect x="400" y="-10" width="16" height="16" fill="#15803d"/><rect x="420" y="90" width="16" height="16" fill="#15803d"/><rect x="420" y="70" width="16" height="16" fill="#15803d"/><rect x="420" y="50" width="16" height="16" fill="#15803d"/><rect x="440" y="90" width="16" height="16" fill="#15803d"/><rect x="440" y="70" width="16" height="16" fill="#15803d"/><rect x="440" y="50" width="16" height="16" fill="#15803d"/><rect x="440" y="30" width="16" height="16" fill="#15803d"/><rect x="440" y="10" width="16" height="16" fill="#15803d"/><rect x="440" y="-10" width="16" height="16" fill="#15803d"/><rect x="440" y="-30" width="16" height="16" fill="#15803d"/><rect x="460" y="90" width="16" height="16" fill="#15803d"/><rect x="460" y="70" width="16" height="16" fill="#15803d"/><rect x="460" y="50" width="16" height="16" fill="#15803d"/><rect x="460" y="30" width="16" height="16" fill="#15803d"/><rect x="460" y="10" width="16" height="16" fill="#15803d"/><rect x="480" y="90" width="16" height="16" fill="#15803d"/><rect x="480" y="70" width="16" height="16" fill="#15803d"/><rect x="480" y="50" width="16" height="16" fill="#15803d"/><rect x="480" y="30" width="16" height="16" fill="#15803d"/><rect x="480" y="10" width="16" height="16" fill="#15803d"/><rect x="480" y="-10" width="16" height="16" fill="#15803d"/><rect x="500" y="90" width="16" height="16" fill="#15803d"/><rect x="500" y="70" width="16" height="16" fill="#15803d"/><rect x="500" y="50" width="16" height="16" fill="#15803d"/><rect x="500" y="30" width="16" height="16" fill="#15803d"/><rect x="500" y="10" width="16" height="16" fill="#15803d"/><rect x="500" y="-10" width="16" height="16" fill="#15803d"/><rect x="520" y="90" width="16" height="16" fill="#15803d"/><rect x="520" y="70" width="16" height="16" fill="#15803d"/><rect x="520" y="50" width="16" height="16" fill="#15803d"/><rect x="520" y="30" width="16" height="16" fill="#15803d"/><rect x="520" y="10" width="16" height="16" fill="#15803d"/><rect x="540" y="90" width="16" height="16" fill="#15803d"/><rect x="540" y="70" width="16" height="16" fill="#15803d"/><rect x="540" y="50" width="16" height="16" fill="#15803d"/><rect x="540" y="30" width="16" height="16" fill="#15803d"/><rect x="540" y="10" width="16" height="16" fill="#15803d"/><rect x="0" y="70" width="16" height="16" fill="#15803d"/><rect x="0" y="50" width="16" height="16" fill="#15803d"/><rect x="20" y="70" width="16" height="16" fill="#15803d"/><rect x="20" y="50" width="16" height="16" fill="#15803d"/><rect x="40" y="70" width="16" height="16" fill="#15803d"/><rect x="40" y="50" width="16" height="16" fill="#15803d"/><rect x="40" y="30" width="16" height="16" fill="#15803d"/><rect x="40" y="10" width="16" height="16" fill="#15803d"/><rect x="60" y="70" width="16" height="16" fill="#15803d"/><rect x="80" y="70" width="16" height="16" fill="#15803d"/><rect x="80" y="50" width="16" height="16" fill="#15803d"/><rect x="80" y="30" width="16" height="16" fill="#15803d"/><rect x="100" y="70" width="16" height="16" fill="#15803d"/><rect x="120" y="70" width="16" height="16" fill="#15803d"/><rect x="120" y="50" width="16" height="16" fill="#15803d"/><rect x="120" y="30" width="16" height="16" fill="#15803d"/><rect x="120" y="10" width="16" height="16" fill="#15803d"/><rect x="140" y="70" width="16" height="16" fill="#15803d"/><rect x="140" y="50" width="16" height="16" fill="#15803d"/><rect x="140" y="30" width="16" height="16" fill="#15803d"/><rect x="140" y="10" width="16" height="16" fill="#15803d"/><rect x="140" y="-10" width="16" height="16" fill="#15803d"/><rect x="140" y="-30" width="16" height="16" fill="#15803d"/><rect x="180" y="70" width="16" height="16" fill="#15803d"/><rect x="200" y="70" width="16" height="16" fill="#15803d"/><rect x="200" y="50" width="16" height="16" fill="#15803d"/><rect x="200" y="30" width="16" height="16" fill="#15803d"/><rect x="200" y="10" width="16" height="16" fill="#15803d"/><rect x="200" y="-10" width="16" height="16" fill="#15803d"/><rect x="200" y="-30" width="16" height="16" fill="#15803d"/><rect x="220" y="70" width="16" height="16" fill="#15803d"/><rect x="220" y="50" width="16" height="16" fill="#15803d"/><rect x="220" y="30" width="16" height="16" fill="#15803d"/><rect x="220" y="10" width="16" height="16" fill="#15803d"/><rect x="220" y="-10" width="16" height="16" fill="#15803d"/><rect x="240" y="70" width="16" height="16" fill="#15803d"/><rect x="240" y="50" width="16" height="16" fill="#15803d"/><rect x="240" y="30" width="16" height="16" fill="#15803d"/><rect x="240" y="10" width="16" height="16" fill="#15803d"/><rect x="260" y="70" width="16" height="16" fill="#15803d"/><rect x="260" y="50" width="16" height="16" fill="#15803d"/><rect x="260" y="30" width="16" height="16" fill="#15803d"/><rect x="260" y="10" width="16" height="16" fill="#15803d"/><rect x="260" y="-10" width="16" height="16" fill="#15803d"/><rect x="260" y="-30" width="16" height="16" fill="#15803d"/><rect x="260" y="-50" width="16" height="16" fill="#15803d"/><rect x="280" y="70" width="16" height="16" fill="#15803d"/><rect x="280" y="50" width="16" height="16" fill="#15803d"/><rect x="280" y="30" width="16" height="16" fill="#15803d"/><rect x="300" y="70" width="16" height="16" fill="#15803d"/><rect x="300" y="50" width="16" height="16" fill="#15803d"/><rect x="300" y="30" width="16" height="16" fill="#15803d"/><rect x="300" y="10" width="16" height="16" fill="#15803d"/><rect x="300" y="-10" width="16" height="16" fill="#15803d"/><rect x="300" y="-30" width="16" height="16" fill="#15803d"/><rect x="320" y="70" width="16" height="16" fill="#15803d"/><rect x="320" y="50" width="16" height="16" fill="#15803d"/><rect x="320" y="30" width="16" height="16" fill="#15803d"/><rect x="320" y="10" width="16" height="16" fill="#15803d"/><rect x="320" y="-10" width="16" height="16" fill="#15803d"/><rect x="340" y="70" width="16" height="16" fill="#15803d"/><rect x="340" y="50" width="16" height="16" fill="#15803d"/><rect x="360" y="70" width="16" height="16" fill="#15803d"/><rect x="360" y="50" width="16" height="16" fill="#15803d"/><rect x="360" y="30" width="16" height="16" fill="#15803d"/><rect x="360" y="10" width="16" height="16" fill="#15803d"/><rect x="360" y="-10" width="16" height="16" fill="#15803d"/><rect x="360" y="-30" width="16" height="16" fill="#15803d"/><rect x="360" y="-50" width="16" height="16" fill="#15803d"/><rect x="380" y="70" width="16" height="16" fill="#15803d"/><rect x="380" y="50" width="16" height="16" fill="#15803d"/><rect x="380" y="30" width="16" height="16" fill="#15803d"/><rect x="380" y="10" width="16" height="16" fill="#15803d"/><rect x="380" y="-10" width="16" height="16" fill="#15803d"/><rect x="380" y="-30" width="16" height="16" fill="#15803d"/><rect x="400" y="70" width="16" height="16" fill="#15803d"/><rect x="400" y="50" width="16" height="16" fill="#15803d"/><rect x="400" y="30" width="16" height="16" fill="#15803d"/><rect x="440" y="70" width="16" height="16" fill="#15803d"/><rect x="440" y="50" width="16" height="16" fill="#15803d"/><rect x="440" y="30" width="16" height="16" fill="#15803d"/><rect x="440" y="10" width="16" height="16" fill="#15803d"/><rect x="460" y="70" width="16" height="16" fill="#15803d"/><rect x="480" y="70" width="16" height="16" fill="#15803d"/><rect x="480" y="50" width="16" height="16" fill="#15803d"/><rect x="540" y="70" width="16" height="16" fill="#15803d"/><rect x="0" y="50" width="16" height="16" fill="#15803d"/><rect x="20" y="50" width="16" height="16" fill="#15803d"/><rect x="20" y="30" width="16" height="16" fill="#15803d"/><rect x="40" y="50" width="16" height="16" fill="#15803d"/><rect x="60" y="50" width="16" height="16" fill="#15803d"/><rect x="60" y="30" width="16" height="16" fill="#15803d"/><rect x="100" y="50" width="16" height="16" fill="#15803d"/><rect x="100" y="30" width="16" height="16" fill="#15803d"/><rect x="120" y="50" width="16" height="16" fill="#15803d"/><rect x="120" y="30" width="16" height="16" fill="#15803d"/><rect x="140" y="50" width="16" height="16" fill="#15803d"/><rect x="160" y="50" width="16" height="16" fill="#15803d"/><rect x="160" y="30" width="16" height="16" fill="#15803d"/><rect x="160" y="10" width="16" height="16" fill="#15803d"/><rect x="160" y="-10" width="16" height="16" fill="#15803d"/><rect x="160" y="-30" width="16" height="16" fill="#15803d"/><rect x="180" y="50" width="16" height="16" fill="#15803d"/><rect x="200" y="50" width="16" height="16" fill="#15803d"/><rect x="220" y="50" width="16" height="16" fill="#15803d"/><rect x="220" y="30" width="16" height="16" fill="#15803d"/><rect x="220" y="10" width="16" height="16" fill="#15803d"/><rect x="220" y="-10" width="16" height="16" fill="#15803d"/><rect x="240" y="50" width="16" height="16" fill="#15803d"/><rect x="240" y="30" width="16" height="16" fill="#15803d"/><rect x="240" y="10" width="16" height="16" fill="#15803d"/><rect x="240" y="-10" width="16" height="16" fill="#15803d"/><rect x="240" y="-30" width="16" height="16" fill="#15803d"/><rect x="260" y="50" width="16" height="16" fill="#15803d"/><rect x="260" y="30" width="16" height="16" fill="#15803d"/><rect x="280" y="50" width="16" height="16" fill="#15803d"/><rect x="300" y="50" width="16" height="16" fill="#15803d"/><rect x="300" y="30" width="16" height="16" fill="#15803d"/><rect x="300" y="10" width="16" height="16" fill="#15803d"/><rect x="300" y="-10" width="16" height="16" fill="#15803d"/><rect x="320" y="50" width="16" height="16" fill="#15803d"/><rect x="320" y="30" width="16" height="16" fill="#15803d"/><rect x="320" y="10" width="16" height="16" fill="#15803d"/><rect x="340" y="50" width="16" height="16" fill="#15803d"/><rect x="340" y="30" width="16" height="16" fill="#15803d"/><rect x="340" y="10" width="16" height="16" fill="#15803d"/><rect x="340" y="-10" width="16" height="16" fill="#15803d"/><rect x="340" y="-30" width="16" height="16" fill="#15803d"/><rect x="340" y="-50" width="16" height="16" fill="#15803d"/><rect x="340" y="-70" width="16" height="16" fill="#15803d"/><rect x="360" y="50" width="16" height="16" fill="#15803d"/><rect x="360" y="30" width="16" height="16" fill="#15803d"/><rect x="360" y="10" width="16" height="16" fill="#15803d"/><rect x="360" y="-10" width="16" height="16" fill="#15803d"/><rect x="360" y="-30" width="16" height="16" fill="#15803d"/><rect x="360" y="-50" width="16" height="16" fill="#15803d"/><rect x="380" y="50" width="16" height="16" fill="#15803d"/><rect x="380" y="30" width="16" height="16" fill="#15803d"/><rect x="380" y="10" width="16" height="16" fill="#15803d"/><rect x="400" y="50" width="16" height="16" fill="#15803d"/><rect x="400" y="30" width="16" height="16" fill="#15803d"/><rect x="400" y="10" width="16" height="16" fill="#15803d"/><rect x="400" y="-10" width="16" height="16" fill="#15803d"/><rect x="400" y="-30" width="16" height="16" fill="#15803d"/><rect x="400" y="-50" width="16" height="16" fill="#15803d"/><rect x="400" y="-70" width="16" height="16" fill="#15803d"/><rect x="420" y="50" width="16" height="16" fill="#15803d"/><rect x="420" y="30" width="16" height="16" fill="#15803d"/><rect x="420" y="10" width="16" height="16" fill="#15803d"/><rect x="420" y="-10" width="16" height="16" fill="#15803d"/><rect x="420" y="-30" width="16" height="16" fill="#15803d"/><rect x="460" y="50" width="16" height="16" fill="#15803d"/><rect x="460" y="30" width="16" height="16" fill="#15803d"/><rect x="460" y="10" width="16" height="16" fill="#15803d"/><rect x="460" y="-10" width="16" height="16" fill="#15803d"/><rect x="460" y="-30" width="16" height="16" fill="#15803d"/><rect x="460" y="-50" width="16" height="16" fill="#15803d"/><rect x="480" y="50" width="16" height="16" fill="#15803d"/><rect x="480" y="30" width="16" height="16" fill="#15803d"/><rect x="480" y="10" width="16" height="16" fill="#15803d"/><rect x="480" y="-10" width="16" height="16" fill="#15803d"/><rect x="480" y="-30" width="16" height="16" fill="#15803d"/><rect x="480" y="-50" width="16" height="16" fill="#15803d"/><rect x="500" y="50" width="16" height="16" fill="#15803d"/><rect x="500" y="30" width="16" height="16" fill="#15803d"/><rect x="520" y="50" width="16" height="16" fill="#15803d"/><rect x="520" y="30" width="16" height="16" fill="#15803d"/><rect x="520" y="10" width="16" height="16" fill="#15803d"/><rect x="520" y="-10" width="16" height="16" fill="#15803d"/><rect x="520" y="-30" width="16" height="16" fill="#15803d"/><rect x="540" y="50" width="16" height="16" fill="#15803d"/><rect x="540" y="30" width="16" height="16" fill="#15803d"/><rect x="540" y="10" width="16" height="16" fill="#15803d"/><rect x="540" y="-10" width="16" height="16" fill="#15803d"/><rect x="540" y="-30" width="16" height="16" fill="#15803d"/><rect x="540" y="-50" width="16" height="16" fill="#15803d"/><g id="hero" transform="translate(0 170)">
  <rect x="4" y="0" width="12" height="12" fill="#111827"/>
  <rect x="6" y="12" width="8" height="10" fill="#22c55e"/>
  <rect x="4" y="22" width="4" height="6" fill="#111827"/>
  <rect x="12" y="22" width="4" height="6" fill="#111827"/>

  <animateTransform
    attributeName="transform"
    type="translate"
    from="0 170"
    to="540 170"
    dur="6s"
    repeatCount="indefinite"
  />
</g><g id="plane" transform="translate(0 10)">
  <polygon points="0,5 10,0 10,10" fill="#facc15"/>
  <animateTransform
    attributeName="transform"
    type="translate"
    from="0 10"
    to="580 10"
    dur="8s"
    repeatCount="indefinite"
  />
</g></svg>