<svg xmlns="http://www.w3.org/2000/svg"
  viewBox="0 0 560 140"
  width="560"
  height="140"
  style="background:#020617"><rect x="0" y="0" width="16" height="16" rx="3" fill="#4b5563" /><rect x="20" y="0" width="16" height="16" rx="3" fill="#6b7280" /><rect x="40" y="0" width="16" height="16" rx="3" fill="#4b5563" /><rect x="60" y="0" width="16" height="16" rx="3" fill="#4b5563" /><rect x="80" y="0" width="16" height="16" rx="3" fill="#4b5563" /><rect x="100" y="0" width="16" height="16" rx="3" fill="#1f2937" /><rect x="120" y="0" width="16" height="16" rx="3" fill="#4b5563" /><rect x="140" y="0" width="16" height="16" rx="3" fill="#1f2937" /><rect x="160" y="0" width="16" height="16" rx="3" fill="#6b7280" /><rect x="180" y="0" width="16" height="16" rx="3" fill="#1f2937" /><rect x="200" y="0" width="16" height="16" rx="3" fill="#1f2937" /><rect x="220" y="0" width="16" height="16" rx="3" fill="#6b7280" /><rect x="240" y="0" width="16" height="16" rx="3" fill="#374151" /><rect x="260" y="0" width="16" height="16" rx="3" fill="#4b5563" /><rect x="280" y="0" width="16" height="16" rx="3" fill="#4b5563" /><rect x="300" y="0" width="16" height="16" rx="3" fill="#4b5563" /><rect x="320" y="0" width="16" height="16" rx="3" fill="#4b5563" /><rect x="340" y="0" width="16" height="16" rx="3" fill="#4b5563" /><rect x="360" y="0" width="16" height="16" rx="3" fill="#374151" /><rect x="380" y="0" width="16" height="16" rx="3" fill="#374151" /><rect x="400" y="0" width="16" height="16" rx="3" fill="#6b7280" /><rect x="420" y="0" width="16" height="16" rx="3" fill="#4b5563" /><rect x="440" y="0" width="16" height="16" rx="3" fill="#6b7280" /><rect x="460" y="0" width="16" height="16" rx="3" fill="#1f2937" /><rect x="480" y="0" width="16" height="16" rx="3" fill="#1f2937" /><rect x="500" y="0" width="16" height="16" rx="3" fill="#4b5563" /><rect x="520" y="0" width="16" height="16" rx="3" fill="#374151" /><rect x="540" y="0" width="16" height="16" rx="3" fill="#4b5563" /><rect x="0" y="20" width="16" height="16" rx="3" fill="#374151" /><rect x="20" y="20" width="16" height="16" rx="3" fill="#1f2937" /><rect x="40" y="20" width="16" height="16" rx="3" fill="#4b5563" /><rect x="60" y="20" width="16" height="16" rx="3" fill="#4b5563" /><rect x="80" y="20" width="16" height="16" rx="3" fill="#374151" /><rect x="100" y="20" width="16" height="16" rx="3" fill="#4b5563" /><rect x="120" y="20" width="16" height="16" rx="3" fill="#1f2937" /><rect x="140" y="20" width="16" height="16" rx="3" fill="#374151" /><rect x="160" y="20" width="16" height="16" rx="3" fill="#1f2937" /><rect x="180" y="20" width="16" height="16" rx="3" fill="#374151" /><rect x="200" y="20" width="16" height="16" rx="3" fill="#374151" /><rect x="220" y="20" width="16" height="16" rx="3" fill="#374151" /><rect x="240" y="20" width="16" height="16" rx="3" fill="#4b5563" /><rect x="260" y="20" width="16" height="16" rx="3" fill="#4b5563" /><rect x="280" y="20" width="16" height="16" rx="3" fill="#4b5563" /><rect x="300" y="20" width="16" height="16" rx="3" fill="#6b7280" /><rect x="320" y="20" width="16" height="16" rx="3" fill="#374151" /><rect x="340" y="20" width="16" height="16" rx="3" fill="#4b5563" /><rect x="360" y="20" width="16" height="16" rx="3" fill="#374151" /><rect x="380" y="20" width="16" height="16" rx="3" fill="#374151" /><rect x="400" y="20" width="16" height="16" rx="3" fill="#6b7280" /><rect x="420" y="20" width="16" height="16" rx="3" fill="#1f2937" /><rect x="440" y="20" width="16" height="16" rx="3" fill="#4b5563" /><rect x="460" y="20" width="16" height="16" rx="3" fill="#1f2937" /><rect x="480" y="20" width="16" height="16" rx="3" fill="#4b5563" /><rect x="500" y="20" width="16" height="16" rx="3" fill="#374151" /><rect x="520" y="20" width="16" height="16" rx="3" fill="#374151" /><rect x="540" y="20" width="16" height="16" rx="3" fill="#4b5563" /><rect x="0" y="40" width="16" height="16" rx="3" fill="#1f2937" /><rect x="20" y="40" width="16" height="16" rx="3" fill="#374151" /><rect x="40" y="40" width="16" height="16" rx="3" fill="#374151" /><rect x="60" y="40" width="16" height="16" rx="3" fill="#4b5563" /><rect x="80" y="40" width="16" height="16" rx="3" fill="#6b7280" /><rect x="100" y="40" width="16" height="16" rx="3" fill="#374151" /><rect x="120" y="40" width="16" height="16" rx="3" fill="#1f2937" /><rect x="140" y="40" width="16" height="16" rx="3" fill="#4b5563" /><rect x="160" y="40" width="16" height="16" rx="3" fill="#374151" /><rect x="180" y="40" width="16" height="16" rx="3" fill="#374151" /><rect x="200" y="40" width="16" height="16" rx="3" fill="#1f2937" /><rect x="220" y="40" width="16" height="16" rx="3" fill="#4b5563" /><rect x="240" y="40" width="16" height="16" rx="3" fill="#1f2937" /><rect x="260" y="40" width="16" height="16" rx="3" fill="#1f2937" /><rect x="280" y="40" width="16" height="16" rx="3" fill="#4b5563" /><rect x="300" y="40" width="16" height="16" rx="3" fill="#4b5563" /><rect x="320" y="40" width="16" height="16" rx="3" fill="#374151" /><rect x="340" y="40" width="16" height="16" rx="3" fill="#374151" /><rect x="360" y="40" width="16" height="16" rx="3" fill="#4b5563" /><rect x="380" y="40" width="16" height="16" rx="3" fill="#4b5563" /><rect x="400" y="40" width="16" height="16" rx="3" fill="#6b7280" /><rect x="420" y="40" width="16" height="16" rx="3" fill="#6b7280" /><rect x="440" y="40" width="16" height="16" rx="3" fill="#4b5563" /><rect x="460" y="40" width="16" height="16" rx="3" fill="#6b7280" /><rect x="480" y="40" width="16" height="16" rx="3" fill="#1f2937" /><rect x="500" y="40" width="16" height="16" rx="3" fill="#4b5563" /><rect x="520" y="40" width="16" height="16" rx="3" fill="#4b5563" /><rect x="540" y="40" width="16" height="16" rx="3" fill="#4b5563" /><rect x="0" y="60" width="16" height="16" rx="3" fill="#1f2937" /><rect x="20" y="60" width="16" height="16" rx="3" fill="#6b7280" /><rect x="40" y="60" width="16" height="16" rx="3" fill="#4b5563" /><rect x="60" y="60" width="16" height="16" rx="3" fill="#4b5563" /><rect x="80" y="60" width="16" height="16" rx="3" fill="#4b5563" /><rect x="100" y="60" width="16" height="16" rx="3" fill="#6b7280" /><rect x="120" y="60" width="16" height="16" rx="3" fill="#4b5563" /><rect x="140" y="60" width="16" height="16" rx="3" fill="#4b5563" /><rect x="160" y="60" width="16" height="16" rx="3" fill="#4b5563" /><rect x="180" y="60" width="16" height="16" rx="3" fill="#4b5563" /><rect x="200" y="60" width="16" height="16" rx="3" fill="#374151" /><rect x="220" y="60" width="16" height="16" rx="3" fill="#374151" /><rect x="240" y="60" width="16" height="16" rx="3" fill="#6b7280" /><rect x="260" y="60" width="16" height="16" rx="3" fill="#374151" /><rect x="280" y="60" width="16" height="16" rx="3" fill="#4b5563" /><rect x="300" y="60" width="16" height="16" rx="3" fill="#4b5563" /><rect x="320" y="60" width="16" height="16" rx="3" fill="#4b5563" /><rect x="340" y="60" width="16" height="16" rx="3" fill="#6b7280" /><rect x="360" y="60" width="16" height="16" rx="3" fill="#1f2937" /><rect x="380" y="60" width="16" height="16" rx="3" fill="#1f2937" /><rect x="400" y="60" width="16" height="16" rx="3" fill="#6b7280" /><rect x="420" y="60" width="16" height="16" rx="3" fill="#4b5563" /><rect x="440" y="60" width="16" height="16" rx="3" fill="#6b7280" /><rect x="460" y="60" width="16" height="16" rx="3" fill="#6b7280" /><rect x="480" y="60" width="16" height="16" rx="3" fill="#4b5563" /><rect x="500" y="60" width="16" height="16" rx="3" fill="#4b5563" /><rect x="520" y="60" width="16" height="16" rx="3" fill="#1f2937" /><rect x="540" y="60" width="16" height="16" rx="3" fill="#4b5563" /><rect x="0" y="80" width="16" height="16" rx="3" fill="#1f2937" /><rect x="20" y="80" width="16" height="16" rx="3" fill="#374151" /><rect x="40" y="80" width="16" height="16" rx="3" fill="#6b7280" /><rect x="60" y="80" width="16" height="16" rx="3" fill="#374151" /><rect x="80" y="80" width="16" height="16" rx="3" fill="#374151" /><rect x="100" y="80" width="16" height="16" rx="3" fill="#374151" /><rect x="120" y="80" width="16" height="16" rx="3" fill="#4b5563" /><rect x="140" y="80" width="16" height="16" rx="3" fill="#4b5563" /><rect x="160" y="80" width="16" height="16" rx="3" fill="#4b5563" /><rect x="180" y="80" width="16" height="16" rx="3" fill="#4b5563" /><rect x="200" y="80" width="16" height="16" rx="3" fill="#374151" /><rect x="220" y="80" width="16" height="16" rx="3" fill="#374151" /><rect x="240" y="80" width="16" height="16" rx="3" fill="#1f2937" /><rect x="260" y="80" width="16" height="16" rx="3" fill="#374151" /><rect x="280" y="80" width="16" height="16" rx="3" fill="#4b5563" /><rect x="300" y="80" width="16" height="16" rx="3" fill="#374151" /><rect x="320" y="80" width="16" height="16" rx="3" fill="#6b7280" /><rect x="340" y="80" width="16" height="16" rx="3" fill="#4b5563" /><rect x="360" y="80" width="16" height="16" rx="3" fill="#6b7280" /><rect x="380" y="80" width="16" height="16" rx="3" fill="#374151" /><rect x="400" y="80" width="16" height="16" rx="3" fill="#1f2937" /><rect x="420" y="80" width="16" height="16" rx="3" fill="#4b5563" /><rect x="440" y="80" width="16" height="16" rx="3" fill="#374151" /><rect x="460" y="80" width="16" height="16" rx="3" fill="#6b7280" /><rect x="480" y="80" width="16" height="16" rx="3" fill="#374151" /><rect x="500" y="80" width="16" height="16" rx="3" fill="#374151" /><rect x="520" y="80" width="16" height="16" rx="3" fill="#6b7280" /><rect x="540" y="80" width="16" height="16" rx="3" fill="#1f2937" /><rect x="0" y="100" width="16" height="16" rx="3" fill="#4b5563" /><rect x="20" y="100" width="16" height="16" rx="3" fill="#4b5563" /><rect x="40" y="100" width="16" height="16" rx="3" fill="#4b5563" /><rect x="60" y="100" width="16" height="16" rx="3" fill="#4b5563" /><rect x="80" y="100" width="16" height="16" rx="3" fill="#374151" /><rect x="100" y="100" width="16" height="16" rx="3" fill="#1f2937" /><rect x="120" y="100" width="16" height="16" rx="3" fill="#6b7280" /><rect x="140" y="100" width="16" height="16" rx="3" fill="#374151" /><rect x="160" y="100" width="16" height="16" rx="3" fill="#1f2937" /><rect x="180" y="100" width="16" height="16" rx="3" fill="#1f2937" /><rect x="200" y="100" width="16" height="16" rx="3" fill="#1f2937" /><rect x="220" y="100" width="16" height="16" rx="3" fill="#4b5563" /><rect x="240" y="100" width="16" height="16" rx="3" fill="#6b7280" /><rect x="260" y="100" width="16" height="16" rx="3" fill="#4b5563" /><rect x="280" y="100" width="16" height="16" rx="3" fill="#1f2937" /><rect x="300" y="100" width="16" height="16" rx="3" fill="#6b7280" /><rect x="320" y="100" width="16" height="16" rx="3" fill="#4b5563" /><rect x="340" y="100" width="16" height="16" rx="3" fill="#374151" /><rect x="360" y="100" width="16" height="16" rx="3" fill="#374151" /><rect x="380" y="100" width="16" height="16" rx="3" fill="#374151" /><rect x="400" y="100" width="16" height="16" rx="3" fill="#374151" /><rect x="420" y="100" width="16" height="16" rx="3" fill="#6b7280" /><rect x="440" y="100" width="16" height="16" rx="3" fill="#4b5563" /><rect x="460" y="100" width="16" height="16" rx="3" fill="#6b7280" /><rect x="480" y="100" width="16" height="16" rx="3" fill="#1f2937" /><rect x="500" y="100" width="16" height="16" rx="3" fill="#374151" /><rect x="520" y="100" width="16" height="16" rx="3" fill="#374151" /><rect x="540" y="100" width="16" height="16" rx="3" fill="#1f2937" /><rect x="0" y="120" width="16" height="16" rx="3" fill="#374151" /><rect x="20" y="120" width="16" height="16" rx="3" fill="#374151" /><rect x="40" y="120" width="16" height="16" rx="3" fill="#4b5563" /><rect x="60" y="120" width="16" height="16" rx="3" fill="#374151" /><rect x="80" y="120" width="16" height="16" rx="3" fill="#6b7280" /><rect x="100" y="120" width="16" height="16" rx="3" fill="#374151" /><rect x="120" y="120" width="16" height="16" rx="3" fill="#1f2937" /><rect x="140" y="120" width="16" height="16" rx="3" fill="#4b5563" /><rect x="160" y="120" width="16" height="16" rx="3" fill="#4b5563" /><rect x="180" y="120" width="16" height="16" rx="3" fill="#6b7280" /><rect x="200" y="120" width="16" height="16" rx="3" fill="#6b7280" /><rect x="220" y="120" width="16" height="16" rx="3" fill="#374151" /><rect x="240" y="120" width="16" height="16" rx="3" fill="#4b5563" /><rect x="260" y="120" width="16" height="16" rx="3" fill="#4b5563" /><rect x="280" y="120" width="16" height="16" rx="3" fill="#4b5563" /><rect x="300" y="120" width="16" height="16" rx="3" fill="#4b5563" /><rect x="320" y="120" width="16" height="16" rx="3" fill="#4b5563" /><rect x="340" y="120" width="16" height="16" rx="3" fill="#4b5563" /><rect x="360" y="120" width="16" height="16" rx="3" fill="#1f2937" /><rect x="380" y="120" width="16" height="16" rx="3" fill="#4b5563" /><rect x="400" y="120" width="16" height="16" rx="3" fill="#4b5563" /><rect x="420" y="120" width="16" height="16" rx="3" fill="#4b5563" /><rect x="440" y="120" width="16" height="16" rx="3" fill="#6b7280" /><rect x="460" y="120" width="16" height="16" rx="3" fill="#1f2937" /><rect x="480" y="120" width="16" height="16" rx="3" fill="#374151" /><rect x="500" y="120" width="16" height="16" rx="3" fill="#4b5563" /><rect x="520" y="120" width="16" height="16" rx="3" fill="#4b5563" /><rect x="540" y="120" width="16" height="16" rx="3" fill="#4b5563" />
<rect
  x="0" y="0"
  width="16" height="16"
  rx="3"
  fill="none"
  stroke="#9ca3af"
  stroke-width="2"
>
  <animateTransform
    attributeName="transform"
    type="translate"
    dur="19.6s"
    repeatCount="indefinite"
    values="0 0;20 0;40 0;60 0;80 0;100 0;120 0;140 0;160 0;180 0;200 0;220 0;240 0;260 0;280 0;300 0;320 0;340 0;360 0;380 0;400 0;420 0;440 0;460 0;480 0;500 0;520 0;540 0;540 20;520 20;500 20;480 20;460 20;440 20;420 20;400 20;380 20;360 20;340 20;320 20;300 20;280 20;260 20;240 20;220 20;200 20;180 20;160 20;140 20;120 20;100 20;80 20;60 20;40 20;20 20;0 20;0 40;20 40;40 40;60 40;80 40;100 40;120 40;140 40;160 40;180 40;200 40;220 40;240 40;260 40;280 40;300 40;320 40;340 40;360 40;380 40;400 40;420 40;440 40;460 40;480 40;500 40;520 40;540 40;540 60;520 60;500 60;480 60;460 60;440 60;420 60;400 60;380 60;360 60;340 60;320 60;300 60;280 60;260 60;240 60;220 60;200 60;180 60;160 60;140 60;120 60;100 60;80 60;60 60;40 60;20 60;0 60;0 80;20 80;40 80;60 80;80 80;100 80;120 80;140 80;160 80;180 80;200 80;220 80;240 80;260 80;280 80;300 80;320 80;340 80;360 80;380 80;400 80;420 80;440 80;460 80;480 80;500 80;520 80;540 80;540 100;520 100;500 100;480 100;460 100;440 100;420 100;400 100;380 100;360 100;340 100;320 100;300 100;280 100;260 100;240 100;220 100;200 100;180 100;160 100;140 100;120 100;100 100;80 100;60 100;40 100;20 100;0 100;0 120;20 120;40 120;60 120;80 120;100 120;120 120;140 120;160 120;180 120;200 120;220 120;240 120;260 120;280 120;300 120;320 120;340 120;360 120;380 120;400 120;420 120;440 120;460 120;480 120;500 120;520 120;540 120"
  />
</rect>
</svg>