<svg xmlns="http://www.w3.org/2000/svg" width="616" height="194" viewBox="0 0 616 194"><rect x="0" y="0"
      width="18" height="18" rx="4"
      fill="#e5e7eb"/><rect x="22" y="0"
      width="18" height="18" rx="4"
      fill="#e5e7eb"/><rect x="44" y="0"
      width="18" height="18" rx="4"
      fill="#e5e7eb"/><rect x="66" y="0"
      width="18" height="18" rx="4"
      fill="#e5e7eb"/><rect x="88" y="0"
      width="18" height="18" rx="4"
      fill="#e5e7eb"/><rect x="110" y="0"
      width="18" height="18" rx="4"
      fill="#e5e7eb"/><rect x="132" y="0"
      width="18" height="18" rx="4"
      fill="#e5e7eb"/><rect x="154" y="0"
      width="18" height="18" rx="4"
      fill="#e5e7eb"/><rect x="176" y="0"
      width="18" height="18" rx="4"
      fill="#e5e7eb"/><rect x="198" y="0"
      width="18" height="18" rx="4"
      fill="#e5e7eb"/><rect x="220" y="0"
      width="18" height="18" rx="4"
      fill="#e5e7eb"/><rect x="242" y="0"
      width="18" height="18" rx="4"
      fill="#e5e7eb"/><rect x="264" y="0"
      width="18" height="18" rx="4"
      fill="#e5e7eb"/><rect x="286" y="0"
      width="18" height="18" rx="4"
      fill="#e5e7eb"/><rect x="308" y="0"
      width="18" height="18" rx="4"
      fill="#e5e7eb"/><rect x="330" y="0"
      width="18" height="18" rx="4"
      fill="#e5e7eb"/><rect x="352" y="0"
      width="18" height="18" rx="4"
      fill="#e5e7eb"/><rect x="374" y="0"
      width="18" height="18" rx="4"
      fill="#e5e7eb"/><rect x="396" y="0"
      width="18" height="18" rx="4"
      fill="#e5e7eb"/><rect x="418" y="0"
      width="18" height="18" rx="4"
      fill="#e5e7eb"/><rect x="440" y="0"
      width="18" height="18" rx="4"
      fill="#e5e7eb"/><rect x="462" y="0"
      width="18" height="18" rx="4"
      fill="#e5e7eb"/><rect x="484" y="0"
      width="18" height="18" rx="4"
      fill="#e5e7eb"/><rect x="506" y="0"
      width="18" height="18" rx="4"
      fill="#e5e7eb"/><rect x="528" y="0"
      width="18" height="18" rx="4"
      fill="#e5e7eb"/><rect x="550" y="0"
      width="18" height="18" rx="4"
      fill="#e5e7eb"/><rect x="572" y="0"
      width="18" height="18" rx="4"
      fill="#e5e7eb"/><rect x="594" y="0"
      width="18" height="18" rx="4"
      fill="#e5e7eb"/><rect x="0" y="22"
      width="18" height="18" rx="4"
      fill="#e5e7eb"/><rect x="22" y="22"
      width="18" height="18" rx="4"
      fill="#e5e7eb"/><rect x="44" y="22"
      width="18" height="18" rx="4"
      fill="#e5e7eb"/><rect x="66" y="22"
      width="18" height="18" rx="4"
      fill="#e5e7eb"/><rect x="88" y="22"
      width="18" height="18" rx="4"
      fill="#e5e7eb"/><rect x="110" y="22"
      width="18" height="18" rx="4"
      fill="#e5e7eb"/><rect x="132" y="22"
      width="18" height="18" rx="4"
      fill="#e5e7eb"/><rect x="154" y="22"
      width="18" height="18" rx="4"
      fill="#e5e7eb"/><rect x="176" y="22"
      width="18" height="18" rx="4"
      fill="#e5e7eb"/><rect x="198" y="22"
      width="18" height="18" rx="4"
      fill="#e5e7eb"/><rect x="220" y="22"
      width="18" height="18" rx="4"
      fill="#e5e7eb"/><rect x="242" y="22"
      width="18" height="18" rx="4"
      fill="#e5e7eb"/><rect x="264" y="22"
      width="18" height="18" rx="4"
      fill="#e5e7eb"/><rect x="286" y="22"
      width="18" height="18" rx="4"
      fill="#e5e7eb"/><rect x="308" y="22"
      width="18" height="18" rx="4"
      fill="#e5e7eb"/><rect x="330" y="22"
      width="18" height="18" rx="4"
      fill="#e5e7eb"/><rect x="352" y="22"
      width="18" height="18" rx="4"
      fill="#e5e7eb"/><rect x="374" y="22"
      width="18" height="18" rx="4"
      fill="#e5e7eb"/><rect x="396" y="22"
      width="18" height="18" rx="4"
      fill="#e5e7eb"/><rect x="418" y="22"
      width="18" height="18" rx="4"
      fill="#e5e7eb"/><rect x="440" y="22"
      width="18" height="18" rx="4"
      fill="#e5e7eb"/><rect x="462" y="22"
      width="18" height="18" rx="4"
      fill="#e5e7eb"/><rect x="484" y="22"
      width="18" height="18" rx="4"
      fill="#e5e7eb"/><rect x="506" y="22"
      width="18" height="18" rx="4"
      fill="#e5e7eb"/><rect x="528" y="22"
      width="18" height="18" rx="4"
      fill="#e5e7eb"/><rect x="550" y="22"
      width="18" height="18" rx="4"
      fill="#e5e7eb"/><rect x="572" y="22"
      width="18" height="18" rx="4"
      fill="#e5e7eb"/><rect x="594" y="22"
      width="18" height="18" rx="4"
      fill="#e5e7eb"/><rect x="0" y="44"
      width="18" height="18" rx="4"
      fill="#e5e7eb"/><rect x="22" y="44"
      width="18" height="18" rx="4"
      fill="#e5e7eb"/><rect x="44" y="44"
      width="18" height="18" rx="4"
      fill="#e5e7eb"/><rect x="66" y="44"
      width="18" height="18" rx="4"
      fill="#e5e7eb"/><rect x="88" y="44"
      width="18" height="18" rx="4"
      fill="#e5e7eb"/><rect x="110" y="44"
      width="18" height="18" rx="4"
      fill="#e5e7eb"/><rect x="132" y="44"
      width="18" height="18" rx="4"
      fill="#e5e7eb"/><rect x="154" y="44"
      width="18" height="18" rx="4"
      fill="#e5e7eb"/><rect x="176" y="44"
      width="18" height="18" rx="4"
      fill="#e5e7eb"/><rect x="198" y="44"
      width="18" height="18" rx="4"
      fill="#e5e7eb"/><rect x="220" y="44"
      width="18" height="18" rx="4"
      fill="#e5e7eb"/><rect x="242" y="44"
      width="18" height="18" rx="4"
      fill="#e5e7eb"/><rect x="264" y="44"
      width="18" height="18" rx="4"
      fill="#e5e7eb"/><rect x="286" y="44"
      width="18" height="18" rx="4"
      fill="#e5e7eb"/><rect x="308" y="44"
      width="18" height="18" rx="4"
      fill="#e5e7eb"/><rect x="330" y="44"
      width="18" height="18" rx="4"
      fill="#e5e7eb"/><rect x="352" y="44"
      width="18" height="18" rx="4"
      fill="#e5e7eb"/><rect x="374" y="44"
      width="18" height="18" rx="4"
      fill="#e5e7eb"/><rect x="396" y="44"
      width="18" height="18" rx="4"
      fill="#e5e7eb"/><rect x="418" y="44"
      width="18" height="18" rx="4"
      fill="#e5e7eb"/><rect x="440" y="44"
      width="18" height="18" rx="4"
      fill="#e5e7eb"/><rect x="462" y="44"
      width="18" height="18" rx="4"
      fill="#e5e7eb"/><rect x="484" y="44"
      width="18" height="18" rx="4"
      fill="#e5e7eb"/><rect x="506" y="44"
      width="18" height="18" rx="4"
      fill="#e5e7eb"/><rect x="528" y="44"
      width="18" height="18" rx="4"
      fill="#e5e7eb"/><rect x="550" y="44"
      width="18" height="18" rx="4"
      fill="#e5e7eb"/><rect x="572" y="44"
      width="18" height="18" rx="4"
      fill="#e5e7eb"/><rect x="594" y="44"
      width="18" height="18" rx="4"
      fill="#e5e7eb"/><rect x="0" y="66"
      width="18" height="18" rx="4"
      fill="#e5e7eb"/><rect x="22" y="66"
      width="18" height="18" rx="4"
      fill="#e5e7eb"/><rect x="44" y="66"
      width="18" height="18" rx="4"
      fill="#e5e7eb"/><rect x="66" y="66"
      width="18" height="18" rx="4"
      fill="#e5e7eb"/><rect x="88" y="66"
      width="18" height="18" rx="4"
      fill="#e5e7eb"/><rect x="110" y="66"
      width="18" height="18" rx="4"
      fill="#e5e7eb"/><rect x="132" y="66"
      width="18" height="18" rx="4"
      fill="#e5e7eb"/><rect x="154" y="66"
      width="18" height="18" rx="4"
      fill="#e5e7eb"/><rect x="176" y="66"
      width="18" height="18" rx="4"
      fill="#e5e7eb"/><rect x="198" y="66"
      width="18" height="18" rx="4"
      fill="#e5e7eb"/><rect x="220" y="66"
      width="18" height="18" rx="4"
      fill="#e5e7eb"/><rect x="242" y="66"
      width="18" height="18" rx="4"
      fill="#e5e7eb"/><rect x="264" y="66"
      width="18" height="18" rx="4"
      fill="#e5e7eb"/><rect x="286" y="66"
      width="18" height="18" rx="4"
      fill="#e5e7eb"/><rect x="308" y="66"
      width="18" height="18" rx="4"
      fill="#e5e7eb"/><rect x="330" y="66"
      width="18" height="18" rx="4"
      fill="#e5e7eb"/><rect x="352" y="66"
      width="18" height="18" rx="4"
      fill="#e5e7eb"/><rect x="374" y="66"
      width="18" height="18" rx="4"
      fill="#e5e7eb"/><rect x="396" y="66"
      width="18" height="18" rx="4"
      fill="#e5e7eb"/><rect x="418" y="66"
      width="18" height="18" rx="4"
      fill="#e5e7eb"/><rect x="440" y="66"
      width="18" height="18" rx="4"
      fill="#e5e7eb"/><rect x="462" y="66"
      width="18" height="18" rx="4"
      fill="#e5e7eb"/><rect x="484" y="66"
      width="18" height="18" rx="4"
      fill="#e5e7eb"/><rect x="506" y="66"
      width="18" height="18" rx="4"
      fill="#e5e7eb"/><rect x="528" y="66"
      width="18" height="18" rx="4"
      fill="#e5e7eb"/><rect x="550" y="66"
      width="18" height="18" rx="4"
      fill="#e5e7eb"/><rect x="572" y="66"
      width="18" height="18" rx="4"
      fill="#e5e7eb"/><rect x="594" y="66"
      width="18" height="18" rx="4"
      fill="#e5e7eb"/><rect x="0" y="88"
      width="18" height="18" rx="4"
      fill="#e5e7eb"/><rect x="22" y="88"
      width="18" height="18" rx="4"
      fill="#e5e7eb"/><rect x="44" y="88"
      width="18" height="18" rx="4"
      fill="#e5e7eb"/><rect x="66" y="88"
      width="18" height="18" rx="4"
      fill="#e5e7eb"/><rect x="88" y="88"
      width="18" height="18" rx="4"
      fill="#e5e7eb"/><rect x="110" y="88"
      width="18" height="18" rx="4"
      fill="#e5e7eb"/><rect x="132" y="88"
      width="18" height="18" rx="4"
      fill="#e5e7eb"/><rect x="154" y="88"
      width="18" height="18" rx="4"
      fill="#e5e7eb"/><rect x="176" y="88"
      width="18" height="18" rx="4"
      fill="#e5e7eb"/><rect x="198" y="88"
      width="18" height="18" rx="4"
      fill="#e5e7eb"/><rect x="220" y="88"
      width="18" height="18" rx="4"
      fill="#e5e7eb"/><rect x="242" y="88"
      width="18" height="18" rx="4"
      fill="#e5e7eb"/><rect x="264" y="88"
      width="18" height="18" rx="4"
      fill="#e5e7eb"/><rect x="286" y="88"
      width="18" height="18" rx="4"
      fill="#e5e7eb"/><rect x="308" y="88"
      width="18" height="18" rx="4"
      fill="#e5e7eb"/><rect x="330" y="88"
      width="18" height="18" rx="4"
      fill="#e5e7eb"/><rect x="352" y="88"
      width="18" height="18" rx="4"
      fill="#e5e7eb"/><rect x="374" y="88"
      width="18" height="18" rx="4"
      fill="#e5e7eb"/><rect x="396" y="88"
      width="18" height="18" rx="4"
      fill="#e5e7eb"/><rect x="418" y="88"
      width="18" height="18" rx="4"
      fill="#e5e7eb"/><rect x="440" y="88"
      width="18" height="18" rx="4"
      fill="#e5e7eb"/><rect x="462" y="88"
      width="18" height="18" rx="4"
      fill="#e5e7eb"/><rect x="484" y="88"
      width="18" height="18" rx="4"
      fill="#e5e7eb"/><rect x="506" y="88"
      width="18" height="18" rx="4"
      fill="#e5e7eb"/><rect x="528" y="88"
      width="18" height="18" rx="4"
      fill="#e5e7eb"/><rect x="550" y="88"
      width="18" height="18" rx="4"
      fill="#e5e7eb"/><rect x="572" y="88"
      width="18" height="18" rx="4"
      fill="#e5e7eb"/><rect x="594" y="88"
      width="18" height="18" rx="4"
      fill="#e5e7eb"/><rect x="0" y="110"
      width="18" height="18" rx="4"
      fill="#e5e7eb"/><rect x="22" y="110"
      width="18" height="18" rx="4"
      fill="#e5e7eb"/><rect x="44" y="110"
      width="18" height="18" rx="4"
      fill="#e5e7eb"/><rect x="66" y="110"
      width="18" height="18" rx="4"
      fill="#e5e7eb"/><rect x="88" y="110"
      width="18" height="18" rx="4"
      fill="#e5e7eb"/><rect x="110" y="110"
      width="18" height="18" rx="4"
      fill="#e5e7eb"/><rect x="132" y="110"
      width="18" height="18" rx="4"
      fill="#e5e7eb"/><rect x="154" y="110"
      width="18" height="18" rx="4"
      fill="#e5e7eb"/><rect x="176" y="110"
      width="18" height="18" rx="4"
      fill="#e5e7eb"/><rect x="198" y="110"
      width="18" height="18" rx="4"
      fill="#e5e7eb"/><rect x="220" y="110"
      width="18" height="18" rx="4"
      fill="#e5e7eb"/><rect x="242" y="110"
      width="18" height="18" rx="4"
      fill="#e5e7eb"/><rect x="264" y="110"
      width="18" height="18" rx="4"
      fill="#e5e7eb"/><rect x="286" y="110"
      width="18" height="18" rx="4"
      fill="#e5e7eb"/><rect x="308" y="110"
      width="18" height="18" rx="4"
      fill="#e5e7eb"/><rect x="330" y="110"
      width="18" height="18" rx="4"
      fill="#e5e7eb"/><rect x="352" y="110"
      width="18" height="18" rx="4"
      fill="#e5e7eb"/><rect x="374" y="110"
      width="18" height="18" rx="4"
      fill="#e5e7eb"/><rect x="396" y="110"
      width="18" height="18" rx="4"
      fill="#e5e7eb"/><rect x="418" y="110"
      width="18" height="18" rx="4"
      fill="#e5e7eb"/><rect x="440" y="110"
      width="18" height="18" rx="4"
      fill="#e5e7eb"/><rect x="462" y="110"
      width="18" height="18" rx="4"
      fill="#e5e7eb"/><rect x="484" y="110"
      width="18" height="18" rx="4"
      fill="#e5e7eb"/><rect x="506" y="110"
      width="18" height="18" rx="4"
      fill="#e5e7eb"/><rect x="528" y="110"
      width="18" height="18" rx="4"
      fill="#e5e7eb"/><rect x="550" y="110"
      width="18" height="18" rx="4"
      fill="#e5e7eb"/><rect x="572" y="110"
      width="18" height="18" rx="4"
      fill="#e5e7eb"/><rect x="594" y="110"
      width="18" height="18" rx="4"
      fill="#e5e7eb"/><rect x="0" y="132"
      width="18" height="18" rx="4"
      fill="#e5e7eb"/><rect x="22" y="132"
      width="18" height="18" rx="4"
      fill="#e5e7eb"/><rect x="44" y="132"
      width="18" height="18" rx="4"
      fill="#e5e7eb"/><rect x="66" y="132"
      width="18" height="18" rx="4"
      fill="#e5e7eb"/><rect x="88" y="132"
      width="18" height="18" rx="4"
      fill="#e5e7eb"/><rect x="110" y="132"
      width="18" height="18" rx="4"
      fill="#e5e7eb"/><rect x="132" y="132"
      width="18" height="18" rx="4"
      fill="#e5e7eb"/><rect x="154" y="132"
      width="18" height="18" rx="4"
      fill="#e5e7eb"/><rect x="176" y="132"
      width="18" height="18" rx="4"
      fill="#e5e7eb"/><rect x="198" y="132"
      width="18" height="18" rx="4"
      fill="#e5e7eb"/><rect x="220" y="132"
      width="18" height="18" rx="4"
      fill="#e5e7eb"/><rect x="242" y="132"
      width="18" height="18" rx="4"
      fill="#e5e7eb"/><rect x="264" y="132"
      width="18" height="18" rx="4"
      fill="#e5e7eb"/><rect x="286" y="132"
      width="18" height="18" rx="4"
      fill="#e5e7eb"/><rect x="308" y="132"
      width="18" height="18" rx="4"
      fill="#e5e7eb"/><rect x="330" y="132"
      width="18" height="18" rx="4"
      fill="#e5e7eb"/><rect x="352" y="132"
      width="18" height="18" rx="4"
      fill="#e5e7eb"/><rect x="374" y="132"
      width="18" height="18" rx="4"
      fill="#e5e7eb"/><rect x="396" y="132"
      width="18" height="18" rx="4"
      fill="#e5e7eb"/><rect x="418" y="132"
      width="18" height="18" rx="4"
      fill="#e5e7eb"/><rect x="440" y="132"
      width="18" height="18" rx="4"
      fill="#e5e7eb"/><rect x="462" y="132"
      width="18" height="18" rx="4"
      fill="#e5e7eb"/><rect x="484" y="132"
      width="18" height="18" rx="4"
      fill="#e5e7eb"/><rect x="506" y="132"
      width="18" height="18" rx="4"
      fill="#e5e7eb"/><rect x="528" y="132"
      width="18" height="18" rx="4"
      fill="#e5e7eb"/><rect x="550" y="132"
      width="18" height="18" rx="4"
      fill="#e5e7eb"/><rect x="572" y="132"
      width="18" height="18" rx="4"
      fill="#e5e7eb"/><rect x="594" y="132"
      width="18" height="18" rx="4"
      fill="#e5e7eb"/>
<g id="hero" transform="translate(0 164)">
  <rect x="0" y="0" width="8" height="8" fill="#111827"/>
  <rect x="8" y="0" width="8" height="8" fill="#111827"/>
  <rect x="0" y="8" width="8" height="8" fill="#111827"/>
  <rect x="8" y="8" width="8" height="8" fill="#22c55e"/>

  <animateTransform
    attributeName="transform"
    type="translate"
    from="0 164"
    to="600 164"
    dur="6s"
    repeatCount="indefinite"
  />
</g>
</svg>