<svg xmlns="http://www.w3.org/2000/svg"
  viewBox="0 0 560 140"
  width="560"
  height="140"
  style="background:#020617">
<rect x="0" y="0" width="16" height="16" rx="3"
  fill="#5eead4" />

<rect x="20" y="0" width="16" height="16" rx="3"
  fill="#14b8a6" />

<rect x="40" y="0" width="16" height="16" rx="3"
  fill="#0f766e" />

<rect x="60" y="0" width="16" height="16" rx="3"
  fill="#5eead4" />

<rect x="80" y="0" width="16" height="16" rx="3"
  fill="#14b8a6" />

<rect x="100" y="0" width="16" height="16" rx="3"
  fill="#020617" />

<rect x="120" y="0" width="16" height="16" rx="3"
  fill="#0f766e" />

<rect x="140" y="0" width="16" height="16" rx="3"
  fill="#14b8a6" />

<rect x="160" y="0" width="16" height="16" rx="3"
  fill="#0f766e" />

<rect x="180" y="0" width="16" height="16" rx="3"
  fill="#0f766e" />

<rect x="200" y="0" width="16" height="16" rx="3"
  fill="#0f766e" />

<rect x="220" y="0" width="16" height="16" rx="3"
  fill="#020617" />

<rect x="240" y="0" width="16" height="16" rx="3"
  fill="#0f766e" />

<rect x="260" y="0" width="16" height="16" rx="3"
  fill="#14b8a6" />

<rect x="280" y="0" width="16" height="16" rx="3"
  fill="#14b8a6" />

<rect x="300" y="0" width="16" height="16" rx="3"
  fill="#0f766e" />

<rect x="320" y="0" width="16" height="16" rx="3"
  fill="#020617" />

<rect x="340" y="0" width="16" height="16" rx="3"
  fill="#5eead4" />

<rect x="360" y="0" width="16" height="16" rx="3"
  fill="#0f766e" />

<rect x="380" y="0" width="16" height="16" rx="3"
  fill="#0f766e" />

<rect x="400" y="0" width="16" height="16" rx="3"
  fill="#0f766e" />

<rect x="420" y="0" width="16" height="16" rx="3"
  fill="#14b8a6" />

<rect x="440" y="0" width="16" height="16" rx="3"
  fill="#14b8a6" />

<rect x="460" y="0" width="16" height="16" rx="3"
  fill="#14b8a6" />

<rect x="480" y="0" width="16" height="16" rx="3"
  fill="#020617" />

<rect x="500" y="0" width="16" height="16" rx="3"
  fill="#5eead4" />

<rect x="520" y="0" width="16" height="16" rx="3"
  fill="#14b8a6" />

<rect x="540" y="0" width="16" height="16" rx="3"
  fill="#5eead4" />

<rect x="0" y="20" width="16" height="16" rx="3"
  fill="#0f766e" />

<rect x="20" y="20" width="16" height="16" rx="3"
  fill="#14b8a6" />

<rect x="40" y="20" width="16" height="16" rx="3"
  fill="#5eead4" />

<rect x="60" y="20" width="16" height="16" rx="3"
  fill="#0f766e" />

<rect x="80" y="20" width="16" height="16" rx="3"
  fill="#14b8a6" />

<rect x="100" y="20" width="16" height="16" rx="3"
  fill="#0f766e" />

<rect x="120" y="20" width="16" height="16" rx="3"
  fill="#14b8a6" />

<rect x="140" y="20" width="16" height="16" rx="3"
  fill="#5eead4" />

<rect x="160" y="20" width="16" height="16" rx="3"
  fill="#14b8a6" />

<rect x="180" y="20" width="16" height="16" rx="3"
  fill="#5eead4" />

<rect x="200" y="20" width="16" height="16" rx="3"
  fill="#020617" />

<rect x="220" y="20" width="16" height="16" rx="3"
  fill="#14b8a6" />

<rect x="240" y="20" width="16" height="16" rx="3"
  fill="#14b8a6" />

<rect x="260" y="20" width="16" height="16" rx="3"
  fill="#020617" />

<rect x="280" y="20" width="16" height="16" rx="3"
  fill="#14b8a6" />

<rect x="300" y="20" width="16" height="16" rx="3"
  fill="#020617" />

<rect x="320" y="20" width="16" height="16" rx="3"
  fill="#020617" />

<rect x="340" y="20" width="16" height="16" rx="3"
  fill="#0f766e" />

<rect x="360" y="20" width="16" height="16" rx="3"
  fill="#14b8a6" />

<rect x="380" y="20" width="16" height="16" rx="3"
  fill="#0f766e" />

<rect x="400" y="20" width="16" height="16" rx="3"
  fill="#0f766e" />

<rect x="420" y="20" width="16" height="16" rx="3"
  fill="#5eead4" />

<rect x="440" y="20" width="16" height="16" rx="3"
  fill="#0f766e" />

<rect x="460" y="20" width="16" height="16" rx="3"
  fill="#0f766e" />

<rect x="480" y="20" width="16" height="16" rx="3"
  fill="#020617" />

<rect x="500" y="20" width="16" height="16" rx="3"
  fill="#0f766e" />

<rect x="520" y="20" width="16" height="16" rx="3"
  fill="#14b8a6" />

<rect x="540" y="20" width="16" height="16" rx="3"
  fill="#020617" />

<rect x="0" y="40" width="16" height="16" rx="3"
  fill="#0f766e" />

<rect x="20" y="40" width="16" height="16" rx="3"
  fill="#0f766e" />

<rect x="40" y="40" width="16" height="16" rx="3"
  fill="#5eead4" />

<rect x="60" y="40" width="16" height="16" rx="3"
  fill="#5eead4" />

<rect x="80" y="40" width="16" height="16" rx="3"
  fill="#14b8a6" />

<rect x="100" y="40" width="16" height="16" rx="3"
  fill="#14b8a6" />

<rect x="120" y="40" width="16" height="16" rx="3"
  fill="#14b8a6" />

<rect x="140" y="40" width="16" height="16" rx="3"
  fill="#020617" />

<rect x="160" y="40" width="16" height="16" rx="3"
  fill="#0f766e" />

<rect x="180" y="40" width="16" height="16" rx="3"
  fill="#14b8a6" />

<rect x="200" y="40" width="16" height="16" rx="3"
  fill="#020617" />

<rect x="220" y="40" width="16" height="16" rx="3"
  fill="#14b8a6" />

<rect x="240" y="40" width="16" height="16" rx="3"
  fill="#14b8a6" />

<rect x="260" y="40" width="16" height="16" rx="3"
  fill="#0f766e" />

<rect x="280" y="40" width="16" height="16" rx="3"
  fill="#020617" />

<rect x="300" y="40" width="16" height="16" rx="3"
  fill="#0f766e" />

<rect x="320" y="40" width="16" height="16" rx="3"
  fill="#0f766e" />

<rect x="340" y="40" width="16" height="16" rx="3"
  fill="#0f766e" />

<rect x="360" y="40" width="16" height="16" rx="3"
  fill="#5eead4" />

<rect x="380" y="40" width="16" height="16" rx="3"
  fill="#5eead4" />

<rect x="400" y="40" width="16" height="16" rx="3"
  fill="#0f766e" />

<rect x="420" y="40" width="16" height="16" rx="3"
  fill="#0f766e" />

<rect x="440" y="40" width="16" height="16" rx="3"
  fill="#5eead4" />

<rect x="460" y="40" width="16" height="16" rx="3"
  fill="#5eead4" />

<rect x="480" y="40" width="16" height="16" rx="3"
  fill="#020617" />

<rect x="500" y="40" width="16" height="16" rx="3"
  fill="#020617" />

<rect x="520" y="40" width="16" height="16" rx="3"
  fill="#14b8a6" />

<rect x="540" y="40" width="16" height="16" rx="3"
  fill="#0f766e" />

<rect x="0" y="60" width="16" height="16" rx="3"
  fill="#0f766e" />

<rect x="20" y="60" width="16" height="16" rx="3"
  fill="#020617" />

<rect x="40" y="60" width="16" height="16" rx="3"
  fill="#14b8a6" />

<rect x="60" y="60" width="16" height="16" rx="3"
  fill="#14b8a6" />

<rect x="80" y="60" width="16" height="16" rx="3"
  fill="#0f766e" />

<rect x="100" y="60" width="16" height="16" rx="3"
  fill="#020617" />

<rect x="120" y="60" width="16" height="16" rx="3"
  fill="#14b8a6" />

<rect x="140" y="60" width="16" height="16" rx="3"
  fill="#0f766e" />

<rect x="160" y="60" width="16" height="16" rx="3"
  fill="#14b8a6" />

<rect x="180" y="60" width="16" height="16" rx="3"
  fill="#14b8a6" />

<rect x="200" y="60" width="16" height="16" rx="3"
  fill="#0f766e" />

<rect x="220" y="60" width="16" height="16" rx="3"
  fill="#020617" />

<rect x="240" y="60" width="16" height="16" rx="3"
  fill="#14b8a6" />

<rect x="260" y="60" width="16" height="16" rx="3"
  fill="#020617" />

<rect x="280" y="60" width="16" height="16" rx="3"
  fill="#020617" />

<rect x="300" y="60" width="16" height="16" rx="3"
  fill="#0f766e" />

<rect x="320" y="60" width="16" height="16" rx="3"
  fill="#0f766e" />

<rect x="340" y="60" width="16" height="16" rx="3"
  fill="#020617" />

<rect x="360" y="60" width="16" height="16" rx="3"
  fill="#5eead4" />

<rect x="380" y="60" width="16" height="16" rx="3"
  fill="#14b8a6" />

<rect x="400" y="60" width="16" height="16" rx="3"
  fill="#14b8a6" />

<rect x="420" y="60" width="16" height="16" rx="3"
  fill="#5eead4" />

<rect x="440" y="60" width="16" height="16" rx="3"
  fill="#0f766e" />

<rect x="460" y="60" width="16" height="16" rx="3"
  fill="#14b8a6" />

<rect x="480" y="60" width="16" height="16" rx="3"
  fill="#14b8a6" />

<rect x="500" y="60" width="16" height="16" rx="3"
  fill="#14b8a6" />

<rect x="520" y="60" width="16" height="16" rx="3"
  fill="#14b8a6" />

<rect x="540" y="60" width="16" height="16" rx="3"
  fill="#5eead4" />

<rect x="0" y="80" width="16" height="16" rx="3"
  fill="#020617" />

<rect x="20" y="80" width="16" height="16" rx="3"
  fill="#020617" />

<rect x="40" y="80" width="16" height="16" rx="3"
  fill="#5eead4" />

<rect x="60" y="80" width="16" height="16" rx="3"
  fill="#14b8a6" />

<rect x="80" y="80" width="16" height="16" rx="3"
  fill="#0f766e" />

<rect x="100" y="80" width="16" height="16" rx="3"
  fill="#020617" />

<rect x="120" y="80" width="16" height="16" rx="3"
  fill="#14b8a6" />

<rect x="140" y="80" width="16" height="16" rx="3"
  fill="#14b8a6" />

<rect x="160" y="80" width="16" height="16" rx="3"
  fill="#14b8a6" />

<rect x="180" y="80" width="16" height="16" rx="3"
  fill="#14b8a6" />

<rect x="200" y="80" width="16" height="16" rx="3"
  fill="#020617" />

<rect x="220" y="80" width="16" height="16" rx="3"
  fill="#14b8a6" />

<rect x="240" y="80" width="16" height="16" rx="3"
  fill="#5eead4" />

<rect x="260" y="80" width="16" height="16" rx="3"
  fill="#0f766e" />

<rect x="280" y="80" width="16" height="16" rx="3"
  fill="#020617" />

<rect x="300" y="80" width="16" height="16" rx="3"
  fill="#14b8a6" />

<rect x="320" y="80" width="16" height="16" rx="3"
  fill="#5eead4" />

<rect x="340" y="80" width="16" height="16" rx="3"
  fill="#020617" />

<rect x="360" y="80" width="16" height="16" rx="3"
  fill="#14b8a6" />

<rect x="380" y="80" width="16" height="16" rx="3"
  fill="#5eead4" />

<rect x="400" y="80" width="16" height="16" rx="3"
  fill="#14b8a6" />

<rect x="420" y="80" width="16" height="16" rx="3"
  fill="#14b8a6" />

<rect x="440" y="80" width="16" height="16" rx="3"
  fill="#14b8a6" />

<rect x="460" y="80" width="16" height="16" rx="3"
  fill="#020617" />

<rect x="480" y="80" width="16" height="16" rx="3"
  fill="#0f766e" />

<rect x="500" y="80" width="16" height="16" rx="3"
  fill="#5eead4" />

<rect x="520" y="80" width="16" height="16" rx="3"
  fill="#5eead4" />

<rect x="540" y="80" width="16" height="16" rx="3"
  fill="#020617" />

<rect x="0" y="100" width="16" height="16" rx="3"
  fill="#5eead4" />

<rect x="20" y="100" width="16" height="16" rx="3"
  fill="#14b8a6" />

<rect x="40" y="100" width="16" height="16" rx="3"
  fill="#0f766e" />

<rect x="60" y="100" width="16" height="16" rx="3"
  fill="#14b8a6" />

<rect x="80" y="100" width="16" height="16" rx="3"
  fill="#0f766e" />

<rect x="100" y="100" width="16" height="16" rx="3"
  fill="#14b8a6" />

<rect x="120" y="100" width="16" height="16" rx="3"
  fill="#0f766e" />

<rect x="140" y="100" width="16" height="16" rx="3"
  fill="#14b8a6" />

<rect x="160" y="100" width="16" height="16" rx="3"
  fill="#14b8a6" />

<rect x="180" y="100" width="16" height="16" rx="3"
  fill="#020617" />

<rect x="200" y="100" width="16" height="16" rx="3"
  fill="#0f766e" />

<rect x="220" y="100" width="16" height="16" rx="3"
  fill="#0f766e" />

<rect x="240" y="100" width="16" height="16" rx="3"
  fill="#5eead4" />

<rect x="260" y="100" width="16" height="16" rx="3"
  fill="#0f766e" />

<rect x="280" y="100" width="16" height="16" rx="3"
  fill="#0f766e" />

<rect x="300" y="100" width="16" height="16" rx="3"
  fill="#0f766e" />

<rect x="320" y="100" width="16" height="16" rx="3"
  fill="#0f766e" />

<rect x="340" y="100" width="16" height="16" rx="3"
  fill="#5eead4" />

<rect x="360" y="100" width="16" height="16" rx="3"
  fill="#14b8a6" />

<rect x="380" y="100" width="16" height="16" rx="3"
  fill="#0f766e" />

<rect x="400" y="100" width="16" height="16" rx="3"
  fill="#0f766e" />

<rect x="420" y="100" width="16" height="16" rx="3"
  fill="#5eead4" />

<rect x="440" y="100" width="16" height="16" rx="3"
  fill="#14b8a6" />

<rect x="460" y="100" width="16" height="16" rx="3"
  fill="#0f766e" />

<rect x="480" y="100" width="16" height="16" rx="3"
  fill="#14b8a6" />

<rect x="500" y="100" width="16" height="16" rx="3"
  fill="#14b8a6" />

<rect x="520" y="100" width="16" height="16" rx="3"
  fill="#0f766e" />

<rect x="540" y="100" width="16" height="16" rx="3"
  fill="#5eead4" />

<rect x="0" y="120" width="16" height="16" rx="3"
  fill="#5eead4" />

<rect x="20" y="120" width="16" height="16" rx="3"
  fill="#14b8a6" />

<rect x="40" y="120" width="16" height="16" rx="3"
  fill="#14b8a6" />

<rect x="60" y="120" width="16" height="16" rx="3"
  fill="#020617" />

<rect x="80" y="120" width="16" height="16" rx="3"
  fill="#0f766e" />

<rect x="100" y="120" width="16" height="16" rx="3"
  fill="#0f766e" />

<rect x="120" y="120" width="16" height="16" rx="3"
  fill="#020617" />

<rect x="140" y="120" width="16" height="16" rx="3"
  fill="#020617" />

<rect x="160" y="120" width="16" height="16" rx="3"
  fill="#14b8a6" />

<rect x="180" y="120" width="16" height="16" rx="3"
  fill="#14b8a6" />

<rect x="200" y="120" width="16" height="16" rx="3"
  fill="#0f766e" />

<rect x="220" y="120" width="16" height="16" rx="3"
  fill="#5eead4" />

<rect x="240" y="120" width="16" height="16" rx="3"
  fill="#0f766e" />

<rect x="260" y="120" width="16" height="16" rx="3"
  fill="#0f766e" />

<rect x="280" y="120" width="16" height="16" rx="3"
  fill="#5eead4" />

<rect x="300" y="120" width="16" height="16" rx="3"
  fill="#0f766e" />

<rect x="320" y="120" width="16" height="16" rx="3"
  fill="#0f766e" />

<rect x="340" y="120" width="16" height="16" rx="3"
  fill="#14b8a6" />

<rect x="360" y="120" width="16" height="16" rx="3"
  fill="#020617" />

<rect x="380" y="120" width="16" height="16" rx="3"
  fill="#0f766e" />

<rect x="400" y="120" width="16" height="16" rx="3"
  fill="#14b8a6" />

<rect x="420" y="120" width="16" height="16" rx="3"
  fill="#020617" />

<rect x="440" y="120" width="16" height="16" rx="3"
  fill="#0f766e" />

<rect x="460" y="120" width="16" height="16" rx="3"
  fill="#0f766e" />

<rect x="480" y="120" width="16" height="16" rx="3"
  fill="#14b8a6" />

<rect x="500" y="120" width="16" height="16" rx="3"
  fill="#14b8a6" />

<rect x="520" y="120" width="16" height="16" rx="3"
  fill="#0f766e" />

<rect x="540" y="120" width="16" height="16" rx="3"
  fill="#0f766e" />

<defs>
  <filter id="glow">
    <feGaussianBlur stdDeviation="2" result="blur"/>
    <feMerge>
      <feMergeNode in="blur"/>
      <feMergeNode in="SourceGraphic"/>
    </feMerge>
  </filter>
</defs>

<g filter="url(#glow)">
  <polygon
    points="0,-6 10,0 0,6 -4,0"
    fill="none"
    stroke="#e5e7eb"
    stroke-width="1.5"
  >
    <animateTransform
      attributeName="transform"
      type="translate"
      dur="22s"
      repeatCount="indefinite"
      calcMode="discrete"
      values="488 88;8 48;48 128;148 48;108 68;28 128;368 128;228 8;128 88;268 88;168 48;128 68;488 128;308 28;168 68;148 48;108 8;128 48;548 128;108 88;148 68;228 128;248 108;128 68;508 28;228 28;168 48;228 8;208 88;48 108;368 108;268 108;468 48;128 128;408 88;388 88;508 128;208 128;428 48;448 128;248 68;328 128;528 8;48 68;548 8;528 88;248 88;368 68;188 108;128 8;68 88;88 28;68 48;288 88;128 68;8 68;68 48;348 108;348 88;128 8;48 128;448 108;208 48;208 88;68 28;428 28;328 88;108 28;148 8;208 108;208 128;508 128;188 68;228 88;128 48;528 88;468 88;188 128;508 48;348 108"
    />
  </polygon>
</g>
</svg>