<svg xmlns="http://www.w3.org/2000/svg"
  viewBox="0 0 560 140"
  width="560"
  height="140"
  style="background:#020617">
<rect x="0" y="0" width="16" height="16" rx="3"
  fill="#020617" />

<rect x="20" y="0" width="16" height="16" rx="3"
  fill="#5eead4" />

<rect x="40" y="0" width="16" height="16" rx="3"
  fill="#5eead4" />

<rect x="60" y="0" width="16" height="16" rx="3"
  fill="#0f766e" />

<rect x="80" y="0" width="16" height="16" rx="3"
  fill="#14b8a6" />

<rect x="100" y="0" width="16" height="16" rx="3"
  fill="#5eead4" />

<rect x="120" y="0" width="16" height="16" rx="3"
  fill="#0f766e" />

<rect x="140" y="0" width="16" height="16" rx="3"
  fill="#14b8a6" />

<rect x="160" y="0" width="16" height="16" rx="3"
  fill="#020617" />

<rect x="180" y="0" width="16" height="16" rx="3"
  fill="#020617" />

<rect x="200" y="0" width="16" height="16" rx="3"
  fill="#020617" />

<rect x="220" y="0" width="16" height="16" rx="3"
  fill="#14b8a6" />

<rect x="240" y="0" width="16" height="16" rx="3"
  fill="#0f766e" />

<rect x="260" y="0" width="16" height="16" rx="3"
  fill="#14b8a6" />

<rect x="280" y="0" width="16" height="16" rx="3"
  fill="#5eead4" />

<rect x="300" y="0" width="16" height="16" rx="3"
  fill="#0f766e" />

<rect x="320" y="0" width="16" height="16" rx="3"
  fill="#5eead4" />

<rect x="340" y="0" width="16" height="16" rx="3"
  fill="#5eead4" />

<rect x="360" y="0" width="16" height="16" rx="3"
  fill="#14b8a6" />

<rect x="380" y="0" width="16" height="16" rx="3"
  fill="#5eead4" />

<rect x="400" y="0" width="16" height="16" rx="3"
  fill="#0f766e" />

<rect x="420" y="0" width="16" height="16" rx="3"
  fill="#5eead4" />

<rect x="440" y="0" width="16" height="16" rx="3"
  fill="#14b8a6" />

<rect x="460" y="0" width="16" height="16" rx="3"
  fill="#0f766e" />

<rect x="480" y="0" width="16" height="16" rx="3"
  fill="#5eead4" />

<rect x="500" y="0" width="16" height="16" rx="3"
  fill="#0f766e" />

<rect x="520" y="0" width="16" height="16" rx="3"
  fill="#0f766e" />

<rect x="540" y="0" width="16" height="16" rx="3"
  fill="#020617" />

<rect x="0" y="20" width="16" height="16" rx="3"
  fill="#020617" />

<rect x="20" y="20" width="16" height="16" rx="3"
  fill="#5eead4" />

<rect x="40" y="20" width="16" height="16" rx="3"
  fill="#0f766e" />

<rect x="60" y="20" width="16" height="16" rx="3"
  fill="#0f766e" />

<rect x="80" y="20" width="16" height="16" rx="3"
  fill="#14b8a6" />

<rect x="100" y="20" width="16" height="16" rx="3"
  fill="#14b8a6" />

<rect x="120" y="20" width="16" height="16" rx="3"
  fill="#0f766e" />

<rect x="140" y="20" width="16" height="16" rx="3"
  fill="#0f766e" />

<rect x="160" y="20" width="16" height="16" rx="3"
  fill="#020617" />

<rect x="180" y="20" width="16" height="16" rx="3"
  fill="#0f766e" />

<rect x="200" y="20" width="16" height="16" rx="3"
  fill="#14b8a6" />

<rect x="220" y="20" width="16" height="16" rx="3"
  fill="#5eead4" />

<rect x="240" y="20" width="16" height="16" rx="3"
  fill="#020617" />

<rect x="260" y="20" width="16" height="16" rx="3"
  fill="#020617" />

<rect x="280" y="20" width="16" height="16" rx="3"
  fill="#020617" />

<rect x="300" y="20" width="16" height="16" rx="3"
  fill="#14b8a6" />

<rect x="320" y="20" width="16" height="16" rx="3"
  fill="#0f766e" />

<rect x="340" y="20" width="16" height="16" rx="3"
  fill="#14b8a6" />

<rect x="360" y="20" width="16" height="16" rx="3"
  fill="#5eead4" />

<rect x="380" y="20" width="16" height="16" rx="3"
  fill="#5eead4" />

<rect x="400" y="20" width="16" height="16" rx="3"
  fill="#020617" />

<rect x="420" y="20" width="16" height="16" rx="3"
  fill="#020617" />

<rect x="440" y="20" width="16" height="16" rx="3"
  fill="#14b8a6" />

<rect x="460" y="20" width="16" height="16" rx="3"
  fill="#14b8a6" />

<rect x="480" y="20" width="16" height="16" rx="3"
  fill="#5eead4" />

<rect x="500" y="20" width="16" height="16" rx="3"
  fill="#020617" />

<rect x="520" y="20" width="16" height="16" rx="3"
  fill="#020617" />

<rect x="540" y="20" width="16" height="16" rx="3"
  fill="#5eead4" />

<rect x="0" y="40" width="16" height="16" rx="3"
  fill="#020617" />

<rect x="20" y="40" width="16" height="16" rx="3"
  fill="#14b8a6" />

<rect x="40" y="40" width="16" height="16" rx="3"
  fill="#14b8a6" />

<rect x="60" y="40" width="16" height="16" rx="3"
  fill="#14b8a6" />

<rect x="80" y="40" width="16" height="16" rx="3"
  fill="#14b8a6" />

<rect x="100" y="40" width="16" height="16" rx="3"
  fill="#0f766e" />

<rect x="120" y="40" width="16" height="16" rx="3"
  fill="#5eead4" />

<rect x="140" y="40" width="16" height="16" rx="3"
  fill="#0f766e" />

<rect x="160" y="40" width="16" height="16" rx="3"
  fill="#5eead4" />

<rect x="180" y="40" width="16" height="16" rx="3"
  fill="#5eead4" />

<rect x="200" y="40" width="16" height="16" rx="3"
  fill="#14b8a6" />

<rect x="220" y="40" width="16" height="16" rx="3"
  fill="#5eead4" />

<rect x="240" y="40" width="16" height="16" rx="3"
  fill="#0f766e" />

<rect x="260" y="40" width="16" height="16" rx="3"
  fill="#5eead4" />

<rect x="280" y="40" width="16" height="16" rx="3"
  fill="#0f766e" />

<rect x="300" y="40" width="16" height="16" rx="3"
  fill="#14b8a6" />

<rect x="320" y="40" width="16" height="16" rx="3"
  fill="#0f766e" />

<rect x="340" y="40" width="16" height="16" rx="3"
  fill="#020617" />

<rect x="360" y="40" width="16" height="16" rx="3"
  fill="#5eead4" />

<rect x="380" y="40" width="16" height="16" rx="3"
  fill="#0f766e" />

<rect x="400" y="40" width="16" height="16" rx="3"
  fill="#14b8a6" />

<rect x="420" y="40" width="16" height="16" rx="3"
  fill="#5eead4" />

<rect x="440" y="40" width="16" height="16" rx="3"
  fill="#5eead4" />

<rect x="460" y="40" width="16" height="16" rx="3"
  fill="#14b8a6" />

<rect x="480" y="40" width="16" height="16" rx="3"
  fill="#14b8a6" />

<rect x="500" y="40" width="16" height="16" rx="3"
  fill="#0f766e" />

<rect x="520" y="40" width="16" height="16" rx="3"
  fill="#5eead4" />

<rect x="540" y="40" width="16" height="16" rx="3"
  fill="#14b8a6" />

<rect x="0" y="60" width="16" height="16" rx="3"
  fill="#0f766e" />

<rect x="20" y="60" width="16" height="16" rx="3"
  fill="#020617" />

<rect x="40" y="60" width="16" height="16" rx="3"
  fill="#0f766e" />

<rect x="60" y="60" width="16" height="16" rx="3"
  fill="#020617" />

<rect x="80" y="60" width="16" height="16" rx="3"
  fill="#0f766e" />

<rect x="100" y="60" width="16" height="16" rx="3"
  fill="#5eead4" />

<rect x="120" y="60" width="16" height="16" rx="3"
  fill="#0f766e" />

<rect x="140" y="60" width="16" height="16" rx="3"
  fill="#14b8a6" />

<rect x="160" y="60" width="16" height="16" rx="3"
  fill="#5eead4" />

<rect x="180" y="60" width="16" height="16" rx="3"
  fill="#0f766e" />

<rect x="200" y="60" width="16" height="16" rx="3"
  fill="#14b8a6" />

<rect x="220" y="60" width="16" height="16" rx="3"
  fill="#0f766e" />

<rect x="240" y="60" width="16" height="16" rx="3"
  fill="#5eead4" />

<rect x="260" y="60" width="16" height="16" rx="3"
  fill="#020617" />

<rect x="280" y="60" width="16" height="16" rx="3"
  fill="#0f766e" />

<rect x="300" y="60" width="16" height="16" rx="3"
  fill="#020617" />

<rect x="320" y="60" width="16" height="16" rx="3"
  fill="#0f766e" />

<rect x="340" y="60" width="16" height="16" rx="3"
  fill="#0f766e" />

<rect x="360" y="60" width="16" height="16" rx="3"
  fill="#14b8a6" />

<rect x="380" y="60" width="16" height="16" rx="3"
  fill="#0f766e" />

<rect x="400" y="60" width="16" height="16" rx="3"
  fill="#5eead4" />

<rect x="420" y="60" width="16" height="16" rx="3"
  fill="#0f766e" />

<rect x="440" y="60" width="16" height="16" rx="3"
  fill="#020617" />

<rect x="460" y="60" width="16" height="16" rx="3"
  fill="#020617" />

<rect x="480" y="60" width="16" height="16" rx="3"
  fill="#5eead4" />

<rect x="500" y="60" width="16" height="16" rx="3"
  fill="#14b8a6" />

<rect x="520" y="60" width="16" height="16" rx="3"
  fill="#020617" />

<rect x="540" y="60" width="16" height="16" rx="3"
  fill="#0f766e" />

<rect x="0" y="80" width="16" height="16" rx="3"
  fill="#5eead4" />

<rect x="20" y="80" width="16" height="16" rx="3"
  fill="#5eead4" />

<rect x="40" y="80" width="16" height="16" rx="3"
  fill="#0f766e" />

<rect x="60" y="80" width="16" height="16" rx="3"
  fill="#14b8a6" />

<rect x="80" y="80" width="16" height="16" rx="3"
  fill="#0f766e" />

<rect x="100" y="80" width="16" height="16" rx="3"
  fill="#14b8a6" />

<rect x="120" y="80" width="16" height="16" rx="3"
  fill="#14b8a6" />

<rect x="140" y="80" width="16" height="16" rx="3"
  fill="#14b8a6" />

<rect x="160" y="80" width="16" height="16" rx="3"
  fill="#14b8a6" />

<rect x="180" y="80" width="16" height="16" rx="3"
  fill="#14b8a6" />

<rect x="200" y="80" width="16" height="16" rx="3"
  fill="#14b8a6" />

<rect x="220" y="80" width="16" height="16" rx="3"
  fill="#14b8a6" />

<rect x="240" y="80" width="16" height="16" rx="3"
  fill="#5eead4" />

<rect x="260" y="80" width="16" height="16" rx="3"
  fill="#0f766e" />

<rect x="280" y="80" width="16" height="16" rx="3"
  fill="#14b8a6" />

<rect x="300" y="80" width="16" height="16" rx="3"
  fill="#14b8a6" />

<rect x="320" y="80" width="16" height="16" rx="3"
  fill="#0f766e" />

<rect x="340" y="80" width="16" height="16" rx="3"
  fill="#14b8a6" />

<rect x="360" y="80" width="16" height="16" rx="3"
  fill="#14b8a6" />

<rect x="380" y="80" width="16" height="16" rx="3"
  fill="#14b8a6" />

<rect x="400" y="80" width="16" height="16" rx="3"
  fill="#14b8a6" />

<rect x="420" y="80" width="16" height="16" rx="3"
  fill="#020617" />

<rect x="440" y="80" width="16" height="16" rx="3"
  fill="#020617" />

<rect x="460" y="80" width="16" height="16" rx="3"
  fill="#0f766e" />

<rect x="480" y="80" width="16" height="16" rx="3"
  fill="#0f766e" />

<rect x="500" y="80" width="16" height="16" rx="3"
  fill="#5eead4" />

<rect x="520" y="80" width="16" height="16" rx="3"
  fill="#020617" />

<rect x="540" y="80" width="16" height="16" rx="3"
  fill="#14b8a6" />

<rect x="0" y="100" width="16" height="16" rx="3"
  fill="#0f766e" />

<rect x="20" y="100" width="16" height="16" rx="3"
  fill="#5eead4" />

<rect x="40" y="100" width="16" height="16" rx="3"
  fill="#0f766e" />

<rect x="60" y="100" width="16" height="16" rx="3"
  fill="#14b8a6" />

<rect x="80" y="100" width="16" height="16" rx="3"
  fill="#5eead4" />

<rect x="100" y="100" width="16" height="16" rx="3"
  fill="#14b8a6" />

<rect x="120" y="100" width="16" height="16" rx="3"
  fill="#14b8a6" />

<rect x="140" y="100" width="16" height="16" rx="3"
  fill="#14b8a6" />

<rect x="160" y="100" width="16" height="16" rx="3"
  fill="#0f766e" />

<rect x="180" y="100" width="16" height="16" rx="3"
  fill="#0f766e" />

<rect x="200" y="100" width="16" height="16" rx="3"
  fill="#14b8a6" />

<rect x="220" y="100" width="16" height="16" rx="3"
  fill="#0f766e" />

<rect x="240" y="100" width="16" height="16" rx="3"
  fill="#5eead4" />

<rect x="260" y="100" width="16" height="16" rx="3"
  fill="#020617" />

<rect x="280" y="100" width="16" height="16" rx="3"
  fill="#14b8a6" />

<rect x="300" y="100" width="16" height="16" rx="3"
  fill="#14b8a6" />

<rect x="320" y="100" width="16" height="16" rx="3"
  fill="#0f766e" />

<rect x="340" y="100" width="16" height="16" rx="3"
  fill="#5eead4" />

<rect x="360" y="100" width="16" height="16" rx="3"
  fill="#0f766e" />

<rect x="380" y="100" width="16" height="16" rx="3"
  fill="#020617" />

<rect x="400" y="100" width="16" height="16" rx="3"
  fill="#0f766e" />

<rect x="420" y="100" width="16" height="16" rx="3"
  fill="#0f766e" />

<rect x="440" y="100" width="16" height="16" rx="3"
  fill="#14b8a6" />

<rect x="460" y="100" width="16" height="16" rx="3"
  fill="#14b8a6" />

<rect x="480" y="100" width="16" height="16" rx="3"
  fill="#0f766e" />

<rect x="500" y="100" width="16" height="16" rx="3"
  fill="#14b8a6" />

<rect x="520" y="100" width="16" height="16" rx="3"
  fill="#0f766e" />

<rect x="540" y="100" width="16" height="16" rx="3"
  fill="#0f766e" />

<rect x="0" y="120" width="16" height="16" rx="3"
  fill="#14b8a6" />

<rect x="20" y="120" width="16" height="16" rx="3"
  fill="#14b8a6" />

<rect x="40" y="120" width="16" height="16" rx="3"
  fill="#14b8a6" />

<rect x="60" y="120" width="16" height="16" rx="3"
  fill="#020617" />

<rect x="80" y="120" width="16" height="16" rx="3"
  fill="#5eead4" />

<rect x="100" y="120" width="16" height="16" rx="3"
  fill="#0f766e" />

<rect x="120" y="120" width="16" height="16" rx="3"
  fill="#5eead4" />

<rect x="140" y="120" width="16" height="16" rx="3"
  fill="#14b8a6" />

<rect x="160" y="120" width="16" height="16" rx="3"
  fill="#0f766e" />

<rect x="180" y="120" width="16" height="16" rx="3"
  fill="#14b8a6" />

<rect x="200" y="120" width="16" height="16" rx="3"
  fill="#14b8a6" />

<rect x="220" y="120" width="16" height="16" rx="3"
  fill="#0f766e" />

<rect x="240" y="120" width="16" height="16" rx="3"
  fill="#0f766e" />

<rect x="260" y="120" width="16" height="16" rx="3"
  fill="#0f766e" />

<rect x="280" y="120" width="16" height="16" rx="3"
  fill="#020617" />

<rect x="300" y="120" width="16" height="16" rx="3"
  fill="#0f766e" />

<rect x="320" y="120" width="16" height="16" rx="3"
  fill="#020617" />

<rect x="340" y="120" width="16" height="16" rx="3"
  fill="#0f766e" />

<rect x="360" y="120" width="16" height="16" rx="3"
  fill="#14b8a6" />

<rect x="380" y="120" width="16" height="16" rx="3"
  fill="#0f766e" />

<rect x="400" y="120" width="16" height="16" rx="3"
  fill="#0f766e" />

<rect x="420" y="120" width="16" height="16" rx="3"
  fill="#14b8a6" />

<rect x="440" y="120" width="16" height="16" rx="3"
  fill="#14b8a6" />

<rect x="460" y="120" width="16" height="16" rx="3"
  fill="#020617" />

<rect x="480" y="120" width="16" height="16" rx="3"
  fill="#14b8a6" />

<rect x="500" y="120" width="16" height="16" rx="3"
  fill="#0f766e" />

<rect x="520" y="120" width="16" height="16" rx="3"
  fill="#0f766e" />

<rect x="540" y="120" width="16" height="16" rx="3"
  fill="#0f766e" />

<defs>
  <filter id="glow">
    <feGaussianBlur stdDeviation="2" result="blur"/>
    <feMerge>
      <feMergeNode in="blur"/>
      <feMergeNode in="SourceGraphic"/>
    </feMerge>
  </filter>
</defs>

<g filter="url(#glow)">
  <polygon
    points="0,-6 10,0 0,6 -4,0"
    fill="none"
    stroke="#e5e7eb"
    stroke-width="1.5"
  >
    <animateTransform
      attributeName="transform"
      type="translate"
      dur="18s"
      repeatCount="indefinite"
      values="8 128;88 68;388 48;128 48;128 8;528 88;188 28;148 8;348 108;508 48;528 108;148 128;368 28;128 88;68 28;188 48;288 68;308 48;428 108;148 68;148 128;88 128;88 68;88 88;8 28;448 88;388 128;488 68;368 108;468 28;208 108;448 88;88 48;428 28;468 108;188 68;48 108;148 8;208 88;548 128;328 48;8 88;528 28;48 128;188 88;28 88;548 128;468 108;368 68;408 108;168 28;528 108;228 28;168 128;148 8;328 8;268 128;8 128;388 68;88 48;348 28;288 88;388 108;368 48;308 68;248 8;28 108;348 88;48 68;128 28;8 28;28 108;308 68;128 108;208 48;48 108;88 108;108 28;8 28;48 48"
    />
  </polygon>
</g>
</svg>