<svg xmlns="http://www.w3.org/2000/svg" width="560" height="140">
<rect x="0" y="0" width="18" height="18" fill="#00ff00" />
<rect x="20" y="0" width="18" height="18" fill="#00ff00" />
<rect x="40" y="0" width="18" height="18" fill="#00ff00" />
<rect x="60" y="0" width="18" height="18" fill="#00ff00" />
<rect x="80" y="0" width="18" height="18" fill="#eeeeee" />
<rect x="100" y="0" width="18" height="18" fill="#00ff00" />
<rect x="120" y="0" width="18" height="18" fill="#eeeeee" />
<rect x="140" y="0" width="18" height="18" fill="#00ff00" />
<rect x="160" y="0" width="18" height="18" fill="#00ff00" />
<rect x="180" y="0" width="18" height="18" fill="#eeeeee" />
<rect x="200" y="0" width="18" height="18" fill="#00ff00" />
<rect x="220" y="0" width="18" height="18" fill="#00ff00" />
<rect x="240" y="0" width="18" height="18" fill="#00ff00" />
<rect x="260" y="0" width="18" height="18" fill="#00ff00" />
<rect x="280" y="0" width="18" height="18" fill="#00ff00" />
<rect x="300" y="0" width="18" height="18" fill="#eeeeee" />
<rect x="320" y="0" width="18" height="18" fill="#eeeeee" />
<rect x="340" y="0" width="18" height="18" fill="#00ff00" />
<rect x="360" y="0" width="18" height="18" fill="#00ff00" />
<rect x="380" y="0" width="18" height="18" fill="#00ff00" />
<rect x="400" y="0" width="18" height="18" fill="#00ff00" />
<rect x="420" y="0" width="18" height="18" fill="#00ff00" />
<rect x="440" y="0" width="18" height="18" fill="#00ff00" />
<rect x="460" y="0" width="18" height="18" fill="#00ff00" />
<rect x="480" y="0" width="18" height="18" fill="#00ff00" />
<rect x="500" y="0" width="18" height="18" fill="#eeeeee" />
<rect x="520" y="0" width="18" height="18" fill="#00ff00" />
<rect x="540" y="0" width="18" height="18" fill="#eeeeee" />
<rect x="0" y="20" width="18" height="18" fill="#00ff00" />
<rect x="20" y="20" width="18" height="18" fill="#00ff00" />
<rect x="40" y="20" width="18" height="18" fill="#00ff00" />
<rect x="60" y="20" width="18" height="18" fill="#00ff00" />
<rect x="80" y="20" width="18" height="18" fill="#00ff00" />
<rect x="100" y="20" width="18" height="18" fill="#eeeeee" />
<rect x="120" y="20" width="18" height="18" fill="#00ff00" />
<rect x="140" y="20" width="18" height="18" fill="#00ff00" />
<rect x="160" y="20" width="18" height="18" fill="#00ff00" />
<rect x="180" y="20" width="18" height="18" fill="#00ff00" />
<rect x="200" y="20" width="18" height="18" fill="#00ff00" />
<rect x="220" y="20" width="18" height="18" fill="#00ff00" />
<rect x="240" y="20" width="18" height="18" fill="#00ff00" />
<rect x="260" y="20" width="18" height="18" fill="#00ff00" />
<rect x="280" y="20" width="18" height="18" fill="#00ff00" />
<rect x="300" y="20" width="18" height="18" fill="#00ff00" />
<rect x="320" y="20" width="18" height="18" fill="#00ff00" />
<rect x="340" y="20" width="18" height="18" fill="#00ff00" />
<rect x="360" y="20" width="18" height="18" fill="#00ff00" />
<rect x="380" y="20" width="18" height="18" fill="#00ff00" />
<rect x="400" y="20" width="18" height="18" fill="#eeeeee" />
<rect x="420" y="20" width="18" height="18" fill="#00ff00" />
<rect x="440" y="20" width="18" height="18" fill="#00ff00" />
<rect x="460" y="20" width="18" height="18" fill="#00ff00" />
<rect x="480" y="20" width="18" height="18" fill="#00ff00" />
<rect x="500" y="20" width="18" height="18" fill="#00ff00" />
<rect x="520" y="20" width="18" height="18" fill="#00ff00" />
<rect x="540" y="20" width="18" height="18" fill="#00ff00" />
<rect x="0" y="40" width="18" height="18" fill="#00ff00" />
<rect x="20" y="40" width="18" height="18" fill="#00ff00" />
<rect x="40" y="40" width="18" height="18" fill="#00ff00" />
<rect x="60" y="40" width="18" height="18" fill="#eeeeee" />
<rect x="80" y="40" width="18" height="18" fill="#00ff00" />
<rect x="100" y="40" width="18" height="18" fill="#00ff00" />
<rect x="120" y="40" width="18" height="18" fill="#00ff00" />
<rect x="140" y="40" width="18" height="18" fill="#eeeeee" />
<rect x="160" y="40" width="18" height="18" fill="#eeeeee" />
<rect x="180" y="40" width="18" height="18" fill="#00ff00" />
<rect x="200" y="40" width="18" height="18" fill="#00ff00" />
<rect x="220" y="40" width="18" height="18" fill="#00ff00" />
<rect x="240" y="40" width="18" height="18" fill="#00ff00" />
<rect x="260" y="40" width="18" height="18" fill="#00ff00" />
<rect x="280" y="40" width="18" height="18" fill="#00ff00" />
<rect x="300" y="40" width="18" height="18" fill="#00ff00" />
<rect x="320" y="40" width="18" height="18" fill="#eeeeee" />
<rect x="340" y="40" width="18" height="18" fill="#00ff00" />
<rect x="360" y="40" width="18" height="18" fill="#eeeeee" />
<rect x="380" y="40" width="18" height="18" fill="#eeeeee" />
<rect x="400" y="40" width="18" height="18" fill="#00ff00" />
<rect x="420" y="40" width="18" height="18" fill="#eeeeee" />
<rect x="440" y="40" width="18" height="18" fill="#00ff00" />
<rect x="460" y="40" width="18" height="18" fill="#eeeeee" />
<rect x="480" y="40" width="18" height="18" fill="#00ff00" />
<rect x="500" y="40" width="18" height="18" fill="#00ff00" />
<rect x="520" y="40" width="18" height="18" fill="#00ff00" />
<rect x="540" y="40" width="18" height="18" fill="#00ff00" />
<rect x="0" y="60" width="18" height="18" fill="#00ff00" />
<rect x="20" y="60" width="18" height="18" fill="#00ff00" />
<rect x="40" y="60" width="18" height="18" fill="#00ff00" />
<rect x="60" y="60" width="18" height="18" fill="#00ff00" />
<rect x="80" y="60" width="18" height="18" fill="#00ff00" />
<rect x="100" y="60" width="18" height="18" fill="#00ff00" />
<rect x="120" y="60" width="18" height="18" fill="#00ff00" />
<rect x="140" y="60" width="18" height="18" fill="#00ff00" />
<rect x="160" y="60" width="18" height="18" fill="#00ff00" />
<rect x="180" y="60" width="18" height="18" fill="#00ff00" />
<rect x="200" y="60" width="18" height="18" fill="#00ff00" />
<rect x="220" y="60" width="18" height="18" fill="#eeeeee" />
<rect x="240" y="60" width="18" height="18" fill="#00ff00" />
<rect x="260" y="60" width="18" height="18" fill="#00ff00" />
<rect x="280" y="60" width="18" height="18" fill="#00ff00" />
<rect x="300" y="60" width="18" height="18" fill="#00ff00" />
<rect x="320" y="60" width="18" height="18" fill="#00ff00" />
<rect x="340" y="60" width="18" height="18" fill="#00ff00" />
<rect x="360" y="60" width="18" height="18" fill="#00ff00" />
<rect x="380" y="60" width="18" height="18" fill="#00ff00" />
<rect x="400" y="60" width="18" height="18" fill="#eeeeee" />
<rect x="420" y="60" width="18" height="18" fill="#00ff00" />
<rect x="440" y="60" width="18" height="18" fill="#00ff00" />
<rect x="460" y="60" width="18" height="18" fill="#00ff00" />
<rect x="480" y="60" width="18" height="18" fill="#00ff00" />
<rect x="500" y="60" width="18" height="18" fill="#00ff00" />
<rect x="520" y="60" width="18" height="18" fill="#eeeeee" />
<rect x="540" y="60" width="18" height="18" fill="#00ff00" />
<rect x="0" y="80" width="18" height="18" fill="#00ff00" />
<rect x="20" y="80" width="18" height="18" fill="#eeeeee" />
<rect x="40" y="80" width="18" height="18" fill="#00ff00" />
<rect x="60" y="80" width="18" height="18" fill="#00ff00" />
<rect x="80" y="80" width="18" height="18" fill="#00ff00" />
<rect x="100" y="80" width="18" height="18" fill="#00ff00" />
<rect x="120" y="80" width="18" height="18" fill="#00ff00" />
<rect x="140" y="80" width="18" height="18" fill="#00ff00" />
<rect x="160" y="80" width="18" height="18" fill="#00ff00" />
<rect x="180" y="80" width="18" height="18" fill="#eeeeee" />
<rect x="200" y="80" width="18" height="18" fill="#00ff00" />
<rect x="220" y="80" width="18" height="18" fill="#00ff00" />
<rect x="240" y="80" width="18" height="18" fill="#eeeeee" />
<rect x="260" y="80" width="18" height="18" fill="#00ff00" />
<rect x="280" y="80" width="18" height="18" fill="#00ff00" />
<rect x="300" y="80" width="18" height="18" fill="#00ff00" />
<rect x="320" y="80" width="18" height="18" fill="#00ff00" />
<rect x="340" y="80" width="18" height="18" fill="#00ff00" />
<rect x="360" y="80" width="18" height="18" fill="#00ff00" />
<rect x="380" y="80" width="18" height="18" fill="#00ff00" />
<rect x="400" y="80" width="18" height="18" fill="#00ff00" />
<rect x="420" y="80" width="18" height="18" fill="#eeeeee" />
<rect x="440" y="80" width="18" height="18" fill="#eeeeee" />
<rect x="460" y="80" width="18" height="18" fill="#00ff00" />
<rect x="480" y="80" width="18" height="18" fill="#00ff00" />
<rect x="500" y="80" width="18" height="18" fill="#00ff00" />
<rect x="520" y="80" width="18" height="18" fill="#00ff00" />
<rect x="540" y="80" width="18" height="18" fill="#00ff00" />
<rect x="0" y="100" width="18" height="18" fill="#00ff00" />
<rect x="20" y="100" width="18" height="18" fill="#00ff00" />
<rect x="40" y="100" width="18" height="18" fill="#00ff00" />
<rect x="60" y="100" width="18" height="18" fill="#00ff00" />
<rect x="80" y="100" width="18" height="18" fill="#00ff00" />
<rect x="100" y="100" width="18" height="18" fill="#00ff00" />
<rect x="120" y="100" width="18" height="18" fill="#00ff00" />
<rect x="140" y="100" width="18" height="18" fill="#00ff00" />
<rect x="160" y="100" width="18" height="18" fill="#00ff00" />
<rect x="180" y="100" width="18" height="18" fill="#00ff00" />
<rect x="200" y="100" width="18" height="18" fill="#00ff00" />
<rect x="220" y="100" width="18" height="18" fill="#00ff00" />
<rect x="240" y="100" width="18" height="18" fill="#00ff00" />
<rect x="260" y="100" width="18" height="18" fill="#00ff00" />
<rect x="280" y="100" width="18" height="18" fill="#00ff00" />
<rect x="300" y="100" width="18" height="18" fill="#00ff00" />
<rect x="320" y="100" width="18" height="18" fill="#eeeeee" />
<rect x="340" y="100" width="18" height="18" fill="#00ff00" />
<rect x="360" y="100" width="18" height="18" fill="#00ff00" />
<rect x="380" y="100" width="18" height="18" fill="#00ff00" />
<rect x="400" y="100" width="18" height="18" fill="#00ff00" />
<rect x="420" y="100" width="18" height="18" fill="#00ff00" />
<rect x="440" y="100" width="18" height="18" fill="#00ff00" />
<rect x="460" y="100" width="18" height="18" fill="#00ff00" />
<rect x="480" y="100" width="18" height="18" fill="#eeeeee" />
<rect x="500" y="100" width="18" height="18" fill="#00ff00" />
<rect x="520" y="100" width="18" height="18" fill="#00ff00" />
<rect x="540" y="100" width="18" height="18" fill="#00ff00" />
<rect x="0" y="120" width="18" height="18" fill="#00ff00" />
<rect x="20" y="120" width="18" height="18" fill="#00ff00" />
<rect x="40" y="120" width="18" height="18" fill="#00ff00" />
<rect x="60" y="120" width="18" height="18" fill="#00ff00" />
<rect x="80" y="120" width="18" height="18" fill="#00ff00" />
<rect x="100" y="120" width="18" height="18" fill="#00ff00" />
<rect x="120" y="120" width="18" height="18" fill="#eeeeee" />
<rect x="140" y="120" width="18" height="18" fill="#00ff00" />
<rect x="160" y="120" width="18" height="18" fill="#00ff00" />
<rect x="180" y="120" width="18" height="18" fill="#00ff00" />
<rect x="200" y="120" width="18" height="18" fill="#00ff00" />
<rect x="220" y="120" width="18" height="18" fill="#00ff00" />
<rect x="240" y="120" width="18" height="18" fill="#00ff00" />
<rect x="260" y="120" width="18" height="18" fill="#eeeeee" />
<rect x="280" y="120" width="18" height="18" fill="#eeeeee" />
<rect x="300" y="120" width="18" height="18" fill="#00ff00" />
<rect x="320" y="120" width="18" height="18" fill="#00ff00" />
<rect x="340" y="120" width="18" height="18" fill="#00ff00" />
<rect x="360" y="120" width="18" height="18" fill="#eeeeee" />
<rect x="380" y="120" width="18" height="18" fill="#00ff00" />
<rect x="400" y="120" width="18" height="18" fill="#00ff00" />
<rect x="420" y="120" width="18" height="18" fill="#00ff00" />
<rect x="440" y="120" width="18" height="18" fill="#00ff00" />
<rect x="460" y="120" width="18" height="18" fill="#eeeeee" />
<rect x="480" y="120" width="18" height="18" fill="#00ff00" />
<rect x="500" y="120" width="18" height="18" fill="#00ff00" />
<rect x="520" y="120" width="18" height="18" fill="#eeeeee" />
<rect x="540" y="120" width="18" height="18" fill="#00ff00" />
</svg>