<svg xmlns="http://www.w3.org/2000/svg"
  viewBox="0 0 560 140"
  width="560"
  height="140"
  style="background:#020617">
<rect x="0" y="0" width="16" height="16" rx="3"
  fill="#0f766e">
  
</rect>
<rect x="20" y="0" width="16" height="16" rx="3"
  fill="#020617">
  
</rect>
<rect x="40" y="0" width="16" height="16" rx="3"
  fill="#0f766e">
  
</rect>
<rect x="60" y="0" width="16" height="16" rx="3"
  fill="#14b8a6">
  
</rect>
<rect x="80" y="0" width="16" height="16" rx="3"
  fill="#5eead4">
  
</rect>
<rect x="100" y="0" width="16" height="16" rx="3"
  fill="#020617">
  
</rect>
<rect x="120" y="0" width="16" height="16" rx="3"
  fill="#14b8a6">
  
</rect>
<rect x="140" y="0" width="16" height="16" rx="3"
  fill="#5eead4">
  
</rect>
<rect x="160" y="0" width="16" height="16" rx="3"
  fill="#14b8a6">
  
</rect>
<rect x="180" y="0" width="16" height="16" rx="3"
  fill="#14b8a6">
  
</rect>
<rect x="200" y="0" width="16" height="16" rx="3"
  fill="#14b8a6">
  <animate attributeName="opacity"
           values="1;0"
           begin="13.649999999999999s"
           dur="0.4s"
           fill="freeze" />
</rect>
<rect x="220" y="0" width="16" height="16" rx="3"
  fill="#0f766e">
  
</rect>
<rect x="240" y="0" width="16" height="16" rx="3"
  fill="#0f766e">
  
</rect>
<rect x="260" y="0" width="16" height="16" rx="3"
  fill="#0f766e">
  
</rect>
<rect x="280" y="0" width="16" height="16" rx="3"
  fill="#0f766e">
  
</rect>
<rect x="300" y="0" width="16" height="16" rx="3"
  fill="#14b8a6">
  
</rect>
<rect x="320" y="0" width="16" height="16" rx="3"
  fill="#0f766e">
  
</rect>
<rect x="340" y="0" width="16" height="16" rx="3"
  fill="#14b8a6">
  <animate attributeName="opacity"
           values="1;0"
           begin="3.5s"
           dur="0.4s"
           fill="freeze" />
</rect>
<rect x="360" y="0" width="16" height="16" rx="3"
  fill="#14b8a6">
  <animate attributeName="opacity"
           values="1;0"
           begin="16.099999999999998s"
           dur="0.4s"
           fill="freeze" />
</rect>
<rect x="380" y="0" width="16" height="16" rx="3"
  fill="#0f766e">
  
</rect>
<rect x="400" y="0" width="16" height="16" rx="3"
  fill="#14b8a6">
  
</rect>
<rect x="420" y="0" width="16" height="16" rx="3"
  fill="#020617">
  
</rect>
<rect x="440" y="0" width="16" height="16" rx="3"
  fill="#0f766e">
  
</rect>
<rect x="460" y="0" width="16" height="16" rx="3"
  fill="#0f766e">
  
</rect>
<rect x="480" y="0" width="16" height="16" rx="3"
  fill="#020617">
  
</rect>
<rect x="500" y="0" width="16" height="16" rx="3"
  fill="#020617">
  <animate attributeName="opacity"
           values="1;0"
           begin="7s"
           dur="0.4s"
           fill="freeze" />
</rect>
<rect x="520" y="0" width="16" height="16" rx="3"
  fill="#0f766e">
  
</rect>
<rect x="540" y="0" width="16" height="16" rx="3"
  fill="#5eead4">
  
</rect>
<rect x="0" y="20" width="16" height="16" rx="3"
  fill="#0f766e">
  
</rect>
<rect x="20" y="20" width="16" height="16" rx="3"
  fill="#0f766e">
  <animate attributeName="opacity"
           values="1;0"
           begin="11.2s"
           dur="0.4s"
           fill="freeze" />
</rect>
<rect x="40" y="20" width="16" height="16" rx="3"
  fill="#14b8a6">
  
</rect>
<rect x="60" y="20" width="16" height="16" rx="3"
  fill="#020617">
  <animate attributeName="opacity"
           values="1;0"
           begin="10.149999999999999s"
           dur="0.4s"
           fill="freeze" />
</rect>
<rect x="80" y="20" width="16" height="16" rx="3"
  fill="#5eead4">
  <animate attributeName="opacity"
           values="1;0"
           begin="2.0999999999999996s"
           dur="0.4s"
           fill="freeze" />
</rect>
<rect x="100" y="20" width="16" height="16" rx="3"
  fill="#020617">
  
</rect>
<rect x="120" y="20" width="16" height="16" rx="3"
  fill="#020617">
  
</rect>
<rect x="140" y="20" width="16" height="16" rx="3"
  fill="#0f766e">
  <animate attributeName="opacity"
           values="1;0"
           begin="3.8499999999999996s"
           dur="0.4s"
           fill="freeze" />
</rect>
<rect x="160" y="20" width="16" height="16" rx="3"
  fill="#020617">
  
</rect>
<rect x="180" y="20" width="16" height="16" rx="3"
  fill="#020617">
  
</rect>
<rect x="200" y="20" width="16" height="16" rx="3"
  fill="#5eead4">
  
</rect>
<rect x="220" y="20" width="16" height="16" rx="3"
  fill="#14b8a6">
  <animate attributeName="opacity"
           values="1;0"
           begin="5.6s"
           dur="0.4s"
           fill="freeze" />
</rect>
<rect x="240" y="20" width="16" height="16" rx="3"
  fill="#14b8a6">
  
</rect>
<rect x="260" y="20" width="16" height="16" rx="3"
  fill="#5eead4">
  
</rect>
<rect x="280" y="20" width="16" height="16" rx="3"
  fill="#5eead4">
  
</rect>
<rect x="300" y="20" width="16" height="16" rx="3"
  fill="#5eead4">
  
</rect>
<rect x="320" y="20" width="16" height="16" rx="3"
  fill="#14b8a6">
  
</rect>
<rect x="340" y="20" width="16" height="16" rx="3"
  fill="#5eead4">
  
</rect>
<rect x="360" y="20" width="16" height="16" rx="3"
  fill="#14b8a6">
  
</rect>
<rect x="380" y="20" width="16" height="16" rx="3"
  fill="#0f766e">
  <animate attributeName="opacity"
           values="1;0"
           begin="15.749999999999998s"
           dur="0.4s"
           fill="freeze" />
</rect>
<rect x="400" y="20" width="16" height="16" rx="3"
  fill="#0f766e">
  
</rect>
<rect x="420" y="20" width="16" height="16" rx="3"
  fill="#020617">
  
</rect>
<rect x="440" y="20" width="16" height="16" rx="3"
  fill="#14b8a6">
  
</rect>
<rect x="460" y="20" width="16" height="16" rx="3"
  fill="#0f766e">
  
</rect>
<rect x="480" y="20" width="16" height="16" rx="3"
  fill="#5eead4">
  
</rect>
<rect x="500" y="20" width="16" height="16" rx="3"
  fill="#14b8a6">
  
</rect>
<rect x="520" y="20" width="16" height="16" rx="3"
  fill="#14b8a6">
  
</rect>
<rect x="540" y="20" width="16" height="16" rx="3"
  fill="#0f766e">
  
</rect>
<rect x="0" y="40" width="16" height="16" rx="3"
  fill="#14b8a6">
  
</rect>
<rect x="20" y="40" width="16" height="16" rx="3"
  fill="#020617">
  <animate attributeName="opacity"
           values="1;0"
           begin="8.049999999999999s"
           dur="0.4s"
           fill="freeze" />
</rect>
<rect x="40" y="40" width="16" height="16" rx="3"
  fill="#020617">
  
</rect>
<rect x="60" y="40" width="16" height="16" rx="3"
  fill="#0f766e">
  
</rect>
<rect x="80" y="40" width="16" height="16" rx="3"
  fill="#0f766e">
  
</rect>
<rect x="100" y="40" width="16" height="16" rx="3"
  fill="#0f766e">
  <animate attributeName="opacity"
           values="1;0"
           begin="12.25s"
           dur="0.4s"
           fill="freeze" />
</rect>
<rect x="120" y="40" width="16" height="16" rx="3"
  fill="#5eead4">
  
</rect>
<rect x="140" y="40" width="16" height="16" rx="3"
  fill="#020617">
  
</rect>
<rect x="160" y="40" width="16" height="16" rx="3"
  fill="#14b8a6">
  
</rect>
<rect x="180" y="40" width="16" height="16" rx="3"
  fill="#0f766e">
  
</rect>
<rect x="200" y="40" width="16" height="16" rx="3"
  fill="#020617">
  <animate attributeName="opacity"
           values="1;0"
           begin="4.199999999999999s"
           dur="0.4s"
           fill="freeze" />
</rect>
<rect x="220" y="40" width="16" height="16" rx="3"
  fill="#0f766e">
  <animate attributeName="opacity"
           values="1;0"
           begin="0.35s"
           dur="0.4s"
           fill="freeze" />
</rect>
<rect x="240" y="40" width="16" height="16" rx="3"
  fill="#020617">
  
</rect>
<rect x="260" y="40" width="16" height="16" rx="3"
  fill="#0f766e">
  
</rect>
<rect x="280" y="40" width="16" height="16" rx="3"
  fill="#0f766e">
  
</rect>
<rect x="300" y="40" width="16" height="16" rx="3"
  fill="#14b8a6">
  <animate attributeName="opacity"
           values="1;0"
           begin="2.8s"
           dur="0.4s"
           fill="freeze" />
</rect>
<rect x="320" y="40" width="16" height="16" rx="3"
  fill="#020617">
  
</rect>
<rect x="340" y="40" width="16" height="16" rx="3"
  fill="#0f766e">
  
</rect>
<rect x="360" y="40" width="16" height="16" rx="3"
  fill="#0f766e">
  <animate attributeName="opacity"
           values="1;0"
           begin="13.299999999999999s"
           dur="0.4s"
           fill="freeze" />
</rect>
<rect x="380" y="40" width="16" height="16" rx="3"
  fill="#0f766e">
  
</rect>
<rect x="400" y="40" width="16" height="16" rx="3"
  fill="#14b8a6">
  
</rect>
<rect x="420" y="40" width="16" height="16" rx="3"
  fill="#0f766e">
  
</rect>
<rect x="440" y="40" width="16" height="16" rx="3"
  fill="#5eead4">
  
</rect>
<rect x="460" y="40" width="16" height="16" rx="3"
  fill="#14b8a6">
  <animate attributeName="opacity"
           values="1;0"
           begin="15.399999999999999s"
           dur="0.4s"
           fill="freeze" />
</rect>
<rect x="480" y="40" width="16" height="16" rx="3"
  fill="#0f766e">
  <animate attributeName="opacity"
           values="1;0"
           begin="12.95s"
           dur="0.4s"
           fill="freeze" />
</rect>
<rect x="500" y="40" width="16" height="16" rx="3"
  fill="#14b8a6">
  <animate attributeName="opacity"
           values="1;0"
           begin="16.45s"
           dur="0.4s"
           fill="freeze" />
</rect>
<rect x="520" y="40" width="16" height="16" rx="3"
  fill="#14b8a6">
  <animate attributeName="opacity"
           values="1;0"
           begin="2.4499999999999997s"
           dur="0.4s"
           fill="freeze" />
</rect>
<rect x="540" y="40" width="16" height="16" rx="3"
  fill="#020617">
  
</rect>
<rect x="0" y="60" width="16" height="16" rx="3"
  fill="#5eead4">
  
</rect>
<rect x="20" y="60" width="16" height="16" rx="3"
  fill="#020617">
  
</rect>
<rect x="40" y="60" width="16" height="16" rx="3"
  fill="#0f766e">
  
</rect>
<rect x="60" y="60" width="16" height="16" rx="3"
  fill="#5eead4">
  
</rect>
<rect x="80" y="60" width="16" height="16" rx="3"
  fill="#0f766e">
  <animate attributeName="opacity"
           values="1;0"
           begin="1.75s"
           dur="0.4s"
           fill="freeze" />
</rect>
<rect x="100" y="60" width="16" height="16" rx="3"
  fill="#14b8a6">
  <animate attributeName="opacity"
           values="1;0"
           begin="1.0499999999999998s"
           dur="0.4s"
           fill="freeze" />
</rect>
<rect x="120" y="60" width="16" height="16" rx="3"
  fill="#14b8a6">
  
</rect>
<rect x="140" y="60" width="16" height="16" rx="3"
  fill="#0f766e">
  <animate attributeName="opacity"
           values="1;0"
           begin="12.6s"
           dur="0.4s"
           fill="freeze" />
</rect>
<rect x="160" y="60" width="16" height="16" rx="3"
  fill="#0f766e">
  
</rect>
<rect x="180" y="60" width="16" height="16" rx="3"
  fill="#020617">
  
</rect>
<rect x="200" y="60" width="16" height="16" rx="3"
  fill="#14b8a6">
  
</rect>
<rect x="220" y="60" width="16" height="16" rx="3"
  fill="#14b8a6">
  
</rect>
<rect x="240" y="60" width="16" height="16" rx="3"
  fill="#0f766e">
  
</rect>
<rect x="260" y="60" width="16" height="16" rx="3"
  fill="#020617">
  <animate attributeName="opacity"
           values="1;0"
           begin="4.8999999999999995s"
           dur="0.4s"
           fill="freeze" />
</rect>
<rect x="280" y="60" width="16" height="16" rx="3"
  fill="#0f766e">
  
</rect>
<rect x="300" y="60" width="16" height="16" rx="3"
  fill="#14b8a6">
  
</rect>
<rect x="320" y="60" width="16" height="16" rx="3"
  fill="#0f766e">
  
</rect>
<rect x="340" y="60" width="16" height="16" rx="3"
  fill="#14b8a6">
  
</rect>
<rect x="360" y="60" width="16" height="16" rx="3"
  fill="#0f766e">
  
</rect>
<rect x="380" y="60" width="16" height="16" rx="3"
  fill="#14b8a6">
  
</rect>
<rect x="400" y="60" width="16" height="16" rx="3"
  fill="#14b8a6">
  
</rect>
<rect x="420" y="60" width="16" height="16" rx="3"
  fill="#020617">
  
</rect>
<rect x="440" y="60" width="16" height="16" rx="3"
  fill="#14b8a6">
  <animate attributeName="opacity"
           values="1;0"
           begin="10.5s"
           dur="0.4s"
           fill="freeze" />
</rect>
<rect x="460" y="60" width="16" height="16" rx="3"
  fill="#14b8a6">
  
</rect>
<rect x="480" y="60" width="16" height="16" rx="3"
  fill="#0f766e">
  
</rect>
<rect x="500" y="60" width="16" height="16" rx="3"
  fill="#14b8a6">
  
</rect>
<rect x="520" y="60" width="16" height="16" rx="3"
  fill="#0f766e">
  
</rect>
<rect x="540" y="60" width="16" height="16" rx="3"
  fill="#020617">
  
</rect>
<rect x="0" y="80" width="16" height="16" rx="3"
  fill="#020617">
  
</rect>
<rect x="20" y="80" width="16" height="16" rx="3"
  fill="#5eead4">
  
</rect>
<rect x="40" y="80" width="16" height="16" rx="3"
  fill="#14b8a6">
  
</rect>
<rect x="60" y="80" width="16" height="16" rx="3"
  fill="#0f766e">
  
</rect>
<rect x="80" y="80" width="16" height="16" rx="3"
  fill="#020617">
  
</rect>
<rect x="100" y="80" width="16" height="16" rx="3"
  fill="#0f766e">
  <animate attributeName="opacity"
           values="1;0"
           begin="5.949999999999999s"
           dur="0.4s"
           fill="freeze" />
</rect>
<rect x="120" y="80" width="16" height="16" rx="3"
  fill="#14b8a6">
  <animate attributeName="opacity"
           values="1;0"
           begin="15.049999999999999s"
           dur="0.4s"
           fill="freeze" />
</rect>
<rect x="140" y="80" width="16" height="16" rx="3"
  fill="#0f766e">
  <animate attributeName="opacity"
           values="1;0"
           begin="18.549999999999997s"
           dur="0.4s"
           fill="freeze" />
</rect>
<rect x="160" y="80" width="16" height="16" rx="3"
  fill="#020617">
  
</rect>
<rect x="180" y="80" width="16" height="16" rx="3"
  fill="#020617">
  
</rect>
<rect x="200" y="80" width="16" height="16" rx="3"
  fill="#0f766e">
  
</rect>
<rect x="220" y="80" width="16" height="16" rx="3"
  fill="#020617">
  <animate attributeName="opacity"
           values="1;0"
           begin="1.4s"
           dur="0.4s"
           fill="freeze" />
</rect>
<rect x="240" y="80" width="16" height="16" rx="3"
  fill="#0f766e">
  
</rect>
<rect x="260" y="80" width="16" height="16" rx="3"
  fill="#0f766e">
  
</rect>
<rect x="280" y="80" width="16" height="16" rx="3"
  fill="#5eead4">
  
</rect>
<rect x="300" y="80" width="16" height="16" rx="3"
  fill="#020617">
  <animate attributeName="opacity"
           values="1;0"
           begin="0.7s"
           dur="0.4s"
           fill="freeze" />
</rect>
<rect x="320" y="80" width="16" height="16" rx="3"
  fill="#0f766e">
  
</rect>
<rect x="340" y="80" width="16" height="16" rx="3"
  fill="#020617">
  <animate attributeName="opacity"
           values="1;0"
           begin="9.1s"
           dur="0.4s"
           fill="freeze" />
</rect>
<rect x="360" y="80" width="16" height="16" rx="3"
  fill="#14b8a6">
  
</rect>
<rect x="380" y="80" width="16" height="16" rx="3"
  fill="#0f766e">
  <animate attributeName="opacity"
           values="1;0"
           begin="17.15s"
           dur="0.4s"
           fill="freeze" />
</rect>
<rect x="400" y="80" width="16" height="16" rx="3"
  fill="#0f766e">
  
</rect>
<rect x="420" y="80" width="16" height="16" rx="3"
  fill="#0f766e">
  
</rect>
<rect x="440" y="80" width="16" height="16" rx="3"
  fill="#5eead4">
  
</rect>
<rect x="460" y="80" width="16" height="16" rx="3"
  fill="#0f766e">
  <animate attributeName="opacity"
           values="1;0"
           begin="10.85s"
           dur="0.4s"
           fill="freeze" />
</rect>
<rect x="480" y="80" width="16" height="16" rx="3"
  fill="#14b8a6">
  
</rect>
<rect x="500" y="80" width="16" height="16" rx="3"
  fill="#0f766e">
  
</rect>
<rect x="520" y="80" width="16" height="16" rx="3"
  fill="#5eead4">
  
</rect>
<rect x="540" y="80" width="16" height="16" rx="3"
  fill="#5eead4">
  <animate attributeName="opacity"
           values="1;0"
           begin="14s"
           dur="0.4s"
           fill="freeze" />
</rect>
<rect x="0" y="100" width="16" height="16" rx="3"
  fill="#0f766e">
  
</rect>
<rect x="20" y="100" width="16" height="16" rx="3"
  fill="#0f766e">
  
</rect>
<rect x="40" y="100" width="16" height="16" rx="3"
  fill="#14b8a6">
  
</rect>
<rect x="60" y="100" width="16" height="16" rx="3"
  fill="#0f766e">
  <animate attributeName="opacity"
           values="1;0"
           begin="9.45s"
           dur="0.4s"
           fill="freeze" />
</rect>
<rect x="80" y="100" width="16" height="16" rx="3"
  fill="#14b8a6">
  <animate attributeName="opacity"
           values="1;0"
           begin="6.3s"
           dur="0.4s"
           fill="freeze" />
</rect>
<rect x="100" y="100" width="16" height="16" rx="3"
  fill="#5eead4">
  
</rect>
<rect x="120" y="100" width="16" height="16" rx="3"
  fill="#020617">
  
</rect>
<rect x="140" y="100" width="16" height="16" rx="3"
  fill="#0f766e">
  
</rect>
<rect x="160" y="100" width="16" height="16" rx="3"
  fill="#5eead4">
  
</rect>
<rect x="180" y="100" width="16" height="16" rx="3"
  fill="#0f766e">
  
</rect>
<rect x="200" y="100" width="16" height="16" rx="3"
  fill="#0f766e">
  
</rect>
<rect x="220" y="100" width="16" height="16" rx="3"
  fill="#14b8a6">
  
</rect>
<rect x="240" y="100" width="16" height="16" rx="3"
  fill="#5eead4">
  
</rect>
<rect x="260" y="100" width="16" height="16" rx="3"
  fill="#14b8a6">
  
</rect>
<rect x="280" y="100" width="16" height="16" rx="3"
  fill="#020617">
  
</rect>
<rect x="300" y="100" width="16" height="16" rx="3"
  fill="#0f766e">
  <animate attributeName="opacity"
           values="1;0"
           begin="7.699999999999999s"
           dur="0.4s"
           fill="freeze" />
</rect>
<rect x="320" y="100" width="16" height="16" rx="3"
  fill="#5eead4">
  
</rect>
<rect x="340" y="100" width="16" height="16" rx="3"
  fill="#14b8a6">
  
</rect>
<rect x="360" y="100" width="16" height="16" rx="3"
  fill="#14b8a6">
  
</rect>
<rect x="380" y="100" width="16" height="16" rx="3"
  fill="#0f766e">
  
</rect>
<rect x="400" y="100" width="16" height="16" rx="3"
  fill="#14b8a6">
  
</rect>
<rect x="420" y="100" width="16" height="16" rx="3"
  fill="#020617">
  
</rect>
<rect x="440" y="100" width="16" height="16" rx="3"
  fill="#14b8a6">
  
</rect>
<rect x="460" y="100" width="16" height="16" rx="3"
  fill="#020617">
  <animate attributeName="opacity"
           values="1;0"
           begin="16.799999999999997s"
           dur="0.4s"
           fill="freeze" />
</rect>
<rect x="480" y="100" width="16" height="16" rx="3"
  fill="#020617">
  
</rect>
<rect x="500" y="100" width="16" height="16" rx="3"
  fill="#0f766e">
  
</rect>
<rect x="520" y="100" width="16" height="16" rx="3"
  fill="#14b8a6">
  <animate attributeName="opacity"
           values="1;0"
           begin="5.25s"
           dur="0.4s"
           fill="freeze" />
</rect>
<rect x="540" y="100" width="16" height="16" rx="3"
  fill="#0f766e">
  
</rect>
<rect x="0" y="120" width="16" height="16" rx="3"
  fill="#020617">
  
</rect>
<rect x="20" y="120" width="16" height="16" rx="3"
  fill="#14b8a6">
  
</rect>
<rect x="40" y="120" width="16" height="16" rx="3"
  fill="#14b8a6">
  
</rect>
<rect x="60" y="120" width="16" height="16" rx="3"
  fill="#5eead4">
  <animate attributeName="opacity"
           values="1;0"
           begin="8.75s"
           dur="0.4s"
           fill="freeze" />
</rect>
<rect x="80" y="120" width="16" height="16" rx="3"
  fill="#020617">
  
</rect>
<rect x="100" y="120" width="16" height="16" rx="3"
  fill="#5eead4">
  <animate attributeName="opacity"
           values="1;0"
           begin="20.65s"
           dur="0.4s"
           fill="freeze" />
</rect>
<rect x="120" y="120" width="16" height="16" rx="3"
  fill="#0f766e">
  
</rect>
<rect x="140" y="120" width="16" height="16" rx="3"
  fill="#0f766e">
  
</rect>
<rect x="160" y="120" width="16" height="16" rx="3"
  fill="#0f766e">
  
</rect>
<rect x="180" y="120" width="16" height="16" rx="3"
  fill="#14b8a6">
  
</rect>
<rect x="200" y="120" width="16" height="16" rx="3"
  fill="#020617">
  
</rect>
<rect x="220" y="120" width="16" height="16" rx="3"
  fill="#14b8a6">
  
</rect>
<rect x="240" y="120" width="16" height="16" rx="3"
  fill="#5eead4">
  
</rect>
<rect x="260" y="120" width="16" height="16" rx="3"
  fill="#0f766e">
  <animate attributeName="opacity"
           values="1;0"
           begin="9.799999999999999s"
           dur="0.4s"
           fill="freeze" />
</rect>
<rect x="280" y="120" width="16" height="16" rx="3"
  fill="#020617">
  <animate attributeName="opacity"
           values="1;0"
           begin="14.35s"
           dur="0.4s"
           fill="freeze" />
</rect>
<rect x="300" y="120" width="16" height="16" rx="3"
  fill="#14b8a6">
  
</rect>
<rect x="320" y="120" width="16" height="16" rx="3"
  fill="#0f766e">
  
</rect>
<rect x="340" y="120" width="16" height="16" rx="3"
  fill="#0f766e">
  
</rect>
<rect x="360" y="120" width="16" height="16" rx="3"
  fill="#14b8a6">
  <animate attributeName="opacity"
           values="1;0"
           begin="0s"
           dur="0.4s"
           fill="freeze" />
</rect>
<rect x="380" y="120" width="16" height="16" rx="3"
  fill="#0f766e">
  
</rect>
<rect x="400" y="120" width="16" height="16" rx="3"
  fill="#14b8a6">
  
</rect>
<rect x="420" y="120" width="16" height="16" rx="3"
  fill="#0f766e">
  
</rect>
<rect x="440" y="120" width="16" height="16" rx="3"
  fill="#5eead4">
  
</rect>
<rect x="460" y="120" width="16" height="16" rx="3"
  fill="#020617">
  
</rect>
<rect x="480" y="120" width="16" height="16" rx="3"
  fill="#0f766e">
  <animate attributeName="opacity"
           values="1;0"
           begin="3.15s"
           dur="0.4s"
           fill="freeze" />
</rect>
<rect x="500" y="120" width="16" height="16" rx="3"
  fill="#5eead4">
  
</rect>
<rect x="520" y="120" width="16" height="16" rx="3"
  fill="#14b8a6">
  <animate attributeName="opacity"
           values="1;0"
           begin="6.6499999999999995s"
           dur="0.4s"
           fill="freeze" />
</rect>
<rect x="540" y="120" width="16" height="16" rx="3"
  fill="#0f766e">
  
</rect>
<defs>
  <filter id="neon">
    <feGaussianBlur stdDeviation="2" result="blur"/>
    <feMerge>
      <feMergeNode in="blur"/>
      <feMergeNode in="SourceGraphic"/>
    </feMerge>
  </filter>
</defs>

<polyline
  points="368,128 228,48 308,88 108,68 228,88 88,68 88,28 528,48 308,48 488,128 348,8 148,28 208,48 368,128 268,68 528,108 228,28 108,88 88,108 528,128 508,8 528,48 308,108 28,48 508,8 68,128 348,88 68,108 268,128 68,28 448,68 468,88 28,28 68,28 268,128 108,48 148,68 488,48 368,48 208,8 548,88 288,128 488,48 128,88 468,48 388,28 368,8 508,48 468,108 388,88 268,68 208,8 388,88 148,88 68,28 88,68 148,88 28,28 108,48 108,128"
  fill="none"
  stroke="#67e8f9"
  stroke-width="2"
  stroke-linecap="round"
  stroke-dasharray="4 12"
  opacity="0.4"
  filter="url(#neon)"
>
  <animate
    attributeName="stroke-dashoffset"
    from="0"
    to="-200"
    dur="6s"
    repeatCount="indefinite"/>
</polyline>

<g filter="url(#neon)">
  <polygon
    points="0,-6 12,0 0,6 -4,0"
    fill="none"
    stroke="#e5e7eb"
    stroke-width="1.5"
  >
    <animateTransform
      attributeName="transform"
      type="translate"
      dur="18s"
      repeatCount="indefinite"
      values="368 128;228 48;308 88;108 68;228 88;88 68;88 28;528 48;308 48;488 128;348 8;148 28;208 48;368 128;268 68;528 108;228 28;108 88;88 108;528 128;508 8;528 48;308 108;28 48;508 8;68 128;348 88;68 108;268 128;68 28;448 68;468 88;28 28;68 28;268 128;108 48;148 68;488 48;368 48;208 8;548 88;288 128;488 48;128 88;468 48;388 28;368 8;508 48;468 108;388 88;268 68;208 8;388 88;148 88;68 28;88 68;148 88;28 28;108 48;108 128"
    />
  </polygon>
</g>
</svg>