<svg xmlns="http://www.w3.org/2000/svg"
     viewBox="0 0 560 140"
     width="560"
     height="140"><rect x="0" y="0" width="16" height="16" rx="4" fill="#ca8a04"/><circle cx="8" cy="8" r="2" fill="#ca8a04">
                <animate attributeName="r" values="2;6;2" dur="1.5s" repeatCount="indefinite" begin="0.0s"/>
                <animate attributeName="opacity" values="1;0.5;1" dur="1.5s" repeatCount="indefinite" begin="0.0s"/>
              </circle><rect x="20" y="0" width="16" height="16" rx="4" fill="#ca8a04"/><circle cx="28" cy="8" r="2" fill="#ca8a04">
                <animate attributeName="r" values="2;6;2" dur="1.5s" repeatCount="indefinite" begin="0.1s"/>
                <animate attributeName="opacity" values="1;0.5;1" dur="1.5s" repeatCount="indefinite" begin="0.1s"/>
              </circle><rect x="40" y="0" width="16" height="16" rx="4" fill="#4ade80"/><rect x="60" y="0" width="16" height="16" rx="4" fill="#16a34a"/><circle cx="68" cy="8" r="2" fill="#ca8a04">
                <animate attributeName="r" values="2;6;2" dur="1.5s" repeatCount="indefinite" begin="0.3s"/>
                <animate attributeName="opacity" values="1;0.5;1" dur="1.5s" repeatCount="indefinite" begin="0.3s"/>
              </circle><rect x="80" y="0" width="16" height="16" rx="4" fill="#4ade80"/><rect x="100" y="0" width="16" height="16" rx="4" fill="#16a34a"/><circle cx="108" cy="8" r="2" fill="#ca8a04">
                <animate attributeName="r" values="2;6;2" dur="1.5s" repeatCount="indefinite" begin="0.5s"/>
                <animate attributeName="opacity" values="1;0.5;1" dur="1.5s" repeatCount="indefinite" begin="0.5s"/>
              </circle><rect x="120" y="0" width="16" height="16" rx="4" fill="#16a34a"/><circle cx="128" cy="8" r="2" fill="#ca8a04">
                <animate attributeName="r" values="2;6;2" dur="1.5s" repeatCount="indefinite" begin="0.6s"/>
                <animate attributeName="opacity" values="1;0.5;1" dur="1.5s" repeatCount="indefinite" begin="0.6s"/>
              </circle><rect x="140" y="0" width="16" height="16" rx="4" fill="#16a34a"/><circle cx="148" cy="8" r="2" fill="#ca8a04">
                <animate attributeName="r" values="2;6;2" dur="1.5s" repeatCount="indefinite" begin="0.7s"/>
                <animate attributeName="opacity" values="1;0.5;1" dur="1.5s" repeatCount="indefinite" begin="0.7s"/>
              </circle><rect x="160" y="0" width="16" height="16" rx="4" fill="#4ade80"/><rect x="180" y="0" width="16" height="16" rx="4" fill="#16a34a"/><circle cx="188" cy="8" r="2" fill="#ca8a04">
                <animate attributeName="r" values="2;6;2" dur="1.5s" repeatCount="indefinite" begin="0.9s"/>
                <animate attributeName="opacity" values="1;0.5;1" dur="1.5s" repeatCount="indefinite" begin="0.9s"/>
              </circle><rect x="200" y="0" width="16" height="16" rx="4" fill="#ca8a04"/><circle cx="208" cy="8" r="2" fill="#ca8a04">
                <animate attributeName="r" values="2;6;2" dur="1.5s" repeatCount="indefinite" begin="1.0s"/>
                <animate attributeName="opacity" values="1;0.5;1" dur="1.5s" repeatCount="indefinite" begin="1.0s"/>
              </circle><rect x="220" y="0" width="16" height="16" rx="4" fill="#16a34a"/><circle cx="228" cy="8" r="2" fill="#ca8a04">
                <animate attributeName="r" values="2;6;2" dur="1.5s" repeatCount="indefinite" begin="1.1s"/>
                <animate attributeName="opacity" values="1;0.5;1" dur="1.5s" repeatCount="indefinite" begin="1.1s"/>
              </circle><rect x="240" y="0" width="16" height="16" rx="4" fill="#ca8a04"/><circle cx="248" cy="8" r="2" fill="#ca8a04">
                <animate attributeName="r" values="2;6;2" dur="1.5s" repeatCount="indefinite" begin="1.2s"/>
                <animate attributeName="opacity" values="1;0.5;1" dur="1.5s" repeatCount="indefinite" begin="1.2s"/>
              </circle><rect x="260" y="0" width="16" height="16" rx="4" fill="#4ade80"/><rect x="280" y="0" width="16" height="16" rx="4" fill="#16a34a"/><circle cx="288" cy="8" r="2" fill="#ca8a04">
                <animate attributeName="r" values="2;6;2" dur="1.5s" repeatCount="indefinite" begin="1.4s"/>
                <animate attributeName="opacity" values="1;0.5;1" dur="1.5s" repeatCount="indefinite" begin="1.4s"/>
              </circle><rect x="300" y="0" width="16" height="16" rx="4" fill="#ca8a04"/><circle cx="308" cy="8" r="2" fill="#ca8a04">
                <animate attributeName="r" values="2;6;2" dur="1.5s" repeatCount="indefinite" begin="1.5s"/>
                <animate attributeName="opacity" values="1;0.5;1" dur="1.5s" repeatCount="indefinite" begin="1.5s"/>
              </circle><rect x="320" y="0" width="16" height="16" rx="4" fill="#16a34a"/><circle cx="328" cy="8" r="2" fill="#ca8a04">
                <animate attributeName="r" values="2;6;2" dur="1.5s" repeatCount="indefinite" begin="1.6s"/>
                <animate attributeName="opacity" values="1;0.5;1" dur="1.5s" repeatCount="indefinite" begin="1.6s"/>
              </circle><rect x="340" y="0" width="16" height="16" rx="4" fill="#16a34a"/><circle cx="348" cy="8" r="2" fill="#ca8a04">
                <animate attributeName="r" values="2;6;2" dur="1.5s" repeatCount="indefinite" begin="1.7s"/>
                <animate attributeName="opacity" values="1;0.5;1" dur="1.5s" repeatCount="indefinite" begin="1.7s"/>
              </circle><rect x="360" y="0" width="16" height="16" rx="4" fill="#4ade80"/><rect x="380" y="0" width="16" height="16" rx="4" fill="#16a34a"/><circle cx="388" cy="8" r="2" fill="#ca8a04">
                <animate attributeName="r" values="2;6;2" dur="1.5s" repeatCount="indefinite" begin="1.9s"/>
                <animate attributeName="opacity" values="1;0.5;1" dur="1.5s" repeatCount="indefinite" begin="1.9s"/>
              </circle><rect x="400" y="0" width="16" height="16" rx="4" fill="#4ade80"/><rect x="420" y="0" width="16" height="16" rx="4" fill="#4ade80"/><rect x="440" y="0" width="16" height="16" rx="4" fill="#ca8a04"/><circle cx="448" cy="8" r="2" fill="#ca8a04">
                <animate attributeName="r" values="2;6;2" dur="1.5s" repeatCount="indefinite" begin="2.2s"/>
                <animate attributeName="opacity" values="1;0.5;1" dur="1.5s" repeatCount="indefinite" begin="2.2s"/>
              </circle><rect x="460" y="0" width="16" height="16" rx="4" fill="#4ade80"/><rect x="480" y="0" width="16" height="16" rx="4" fill="#16a34a"/><circle cx="488" cy="8" r="2" fill="#ca8a04">
                <animate attributeName="r" values="2;6;2" dur="1.5s" repeatCount="indefinite" begin="2.4s"/>
                <animate attributeName="opacity" values="1;0.5;1" dur="1.5s" repeatCount="indefinite" begin="2.4s"/>
              </circle><rect x="500" y="0" width="16" height="16" rx="4" fill="#4ade80"/><rect x="520" y="0" width="16" height="16" rx="4" fill="#16a34a"/><circle cx="528" cy="8" r="2" fill="#ca8a04">
                <animate attributeName="r" values="2;6;2" dur="1.5s" repeatCount="indefinite" begin="2.6s"/>
                <animate attributeName="opacity" values="1;0.5;1" dur="1.5s" repeatCount="indefinite" begin="2.6s"/>
              </circle><rect x="540" y="0" width="16" height="16" rx="4" fill="#ca8a04"/><circle cx="548" cy="8" r="2" fill="#ca8a04">
                <animate attributeName="r" values="2;6;2" dur="1.5s" repeatCount="indefinite" begin="2.7s"/>
                <animate attributeName="opacity" values="1;0.5;1" dur="1.5s" repeatCount="indefinite" begin="2.7s"/>
              </circle><rect x="0" y="20" width="16" height="16" rx="4" fill="#16a34a"/><circle cx="8" cy="28" r="2" fill="#ca8a04">
                <animate attributeName="r" values="2;6;2" dur="1.5s" repeatCount="indefinite" begin="0.1s"/>
                <animate attributeName="opacity" values="1;0.5;1" dur="1.5s" repeatCount="indefinite" begin="0.1s"/>
              </circle><rect x="20" y="20" width="16" height="16" rx="4" fill="#ca8a04"/><circle cx="28" cy="28" r="2" fill="#ca8a04">
                <animate attributeName="r" values="2;6;2" dur="1.5s" repeatCount="indefinite" begin="0.2s"/>
                <animate attributeName="opacity" values="1;0.5;1" dur="1.5s" repeatCount="indefinite" begin="0.2s"/>
              </circle><rect x="40" y="20" width="16" height="16" rx="4" fill="#4ade80"/><rect x="60" y="20" width="16" height="16" rx="4" fill="#16a34a"/><circle cx="68" cy="28" r="2" fill="#ca8a04">
                <animate attributeName="r" values="2;6;2" dur="1.5s" repeatCount="indefinite" begin="0.4s"/>
                <animate attributeName="opacity" values="1;0.5;1" dur="1.5s" repeatCount="indefinite" begin="0.4s"/>
              </circle><rect x="80" y="20" width="16" height="16" rx="4" fill="#ca8a04"/><circle cx="88" cy="28" r="2" fill="#ca8a04">
                <animate attributeName="r" values="2;6;2" dur="1.5s" repeatCount="indefinite" begin="0.5s"/>
                <animate attributeName="opacity" values="1;0.5;1" dur="1.5s" repeatCount="indefinite" begin="0.5s"/>
              </circle><rect x="100" y="20" width="16" height="16" rx="4" fill="#4ade80"/><rect x="120" y="20" width="16" height="16" rx="4" fill="#d1d5db"/><rect x="140" y="20" width="16" height="16" rx="4" fill="#16a34a"/><circle cx="148" cy="28" r="2" fill="#ca8a04">
                <animate attributeName="r" values="2;6;2" dur="1.5s" repeatCount="indefinite" begin="0.8s"/>
                <animate attributeName="opacity" values="1;0.5;1" dur="1.5s" repeatCount="indefinite" begin="0.8s"/>
              </circle><rect x="160" y="20" width="16" height="16" rx="4" fill="#d1d5db"/><rect x="180" y="20" width="16" height="16" rx="4" fill="#4ade80"/><rect x="200" y="20" width="16" height="16" rx="4" fill="#ca8a04"/><circle cx="208" cy="28" r="2" fill="#ca8a04">
                <animate attributeName="r" values="2;6;2" dur="1.5s" repeatCount="indefinite" begin="1.1s"/>
                <animate attributeName="opacity" values="1;0.5;1" dur="1.5s" repeatCount="indefinite" begin="1.1s"/>
              </circle><rect x="220" y="20" width="16" height="16" rx="4" fill="#16a34a"/><circle cx="228" cy="28" r="2" fill="#ca8a04">
                <animate attributeName="r" values="2;6;2" dur="1.5s" repeatCount="indefinite" begin="1.2s"/>
                <animate attributeName="opacity" values="1;0.5;1" dur="1.5s" repeatCount="indefinite" begin="1.2s"/>
              </circle><rect x="240" y="20" width="16" height="16" rx="4" fill="#16a34a"/><circle cx="248" cy="28" r="2" fill="#ca8a04">
                <animate attributeName="r" values="2;6;2" dur="1.5s" repeatCount="indefinite" begin="1.3s"/>
                <animate attributeName="opacity" values="1;0.5;1" dur="1.5s" repeatCount="indefinite" begin="1.3s"/>
              </circle><rect x="260" y="20" width="16" height="16" rx="4" fill="#ca8a04"/><circle cx="268" cy="28" r="2" fill="#ca8a04">
                <animate attributeName="r" values="2;6;2" dur="1.5s" repeatCount="indefinite" begin="1.4s"/>
                <animate attributeName="opacity" values="1;0.5;1" dur="1.5s" repeatCount="indefinite" begin="1.4s"/>
              </circle><rect x="280" y="20" width="16" height="16" rx="4" fill="#4ade80"/><rect x="300" y="20" width="16" height="16" rx="4" fill="#16a34a"/><circle cx="308" cy="28" r="2" fill="#ca8a04">
                <animate attributeName="r" values="2;6;2" dur="1.5s" repeatCount="indefinite" begin="1.6s"/>
                <animate attributeName="opacity" values="1;0.5;1" dur="1.5s" repeatCount="indefinite" begin="1.6s"/>
              </circle><rect x="320" y="20" width="16" height="16" rx="4" fill="#16a34a"/><circle cx="328" cy="28" r="2" fill="#ca8a04">
                <animate attributeName="r" values="2;6;2" dur="1.5s" repeatCount="indefinite" begin="1.7s"/>
                <animate attributeName="opacity" values="1;0.5;1" dur="1.5s" repeatCount="indefinite" begin="1.7s"/>
              </circle><rect x="340" y="20" width="16" height="16" rx="4" fill="#4ade80"/><rect x="360" y="20" width="16" height="16" rx="4" fill="#4ade80"/><rect x="380" y="20" width="16" height="16" rx="4" fill="#ca8a04"/><circle cx="388" cy="28" r="2" fill="#ca8a04">
                <animate attributeName="r" values="2;6;2" dur="1.5s" repeatCount="indefinite" begin="2.0s"/>
                <animate attributeName="opacity" values="1;0.5;1" dur="1.5s" repeatCount="indefinite" begin="2.0s"/>
              </circle><rect x="400" y="20" width="16" height="16" rx="4" fill="#ca8a04"/><circle cx="408" cy="28" r="2" fill="#ca8a04">
                <animate attributeName="r" values="2;6;2" dur="1.5s" repeatCount="indefinite" begin="2.1s"/>
                <animate attributeName="opacity" values="1;0.5;1" dur="1.5s" repeatCount="indefinite" begin="2.1s"/>
              </circle><rect x="420" y="20" width="16" height="16" rx="4" fill="#4ade80"/><rect x="440" y="20" width="16" height="16" rx="4" fill="#16a34a"/><circle cx="448" cy="28" r="2" fill="#ca8a04">
                <animate attributeName="r" values="2;6;2" dur="1.5s" repeatCount="indefinite" begin="2.3s"/>
                <animate attributeName="opacity" values="1;0.5;1" dur="1.5s" repeatCount="indefinite" begin="2.3s"/>
              </circle><rect x="460" y="20" width="16" height="16" rx="4" fill="#4ade80"/><rect x="480" y="20" width="16" height="16" rx="4" fill="#16a34a"/><circle cx="488" cy="28" r="2" fill="#ca8a04">
                <animate attributeName="r" values="2;6;2" dur="1.5s" repeatCount="indefinite" begin="2.5s"/>
                <animate attributeName="opacity" values="1;0.5;1" dur="1.5s" repeatCount="indefinite" begin="2.5s"/>
              </circle><rect x="500" y="20" width="16" height="16" rx="4" fill="#4ade80"/><rect x="520" y="20" width="16" height="16" rx="4" fill="#4ade80"/><rect x="540" y="20" width="16" height="16" rx="4" fill="#d1d5db"/><rect x="0" y="40" width="16" height="16" rx="4" fill="#4ade80"/><rect x="20" y="40" width="16" height="16" rx="4" fill="#ca8a04"/><circle cx="28" cy="48" r="2" fill="#ca8a04">
                <animate attributeName="r" values="2;6;2" dur="1.5s" repeatCount="indefinite" begin="0.3s"/>
                <animate attributeName="opacity" values="1;0.5;1" dur="1.5s" repeatCount="indefinite" begin="0.3s"/>
              </circle><rect x="40" y="40" width="16" height="16" rx="4" fill="#16a34a"/><circle cx="48" cy="48" r="2" fill="#ca8a04">
                <animate attributeName="r" values="2;6;2" dur="1.5s" repeatCount="indefinite" begin="0.4s"/>
                <animate attributeName="opacity" values="1;0.5;1" dur="1.5s" repeatCount="indefinite" begin="0.4s"/>
              </circle><rect x="60" y="40" width="16" height="16" rx="4" fill="#d1d5db"/><rect x="80" y="40" width="16" height="16" rx="4" fill="#4ade80"/><rect x="100" y="40" width="16" height="16" rx="4" fill="#16a34a"/><circle cx="108" cy="48" r="2" fill="#ca8a04">
                <animate attributeName="r" values="2;6;2" dur="1.5s" repeatCount="indefinite" begin="0.7s"/>
                <animate attributeName="opacity" values="1;0.5;1" dur="1.5s" repeatCount="indefinite" begin="0.7s"/>
              </circle><rect x="120" y="40" width="16" height="16" rx="4" fill="#4ade80"/><rect x="140" y="40" width="16" height="16" rx="4" fill="#ca8a04"/><circle cx="148" cy="48" r="2" fill="#ca8a04">
                <animate attributeName="r" values="2;6;2" dur="1.5s" repeatCount="indefinite" begin="0.9s"/>
                <animate attributeName="opacity" values="1;0.5;1" dur="1.5s" repeatCount="indefinite" begin="0.9s"/>
              </circle><rect x="160" y="40" width="16" height="16" rx="4" fill="#16a34a"/><circle cx="168" cy="48" r="2" fill="#ca8a04">
                <animate attributeName="r" values="2;6;2" dur="1.5s" repeatCount="indefinite" begin="1.0s"/>
                <animate attributeName="opacity" values="1;0.5;1" dur="1.5s" repeatCount="indefinite" begin="1.0s"/>
              </circle><rect x="180" y="40" width="16" height="16" rx="4" fill="#4ade80"/><rect x="200" y="40" width="16" height="16" rx="4" fill="#4ade80"/><rect x="220" y="40" width="16" height="16" rx="4" fill="#16a34a"/><circle cx="228" cy="48" r="2" fill="#ca8a04">
                <animate attributeName="r" values="2;6;2" dur="1.5s" repeatCount="indefinite" begin="1.3s"/>
                <animate attributeName="opacity" values="1;0.5;1" dur="1.5s" repeatCount="indefinite" begin="1.3s"/>
              </circle><rect x="240" y="40" width="16" height="16" rx="4" fill="#ca8a04"/><circle cx="248" cy="48" r="2" fill="#ca8a04">
                <animate attributeName="r" values="2;6;2" dur="1.5s" repeatCount="indefinite" begin="1.4s"/>
                <animate attributeName="opacity" values="1;0.5;1" dur="1.5s" repeatCount="indefinite" begin="1.4s"/>
              </circle><rect x="260" y="40" width="16" height="16" rx="4" fill="#4ade80"/><rect x="280" y="40" width="16" height="16" rx="4" fill="#ca8a04"/><circle cx="288" cy="48" r="2" fill="#ca8a04">
                <animate attributeName="r" values="2;6;2" dur="1.5s" repeatCount="indefinite" begin="1.6s"/>
                <animate attributeName="opacity" values="1;0.5;1" dur="1.5s" repeatCount="indefinite" begin="1.6s"/>
              </circle><rect x="300" y="40" width="16" height="16" rx="4" fill="#ca8a04"/><circle cx="308" cy="48" r="2" fill="#ca8a04">
                <animate attributeName="r" values="2;6;2" dur="1.5s" repeatCount="indefinite" begin="1.7s"/>
                <animate attributeName="opacity" values="1;0.5;1" dur="1.5s" repeatCount="indefinite" begin="1.7s"/>
              </circle><rect x="320" y="40" width="16" height="16" rx="4" fill="#4ade80"/><rect x="340" y="40" width="16" height="16" rx="4" fill="#16a34a"/><circle cx="348" cy="48" r="2" fill="#ca8a04">
                <animate attributeName="r" values="2;6;2" dur="1.5s" repeatCount="indefinite" begin="1.9s"/>
                <animate attributeName="opacity" values="1;0.5;1" dur="1.5s" repeatCount="indefinite" begin="1.9s"/>
              </circle><rect x="360" y="40" width="16" height="16" rx="4" fill="#4ade80"/><rect x="380" y="40" width="16" height="16" rx="4" fill="#16a34a"/><circle cx="388" cy="48" r="2" fill="#ca8a04">
                <animate attributeName="r" values="2;6;2" dur="1.5s" repeatCount="indefinite" begin="2.1s"/>
                <animate attributeName="opacity" values="1;0.5;1" dur="1.5s" repeatCount="indefinite" begin="2.1s"/>
              </circle><rect x="400" y="40" width="16" height="16" rx="4" fill="#16a34a"/><circle cx="408" cy="48" r="2" fill="#ca8a04">
                <animate attributeName="r" values="2;6;2" dur="1.5s" repeatCount="indefinite" begin="2.2s"/>
                <animate attributeName="opacity" values="1;0.5;1" dur="1.5s" repeatCount="indefinite" begin="2.2s"/>
              </circle><rect x="420" y="40" width="16" height="16" rx="4" fill="#4ade80"/><rect x="440" y="40" width="16" height="16" rx="4" fill="#4ade80"/><rect x="460" y="40" width="16" height="16" rx="4" fill="#ca8a04"/><circle cx="468" cy="48" r="2" fill="#ca8a04">
                <animate attributeName="r" values="2;6;2" dur="1.5s" repeatCount="indefinite" begin="2.5s"/>
                <animate attributeName="opacity" values="1;0.5;1" dur="1.5s" repeatCount="indefinite" begin="2.5s"/>
              </circle><rect x="480" y="40" width="16" height="16" rx="4" fill="#ca8a04"/><circle cx="488" cy="48" r="2" fill="#ca8a04">
                <animate attributeName="r" values="2;6;2" dur="1.5s" repeatCount="indefinite" begin="2.6s"/>
                <animate attributeName="opacity" values="1;0.5;1" dur="1.5s" repeatCount="indefinite" begin="2.6s"/>
              </circle><rect x="500" y="40" width="16" height="16" rx="4" fill="#16a34a"/><circle cx="508" cy="48" r="2" fill="#ca8a04">
                <animate attributeName="r" values="2;6;2" dur="1.5s" repeatCount="indefinite" begin="2.7s"/>
                <animate attributeName="opacity" values="1;0.5;1" dur="1.5s" repeatCount="indefinite" begin="2.7s"/>
              </circle><rect x="520" y="40" width="16" height="16" rx="4" fill="#16a34a"/><circle cx="528" cy="48" r="2" fill="#ca8a04">
                <animate attributeName="r" values="2;6;2" dur="1.5s" repeatCount="indefinite" begin="2.8s"/>
                <animate attributeName="opacity" values="1;0.5;1" dur="1.5s" repeatCount="indefinite" begin="2.8s"/>
              </circle><rect x="540" y="40" width="16" height="16" rx="4" fill="#d1d5db"/><rect x="0" y="60" width="16" height="16" rx="4" fill="#4ade80"/><rect x="20" y="60" width="16" height="16" rx="4" fill="#4ade80"/><rect x="40" y="60" width="16" height="16" rx="4" fill="#16a34a"/><circle cx="48" cy="68" r="2" fill="#ca8a04">
                <animate attributeName="r" values="2;6;2" dur="1.5s" repeatCount="indefinite" begin="0.5s"/>
                <animate attributeName="opacity" values="1;0.5;1" dur="1.5s" repeatCount="indefinite" begin="0.5s"/>
              </circle><rect x="60" y="60" width="16" height="16" rx="4" fill="#16a34a"/><circle cx="68" cy="68" r="2" fill="#ca8a04">
                <animate attributeName="r" values="2;6;2" dur="1.5s" repeatCount="indefinite" begin="0.6s"/>
                <animate attributeName="opacity" values="1;0.5;1" dur="1.5s" repeatCount="indefinite" begin="0.6s"/>
              </circle><rect x="80" y="60" width="16" height="16" rx="4" fill="#16a34a"/><circle cx="88" cy="68" r="2" fill="#ca8a04">
                <animate attributeName="r" values="2;6;2" dur="1.5s" repeatCount="indefinite" begin="0.7s"/>
                <animate attributeName="opacity" values="1;0.5;1" dur="1.5s" repeatCount="indefinite" begin="0.7s"/>
              </circle><rect x="100" y="60" width="16" height="16" rx="4" fill="#4ade80"/><rect x="120" y="60" width="16" height="16" rx="4" fill="#d1d5db"/><rect x="140" y="60" width="16" height="16" rx="4" fill="#16a34a"/><circle cx="148" cy="68" r="2" fill="#ca8a04">
                <animate attributeName="r" values="2;6;2" dur="1.5s" repeatCount="indefinite" begin="1.0s"/>
                <animate attributeName="opacity" values="1;0.5;1" dur="1.5s" repeatCount="indefinite" begin="1.0s"/>
              </circle><rect x="160" y="60" width="16" height="16" rx="4" fill="#16a34a"/><circle cx="168" cy="68" r="2" fill="#ca8a04">
                <animate attributeName="r" values="2;6;2" dur="1.5s" repeatCount="indefinite" begin="1.1s"/>
                <animate attributeName="opacity" values="1;0.5;1" dur="1.5s" repeatCount="indefinite" begin="1.1s"/>
              </circle><rect x="180" y="60" width="16" height="16" rx="4" fill="#16a34a"/><circle cx="188" cy="68" r="2" fill="#ca8a04">
                <animate attributeName="r" values="2;6;2" dur="1.5s" repeatCount="indefinite" begin="1.2s"/>
                <animate attributeName="opacity" values="1;0.5;1" dur="1.5s" repeatCount="indefinite" begin="1.2s"/>
              </circle><rect x="200" y="60" width="16" height="16" rx="4" fill="#4ade80"/><rect x="220" y="60" width="16" height="16" rx="4" fill="#4ade80"/><rect x="240" y="60" width="16" height="16" rx="4" fill="#4ade80"/><rect x="260" y="60" width="16" height="16" rx="4" fill="#d1d5db"/><rect x="280" y="60" width="16" height="16" rx="4" fill="#d1d5db"/><rect x="300" y="60" width="16" height="16" rx="4" fill="#4ade80"/><rect x="320" y="60" width="16" height="16" rx="4" fill="#4ade80"/><rect x="340" y="60" width="16" height="16" rx="4" fill="#4ade80"/><rect x="360" y="60" width="16" height="16" rx="4" fill="#16a34a"/><circle cx="368" cy="68" r="2" fill="#ca8a04">
                <animate attributeName="r" values="2;6;2" dur="1.5s" repeatCount="indefinite" begin="2.1s"/>
                <animate attributeName="opacity" values="1;0.5;1" dur="1.5s" repeatCount="indefinite" begin="2.1s"/>
              </circle><rect x="380" y="60" width="16" height="16" rx="4" fill="#16a34a"/><circle cx="388" cy="68" r="2" fill="#ca8a04">
                <animate attributeName="r" values="2;6;2" dur="1.5s" repeatCount="indefinite" begin="2.2s"/>
                <animate attributeName="opacity" values="1;0.5;1" dur="1.5s" repeatCount="indefinite" begin="2.2s"/>
              </circle><rect x="400" y="60" width="16" height="16" rx="4" fill="#16a34a"/><circle cx="408" cy="68" r="2" fill="#ca8a04">
                <animate attributeName="r" values="2;6;2" dur="1.5s" repeatCount="indefinite" begin="2.3s"/>
                <animate attributeName="opacity" values="1;0.5;1" dur="1.5s" repeatCount="indefinite" begin="2.3s"/>
              </circle><rect x="420" y="60" width="16" height="16" rx="4" fill="#4ade80"/><rect x="440" y="60" width="16" height="16" rx="4" fill="#ca8a04"/><circle cx="448" cy="68" r="2" fill="#ca8a04">
                <animate attributeName="r" values="2;6;2" dur="1.5s" repeatCount="indefinite" begin="2.5s"/>
                <animate attributeName="opacity" values="1;0.5;1" dur="1.5s" repeatCount="indefinite" begin="2.5s"/>
              </circle><rect x="460" y="60" width="16" height="16" rx="4" fill="#4ade80"/><rect x="480" y="60" width="16" height="16" rx="4" fill="#d1d5db"/><rect x="500" y="60" width="16" height="16" rx="4" fill="#d1d5db"/><rect x="520" y="60" width="16" height="16" rx="4" fill="#16a34a"/><circle cx="528" cy="68" r="2" fill="#ca8a04">
                <animate attributeName="r" values="2;6;2" dur="1.5s" repeatCount="indefinite" begin="2.9s"/>
                <animate attributeName="opacity" values="1;0.5;1" dur="1.5s" repeatCount="indefinite" begin="2.9s"/>
              </circle><rect x="540" y="60" width="16" height="16" rx="4" fill="#16a34a"/><circle cx="548" cy="68" r="2" fill="#ca8a04">
                <animate attributeName="r" values="2;6;2" dur="1.5s" repeatCount="indefinite" begin="3.0s"/>
                <animate attributeName="opacity" values="1;0.5;1" dur="1.5s" repeatCount="indefinite" begin="3.0s"/>
              </circle><rect x="0" y="80" width="16" height="16" rx="4" fill="#ca8a04"/><circle cx="8" cy="88" r="2" fill="#ca8a04">
                <animate attributeName="r" values="2;6;2" dur="1.5s" repeatCount="indefinite" begin="0.4s"/>
                <animate attributeName="opacity" values="1;0.5;1" dur="1.5s" repeatCount="indefinite" begin="0.4s"/>
              </circle><rect x="20" y="80" width="16" height="16" rx="4" fill="#d1d5db"/><rect x="40" y="80" width="16" height="16" rx="4" fill="#d1d5db"/><rect x="60" y="80" width="16" height="16" rx="4" fill="#16a34a"/><circle cx="68" cy="88" r="2" fill="#ca8a04">
                <animate attributeName="r" values="2;6;2" dur="1.5s" repeatCount="indefinite" begin="0.7s"/>
                <animate attributeName="opacity" values="1;0.5;1" dur="1.5s" repeatCount="indefinite" begin="0.7s"/>
              </circle><rect x="80" y="80" width="16" height="16" rx="4" fill="#4ade80"/><rect x="100" y="80" width="16" height="16" rx="4" fill="#4ade80"/><rect x="120" y="80" width="16" height="16" rx="4" fill="#16a34a"/><circle cx="128" cy="88" r="2" fill="#ca8a04">
                <animate attributeName="r" values="2;6;2" dur="1.5s" repeatCount="indefinite" begin="1.0s"/>
                <animate attributeName="opacity" values="1;0.5;1" dur="1.5s" repeatCount="indefinite" begin="1.0s"/>
              </circle><rect x="140" y="80" width="16" height="16" rx="4" fill="#ca8a04"/><circle cx="148" cy="88" r="2" fill="#ca8a04">
                <animate attributeName="r" values="2;6;2" dur="1.5s" repeatCount="indefinite" begin="1.1s"/>
                <animate attributeName="opacity" values="1;0.5;1" dur="1.5s" repeatCount="indefinite" begin="1.1s"/>
              </circle><rect x="160" y="80" width="16" height="16" rx="4" fill="#16a34a"/><circle cx="168" cy="88" r="2" fill="#ca8a04">
                <animate attributeName="r" values="2;6;2" dur="1.5s" repeatCount="indefinite" begin="1.2s"/>
                <animate attributeName="opacity" values="1;0.5;1" dur="1.5s" repeatCount="indefinite" begin="1.2s"/>
              </circle><rect x="180" y="80" width="16" height="16" rx="4" fill="#16a34a"/><circle cx="188" cy="88" r="2" fill="#ca8a04">
                <animate attributeName="r" values="2;6;2" dur="1.5s" repeatCount="indefinite" begin="1.3s"/>
                <animate attributeName="opacity" values="1;0.5;1" dur="1.5s" repeatCount="indefinite" begin="1.3s"/>
              </circle><rect x="200" y="80" width="16" height="16" rx="4" fill="#16a34a"/><circle cx="208" cy="88" r="2" fill="#ca8a04">
                <animate attributeName="r" values="2;6;2" dur="1.5s" repeatCount="indefinite" begin="1.4s"/>
                <animate attributeName="opacity" values="1;0.5;1" dur="1.5s" repeatCount="indefinite" begin="1.4s"/>
              </circle><rect x="220" y="80" width="16" height="16" rx="4" fill="#16a34a"/><circle cx="228" cy="88" r="2" fill="#ca8a04">
                <animate attributeName="r" values="2;6;2" dur="1.5s" repeatCount="indefinite" begin="1.5s"/>
                <animate attributeName="opacity" values="1;0.5;1" dur="1.5s" repeatCount="indefinite" begin="1.5s"/>
              </circle><rect x="240" y="80" width="16" height="16" rx="4" fill="#ca8a04"/><circle cx="248" cy="88" r="2" fill="#ca8a04">
                <animate attributeName="r" values="2;6;2" dur="1.5s" repeatCount="indefinite" begin="1.6s"/>
                <animate attributeName="opacity" values="1;0.5;1" dur="1.5s" repeatCount="indefinite" begin="1.6s"/>
              </circle><rect x="260" y="80" width="16" height="16" rx="4" fill="#d1d5db"/><rect x="280" y="80" width="16" height="16" rx="4" fill="#4ade80"/><rect x="300" y="80" width="16" height="16" rx="4" fill="#4ade80"/><rect x="320" y="80" width="16" height="16" rx="4" fill="#16a34a"/><circle cx="328" cy="88" r="2" fill="#ca8a04">
                <animate attributeName="r" values="2;6;2" dur="1.5s" repeatCount="indefinite" begin="2.0s"/>
                <animate attributeName="opacity" values="1;0.5;1" dur="1.5s" repeatCount="indefinite" begin="2.0s"/>
              </circle><rect x="340" y="80" width="16" height="16" rx="4" fill="#16a34a"/><circle cx="348" cy="88" r="2" fill="#ca8a04">
                <animate attributeName="r" values="2;6;2" dur="1.5s" repeatCount="indefinite" begin="2.1s"/>
                <animate attributeName="opacity" values="1;0.5;1" dur="1.5s" repeatCount="indefinite" begin="2.1s"/>
              </circle><rect x="360" y="80" width="16" height="16" rx="4" fill="#16a34a"/><circle cx="368" cy="88" r="2" fill="#ca8a04">
                <animate attributeName="r" values="2;6;2" dur="1.5s" repeatCount="indefinite" begin="2.2s"/>
                <animate attributeName="opacity" values="1;0.5;1" dur="1.5s" repeatCount="indefinite" begin="2.2s"/>
              </circle><rect x="380" y="80" width="16" height="16" rx="4" fill="#4ade80"/><rect x="400" y="80" width="16" height="16" rx="4" fill="#d1d5db"/><rect x="420" y="80" width="16" height="16" rx="4" fill="#4ade80"/><rect x="440" y="80" width="16" height="16" rx="4" fill="#4ade80"/><rect x="460" y="80" width="16" height="16" rx="4" fill="#16a34a"/><circle cx="468" cy="88" r="2" fill="#ca8a04">
                <animate attributeName="r" values="2;6;2" dur="1.5s" repeatCount="indefinite" begin="2.7s"/>
                <animate attributeName="opacity" values="1;0.5;1" dur="1.5s" repeatCount="indefinite" begin="2.7s"/>
              </circle><rect x="480" y="80" width="16" height="16" rx="4" fill="#4ade80"/><rect x="500" y="80" width="16" height="16" rx="4" fill="#4ade80"/><rect x="520" y="80" width="16" height="16" rx="4" fill="#ca8a04"/><circle cx="528" cy="88" r="2" fill="#ca8a04">
                <animate attributeName="r" values="2;6;2" dur="1.5s" repeatCount="indefinite" begin="3.0s"/>
                <animate attributeName="opacity" values="1;0.5;1" dur="1.5s" repeatCount="indefinite" begin="3.0s"/>
              </circle><rect x="540" y="80" width="16" height="16" rx="4" fill="#ca8a04"/><circle cx="548" cy="88" r="2" fill="#ca8a04">
                <animate attributeName="r" values="2;6;2" dur="1.5s" repeatCount="indefinite" begin="3.1s"/>
                <animate attributeName="opacity" values="1;0.5;1" dur="1.5s" repeatCount="indefinite" begin="3.1s"/>
              </circle><rect x="0" y="100" width="16" height="16" rx="4" fill="#4ade80"/><rect x="20" y="100" width="16" height="16" rx="4" fill="#16a34a"/><circle cx="28" cy="108" r="2" fill="#ca8a04">
                <animate attributeName="r" values="2;6;2" dur="1.5s" repeatCount="indefinite" begin="0.6s"/>
                <animate attributeName="opacity" values="1;0.5;1" dur="1.5s" repeatCount="indefinite" begin="0.6s"/>
              </circle><rect x="40" y="100" width="16" height="16" rx="4" fill="#4ade80"/><rect x="60" y="100" width="16" height="16" rx="4" fill="#16a34a"/><circle cx="68" cy="108" r="2" fill="#ca8a04">
                <animate attributeName="r" values="2;6;2" dur="1.5s" repeatCount="indefinite" begin="0.8s"/>
                <animate attributeName="opacity" values="1;0.5;1" dur="1.5s" repeatCount="indefinite" begin="0.8s"/>
              </circle><rect x="80" y="100" width="16" height="16" rx="4" fill="#16a34a"/><circle cx="88" cy="108" r="2" fill="#ca8a04">
                <animate attributeName="r" values="2;6;2" dur="1.5s" repeatCount="indefinite" begin="0.9s"/>
                <animate attributeName="opacity" values="1;0.5;1" dur="1.5s" repeatCount="indefinite" begin="0.9s"/>
              </circle><rect x="100" y="100" width="16" height="16" rx="4" fill="#4ade80"/><rect x="120" y="100" width="16" height="16" rx="4" fill="#16a34a"/><circle cx="128" cy="108" r="2" fill="#ca8a04">
                <animate attributeName="r" values="2;6;2" dur="1.5s" repeatCount="indefinite" begin="1.1s"/>
                <animate attributeName="opacity" values="1;0.5;1" dur="1.5s" repeatCount="indefinite" begin="1.1s"/>
              </circle><rect x="140" y="100" width="16" height="16" rx="4" fill="#4ade80"/><rect x="160" y="100" width="16" height="16" rx="4" fill="#16a34a"/><circle cx="168" cy="108" r="2" fill="#ca8a04">
                <animate attributeName="r" values="2;6;2" dur="1.5s" repeatCount="indefinite" begin="1.3s"/>
                <animate attributeName="opacity" values="1;0.5;1" dur="1.5s" repeatCount="indefinite" begin="1.3s"/>
              </circle><rect x="180" y="100" width="16" height="16" rx="4" fill="#16a34a"/><circle cx="188" cy="108" r="2" fill="#ca8a04">
                <animate attributeName="r" values="2;6;2" dur="1.5s" repeatCount="indefinite" begin="1.4s"/>
                <animate attributeName="opacity" values="1;0.5;1" dur="1.5s" repeatCount="indefinite" begin="1.4s"/>
              </circle><rect x="200" y="100" width="16" height="16" rx="4" fill="#16a34a"/><circle cx="208" cy="108" r="2" fill="#ca8a04">
                <animate attributeName="r" values="2;6;2" dur="1.5s" repeatCount="indefinite" begin="1.5s"/>
                <animate attributeName="opacity" values="1;0.5;1" dur="1.5s" repeatCount="indefinite" begin="1.5s"/>
              </circle><rect x="220" y="100" width="16" height="16" rx="4" fill="#16a34a"/><circle cx="228" cy="108" r="2" fill="#ca8a04">
                <animate attributeName="r" values="2;6;2" dur="1.5s" repeatCount="indefinite" begin="1.6s"/>
                <animate attributeName="opacity" values="1;0.5;1" dur="1.5s" repeatCount="indefinite" begin="1.6s"/>
              </circle><rect x="240" y="100" width="16" height="16" rx="4" fill="#4ade80"/><rect x="260" y="100" width="16" height="16" rx="4" fill="#16a34a"/><circle cx="268" cy="108" r="2" fill="#ca8a04">
                <animate attributeName="r" values="2;6;2" dur="1.5s" repeatCount="indefinite" begin="1.8s"/>
                <animate attributeName="opacity" values="1;0.5;1" dur="1.5s" repeatCount="indefinite" begin="1.8s"/>
              </circle><rect x="280" y="100" width="16" height="16" rx="4" fill="#ca8a04"/><circle cx="288" cy="108" r="2" fill="#ca8a04">
                <animate attributeName="r" values="2;6;2" dur="1.5s" repeatCount="indefinite" begin="1.9s"/>
                <animate attributeName="opacity" values="1;0.5;1" dur="1.5s" repeatCount="indefinite" begin="1.9s"/>
              </circle><rect x="300" y="100" width="16" height="16" rx="4" fill="#4ade80"/><rect x="320" y="100" width="16" height="16" rx="4" fill="#ca8a04"/><circle cx="328" cy="108" r="2" fill="#ca8a04">
                <animate attributeName="r" values="2;6;2" dur="1.5s" repeatCount="indefinite" begin="2.1s"/>
                <animate attributeName="opacity" values="1;0.5;1" dur="1.5s" repeatCount="indefinite" begin="2.1s"/>
              </circle><rect x="340" y="100" width="16" height="16" rx="4" fill="#4ade80"/><rect x="360" y="100" width="16" height="16" rx="4" fill="#16a34a"/><circle cx="368" cy="108" r="2" fill="#ca8a04">
                <animate attributeName="r" values="2;6;2" dur="1.5s" repeatCount="indefinite" begin="2.3s"/>
                <animate attributeName="opacity" values="1;0.5;1" dur="1.5s" repeatCount="indefinite" begin="2.3s"/>
              </circle><rect x="380" y="100" width="16" height="16" rx="4" fill="#ca8a04"/><circle cx="388" cy="108" r="2" fill="#ca8a04">
                <animate attributeName="r" values="2;6;2" dur="1.5s" repeatCount="indefinite" begin="2.4s"/>
                <animate attributeName="opacity" values="1;0.5;1" dur="1.5s" repeatCount="indefinite" begin="2.4s"/>
              </circle><rect x="400" y="100" width="16" height="16" rx="4" fill="#d1d5db"/><rect x="420" y="100" width="16" height="16" rx="4" fill="#d1d5db"/><rect x="440" y="100" width="16" height="16" rx="4" fill="#4ade80"/><rect x="460" y="100" width="16" height="16" rx="4" fill="#4ade80"/><rect x="480" y="100" width="16" height="16" rx="4" fill="#d1d5db"/><rect x="500" y="100" width="16" height="16" rx="4" fill="#16a34a"/><circle cx="508" cy="108" r="2" fill="#ca8a04">
                <animate attributeName="r" values="2;6;2" dur="1.5s" repeatCount="indefinite" begin="3.0s"/>
                <animate attributeName="opacity" values="1;0.5;1" dur="1.5s" repeatCount="indefinite" begin="3.0s"/>
              </circle><rect x="520" y="100" width="16" height="16" rx="4" fill="#ca8a04"/><circle cx="528" cy="108" r="2" fill="#ca8a04">
                <animate attributeName="r" values="2;6;2" dur="1.5s" repeatCount="indefinite" begin="3.1s"/>
                <animate attributeName="opacity" values="1;0.5;1" dur="1.5s" repeatCount="indefinite" begin="3.1s"/>
              </circle><rect x="540" y="100" width="16" height="16" rx="4" fill="#4ade80"/><rect x="0" y="120" width="16" height="16" rx="4" fill="#16a34a"/><circle cx="8" cy="128" r="2" fill="#ca8a04">
                <animate attributeName="r" values="2;6;2" dur="1.5s" repeatCount="indefinite" begin="0.6s"/>
                <animate attributeName="opacity" values="1;0.5;1" dur="1.5s" repeatCount="indefinite" begin="0.6s"/>
              </circle><rect x="20" y="120" width="16" height="16" rx="4" fill="#4ade80"/><rect x="40" y="120" width="16" height="16" rx="4" fill="#4ade80"/><rect x="60" y="120" width="16" height="16" rx="4" fill="#d1d5db"/><rect x="80" y="120" width="16" height="16" rx="4" fill="#16a34a"/><circle cx="88" cy="128" r="2" fill="#ca8a04">
                <animate attributeName="r" values="2;6;2" dur="1.5s" repeatCount="indefinite" begin="1.0s"/>
                <animate attributeName="opacity" values="1;0.5;1" dur="1.5s" repeatCount="indefinite" begin="1.0s"/>
              </circle><rect x="100" y="120" width="16" height="16" rx="4" fill="#4ade80"/><rect x="120" y="120" width="16" height="16" rx="4" fill="#4ade80"/><rect x="140" y="120" width="16" height="16" rx="4" fill="#4ade80"/><rect x="160" y="120" width="16" height="16" rx="4" fill="#4ade80"/><rect x="180" y="120" width="16" height="16" rx="4" fill="#4ade80"/><rect x="200" y="120" width="16" height="16" rx="4" fill="#ca8a04"/><circle cx="208" cy="128" r="2" fill="#ca8a04">
                <animate attributeName="r" values="2;6;2" dur="1.5s" repeatCount="indefinite" begin="1.6s"/>
                <animate attributeName="opacity" values="1;0.5;1" dur="1.5s" repeatCount="indefinite" begin="1.6s"/>
              </circle><rect x="220" y="120" width="16" height="16" rx="4" fill="#16a34a"/><circle cx="228" cy="128" r="2" fill="#ca8a04">
                <animate attributeName="r" values="2;6;2" dur="1.5s" repeatCount="indefinite" begin="1.7s"/>
                <animate attributeName="opacity" values="1;0.5;1" dur="1.5s" repeatCount="indefinite" begin="1.7s"/>
              </circle><rect x="240" y="120" width="16" height="16" rx="4" fill="#ca8a04"/><circle cx="248" cy="128" r="2" fill="#ca8a04">
                <animate attributeName="r" values="2;6;2" dur="1.5s" repeatCount="indefinite" begin="1.8s"/>
                <animate attributeName="opacity" values="1;0.5;1" dur="1.5s" repeatCount="indefinite" begin="1.8s"/>
              </circle><rect x="260" y="120" width="16" height="16" rx="4" fill="#16a34a"/><circle cx="268" cy="128" r="2" fill="#ca8a04">
                <animate attributeName="r" values="2;6;2" dur="1.5s" repeatCount="indefinite" begin="1.9s"/>
                <animate attributeName="opacity" values="1;0.5;1" dur="1.5s" repeatCount="indefinite" begin="1.9s"/>
              </circle><rect x="280" y="120" width="16" height="16" rx="4" fill="#4ade80"/><rect x="300" y="120" width="16" height="16" rx="4" fill="#16a34a"/><circle cx="308" cy="128" r="2" fill="#ca8a04">
                <animate attributeName="r" values="2;6;2" dur="1.5s" repeatCount="indefinite" begin="2.1s"/>
                <animate attributeName="opacity" values="1;0.5;1" dur="1.5s" repeatCount="indefinite" begin="2.1s"/>
              </circle><rect x="320" y="120" width="16" height="16" rx="4" fill="#d1d5db"/><rect x="340" y="120" width="16" height="16" rx="4" fill="#4ade80"/><rect x="360" y="120" width="16" height="16" rx="4" fill="#4ade80"/><rect x="380" y="120" width="16" height="16" rx="4" fill="#4ade80"/><rect x="400" y="120" width="16" height="16" rx="4" fill="#16a34a"/><circle cx="408" cy="128" r="2" fill="#ca8a04">
                <animate attributeName="r" values="2;6;2" dur="1.5s" repeatCount="indefinite" begin="2.6s"/>
                <animate attributeName="opacity" values="1;0.5;1" dur="1.5s" repeatCount="indefinite" begin="2.6s"/>
              </circle><rect x="420" y="120" width="16" height="16" rx="4" fill="#ca8a04"/><circle cx="428" cy="128" r="2" fill="#ca8a04">
                <animate attributeName="r" values="2;6;2" dur="1.5s" repeatCount="indefinite" begin="2.7s"/>
                <animate attributeName="opacity" values="1;0.5;1" dur="1.5s" repeatCount="indefinite" begin="2.7s"/>
              </circle><rect x="440" y="120" width="16" height="16" rx="4" fill="#16a34a"/><circle cx="448" cy="128" r="2" fill="#ca8a04">
                <animate attributeName="r" values="2;6;2" dur="1.5s" repeatCount="indefinite" begin="2.8s"/>
                <animate attributeName="opacity" values="1;0.5;1" dur="1.5s" repeatCount="indefinite" begin="2.8s"/>
              </circle><rect x="460" y="120" width="16" height="16" rx="4" fill="#4ade80"/><rect x="480" y="120" width="16" height="16" rx="4" fill="#d1d5db"/><rect x="500" y="120" width="16" height="16" rx="4" fill="#16a34a"/><circle cx="508" cy="128" r="2" fill="#ca8a04">
                <animate attributeName="r" values="2;6;2" dur="1.5s" repeatCount="indefinite" begin="3.1s"/>
                <animate attributeName="opacity" values="1;0.5;1" dur="1.5s" repeatCount="indefinite" begin="3.1s"/>
              </circle><rect x="520" y="120" width="16" height="16" rx="4" fill="#16a34a"/><circle cx="528" cy="128" r="2" fill="#ca8a04">
                <animate attributeName="r" values="2;6;2" dur="1.5s" repeatCount="indefinite" begin="3.2s"/>
                <animate attributeName="opacity" values="1;0.5;1" dur="1.5s" repeatCount="indefinite" begin="3.2s"/>
              </circle><rect x="540" y="120" width="16" height="16" rx="4" fill="#d1d5db"/></svg>