<svg xmlns="http://www.w3.org/2000/svg"
     viewBox="0 0 560 140"
     width="560"
     height="140"><rect x="0" y="0" width="16" height="16" rx="4" fill="#4ade80"/><rect x="20" y="0" width="16" height="16" rx="4" fill="#ca8a04"/><circle cx="28" cy="8" r="2" fill="#ca8a04">
                <animate attributeName="r" values="2;6;2" dur="1.5s" repeatCount="indefinite" begin="0.15s"/>
                <animate attributeName="opacity" values="1;0.5;1" dur="1.5s" repeatCount="indefinite" begin="0.15s"/>
              </circle><rect x="40" y="0" width="16" height="16" rx="4" fill="#ca8a04"/><circle cx="48" cy="8" r="2" fill="#ca8a04">
                <animate attributeName="r" values="2;6;2" dur="1.5s" repeatCount="indefinite" begin="0.30s"/>
                <animate attributeName="opacity" values="1;0.5;1" dur="1.5s" repeatCount="indefinite" begin="0.30s"/>
              </circle><rect x="60" y="0" width="16" height="16" rx="4" fill="#4ade80"/><rect x="80" y="0" width="16" height="16" rx="4" fill="#d1d5db"/><rect x="100" y="0" width="16" height="16" rx="4" fill="#ca8a04"/><circle cx="108" cy="8" r="2" fill="#ca8a04">
                <animate attributeName="r" values="2;6;2" dur="1.5s" repeatCount="indefinite" begin="0.75s"/>
                <animate attributeName="opacity" values="1;0.5;1" dur="1.5s" repeatCount="indefinite" begin="0.75s"/>
              </circle><rect x="120" y="0" width="16" height="16" rx="4" fill="#ca8a04"/><circle cx="128" cy="8" r="2" fill="#ca8a04">
                <animate attributeName="r" values="2;6;2" dur="1.5s" repeatCount="indefinite" begin="0.90s"/>
                <animate attributeName="opacity" values="1;0.5;1" dur="1.5s" repeatCount="indefinite" begin="0.90s"/>
              </circle><rect x="140" y="0" width="16" height="16" rx="4" fill="#16a34a"/><circle cx="148" cy="8" r="2" fill="#ca8a04">
                <animate attributeName="r" values="2;6;2" dur="1.5s" repeatCount="indefinite" begin="1.05s"/>
                <animate attributeName="opacity" values="1;0.5;1" dur="1.5s" repeatCount="indefinite" begin="1.05s"/>
              </circle><rect x="160" y="0" width="16" height="16" rx="4" fill="#ca8a04"/><circle cx="168" cy="8" r="2" fill="#ca8a04">
                <animate attributeName="r" values="2;6;2" dur="1.5s" repeatCount="indefinite" begin="1.20s"/>
                <animate attributeName="opacity" values="1;0.5;1" dur="1.5s" repeatCount="indefinite" begin="1.20s"/>
              </circle><rect x="180" y="0" width="16" height="16" rx="4" fill="#d1d5db"/><rect x="200" y="0" width="16" height="16" rx="4" fill="#4ade80"/><rect x="220" y="0" width="16" height="16" rx="4" fill="#4ade80"/><rect x="240" y="0" width="16" height="16" rx="4" fill="#16a34a"/><circle cx="248" cy="8" r="2" fill="#ca8a04">
                <animate attributeName="r" values="2;6;2" dur="1.5s" repeatCount="indefinite" begin="1.80s"/>
                <animate attributeName="opacity" values="1;0.5;1" dur="1.5s" repeatCount="indefinite" begin="1.80s"/>
              </circle><rect x="260" y="0" width="16" height="16" rx="4" fill="#16a34a"/><circle cx="268" cy="8" r="2" fill="#ca8a04">
                <animate attributeName="r" values="2;6;2" dur="1.5s" repeatCount="indefinite" begin="1.95s"/>
                <animate attributeName="opacity" values="1;0.5;1" dur="1.5s" repeatCount="indefinite" begin="1.95s"/>
              </circle><rect x="280" y="0" width="16" height="16" rx="4" fill="#16a34a"/><circle cx="288" cy="8" r="2" fill="#ca8a04">
                <animate attributeName="r" values="2;6;2" dur="1.5s" repeatCount="indefinite" begin="2.10s"/>
                <animate attributeName="opacity" values="1;0.5;1" dur="1.5s" repeatCount="indefinite" begin="2.10s"/>
              </circle><rect x="300" y="0" width="16" height="16" rx="4" fill="#d1d5db"/><rect x="320" y="0" width="16" height="16" rx="4" fill="#4ade80"/><rect x="340" y="0" width="16" height="16" rx="4" fill="#ca8a04"/><circle cx="348" cy="8" r="2" fill="#ca8a04">
                <animate attributeName="r" values="2;6;2" dur="1.5s" repeatCount="indefinite" begin="2.55s"/>
                <animate attributeName="opacity" values="1;0.5;1" dur="1.5s" repeatCount="indefinite" begin="2.55s"/>
              </circle><rect x="360" y="0" width="16" height="16" rx="4" fill="#ca8a04"/><circle cx="368" cy="8" r="2" fill="#ca8a04">
                <animate attributeName="r" values="2;6;2" dur="1.5s" repeatCount="indefinite" begin="2.70s"/>
                <animate attributeName="opacity" values="1;0.5;1" dur="1.5s" repeatCount="indefinite" begin="2.70s"/>
              </circle><rect x="380" y="0" width="16" height="16" rx="4" fill="#4ade80"/><rect x="400" y="0" width="16" height="16" rx="4" fill="#16a34a"/><circle cx="408" cy="8" r="2" fill="#ca8a04">
                <animate attributeName="r" values="2;6;2" dur="1.5s" repeatCount="indefinite" begin="3.00s"/>
                <animate attributeName="opacity" values="1;0.5;1" dur="1.5s" repeatCount="indefinite" begin="3.00s"/>
              </circle><rect x="420" y="0" width="16" height="16" rx="4" fill="#16a34a"/><circle cx="428" cy="8" r="2" fill="#ca8a04">
                <animate attributeName="r" values="2;6;2" dur="1.5s" repeatCount="indefinite" begin="3.15s"/>
                <animate attributeName="opacity" values="1;0.5;1" dur="1.5s" repeatCount="indefinite" begin="3.15s"/>
              </circle><rect x="440" y="0" width="16" height="16" rx="4" fill="#ca8a04"/><circle cx="448" cy="8" r="2" fill="#ca8a04">
                <animate attributeName="r" values="2;6;2" dur="1.5s" repeatCount="indefinite" begin="3.30s"/>
                <animate attributeName="opacity" values="1;0.5;1" dur="1.5s" repeatCount="indefinite" begin="3.30s"/>
              </circle><rect x="460" y="0" width="16" height="16" rx="4" fill="#d1d5db"/><rect x="480" y="0" width="16" height="16" rx="4" fill="#16a34a"/><circle cx="488" cy="8" r="2" fill="#ca8a04">
                <animate attributeName="r" values="2;6;2" dur="1.5s" repeatCount="indefinite" begin="3.60s"/>
                <animate attributeName="opacity" values="1;0.5;1" dur="1.5s" repeatCount="indefinite" begin="3.60s"/>
              </circle><rect x="500" y="0" width="16" height="16" rx="4" fill="#4ade80"/><rect x="520" y="0" width="16" height="16" rx="4" fill="#16a34a"/><circle cx="528" cy="8" r="2" fill="#ca8a04">
                <animate attributeName="r" values="2;6;2" dur="1.5s" repeatCount="indefinite" begin="3.90s"/>
                <animate attributeName="opacity" values="1;0.5;1" dur="1.5s" repeatCount="indefinite" begin="3.90s"/>
              </circle><rect x="540" y="0" width="16" height="16" rx="4" fill="#d1d5db"/><rect x="0" y="20" width="16" height="16" rx="4" fill="#4ade80"/><rect x="20" y="20" width="16" height="16" rx="4" fill="#ca8a04"/><circle cx="28" cy="28" r="2" fill="#ca8a04">
                <animate attributeName="r" values="2;6;2" dur="1.5s" repeatCount="indefinite" begin="0.30s"/>
                <animate attributeName="opacity" values="1;0.5;1" dur="1.5s" repeatCount="indefinite" begin="0.30s"/>
              </circle><rect x="40" y="20" width="16" height="16" rx="4" fill="#d1d5db"/><rect x="60" y="20" width="16" height="16" rx="4" fill="#ca8a04"/><circle cx="68" cy="28" r="2" fill="#ca8a04">
                <animate attributeName="r" values="2;6;2" dur="1.5s" repeatCount="indefinite" begin="0.60s"/>
                <animate attributeName="opacity" values="1;0.5;1" dur="1.5s" repeatCount="indefinite" begin="0.60s"/>
              </circle><rect x="80" y="20" width="16" height="16" rx="4" fill="#ca8a04"/><circle cx="88" cy="28" r="2" fill="#ca8a04">
                <animate attributeName="r" values="2;6;2" dur="1.5s" repeatCount="indefinite" begin="0.75s"/>
                <animate attributeName="opacity" values="1;0.5;1" dur="1.5s" repeatCount="indefinite" begin="0.75s"/>
              </circle><rect x="100" y="20" width="16" height="16" rx="4" fill="#ca8a04"/><circle cx="108" cy="28" r="2" fill="#ca8a04">
                <animate attributeName="r" values="2;6;2" dur="1.5s" repeatCount="indefinite" begin="0.90s"/>
                <animate attributeName="opacity" values="1;0.5;1" dur="1.5s" repeatCount="indefinite" begin="0.90s"/>
              </circle><rect x="120" y="20" width="16" height="16" rx="4" fill="#ca8a04"/><circle cx="128" cy="28" r="2" fill="#ca8a04">
                <animate attributeName="r" values="2;6;2" dur="1.5s" repeatCount="indefinite" begin="1.05s"/>
                <animate attributeName="opacity" values="1;0.5;1" dur="1.5s" repeatCount="indefinite" begin="1.05s"/>
              </circle><rect x="140" y="20" width="16" height="16" rx="4" fill="#16a34a"/><circle cx="148" cy="28" r="2" fill="#ca8a04">
                <animate attributeName="r" values="2;6;2" dur="1.5s" repeatCount="indefinite" begin="1.20s"/>
                <animate attributeName="opacity" values="1;0.5;1" dur="1.5s" repeatCount="indefinite" begin="1.20s"/>
              </circle><rect x="160" y="20" width="16" height="16" rx="4" fill="#16a34a"/><circle cx="168" cy="28" r="2" fill="#ca8a04">
                <animate attributeName="r" values="2;6;2" dur="1.5s" repeatCount="indefinite" begin="1.35s"/>
                <animate attributeName="opacity" values="1;0.5;1" dur="1.5s" repeatCount="indefinite" begin="1.35s"/>
              </circle><rect x="180" y="20" width="16" height="16" rx="4" fill="#16a34a"/><circle cx="188" cy="28" r="2" fill="#ca8a04">
                <animate attributeName="r" values="2;6;2" dur="1.5s" repeatCount="indefinite" begin="1.50s"/>
                <animate attributeName="opacity" values="1;0.5;1" dur="1.5s" repeatCount="indefinite" begin="1.50s"/>
              </circle><rect x="200" y="20" width="16" height="16" rx="4" fill="#ca8a04"/><circle cx="208" cy="28" r="2" fill="#ca8a04">
                <animate attributeName="r" values="2;6;2" dur="1.5s" repeatCount="indefinite" begin="1.65s"/>
                <animate attributeName="opacity" values="1;0.5;1" dur="1.5s" repeatCount="indefinite" begin="1.65s"/>
              </circle><rect x="220" y="20" width="16" height="16" rx="4" fill="#d1d5db"/><rect x="240" y="20" width="16" height="16" rx="4" fill="#16a34a"/><circle cx="248" cy="28" r="2" fill="#ca8a04">
                <animate attributeName="r" values="2;6;2" dur="1.5s" repeatCount="indefinite" begin="1.95s"/>
                <animate attributeName="opacity" values="1;0.5;1" dur="1.5s" repeatCount="indefinite" begin="1.95s"/>
              </circle><rect x="260" y="20" width="16" height="16" rx="4" fill="#16a34a"/><circle cx="268" cy="28" r="2" fill="#ca8a04">
                <animate attributeName="r" values="2;6;2" dur="1.5s" repeatCount="indefinite" begin="2.10s"/>
                <animate attributeName="opacity" values="1;0.5;1" dur="1.5s" repeatCount="indefinite" begin="2.10s"/>
              </circle><rect x="280" y="20" width="16" height="16" rx="4" fill="#d1d5db"/><rect x="300" y="20" width="16" height="16" rx="4" fill="#16a34a"/><circle cx="308" cy="28" r="2" fill="#ca8a04">
                <animate attributeName="r" values="2;6;2" dur="1.5s" repeatCount="indefinite" begin="2.40s"/>
                <animate attributeName="opacity" values="1;0.5;1" dur="1.5s" repeatCount="indefinite" begin="2.40s"/>
              </circle><rect x="320" y="20" width="16" height="16" rx="4" fill="#4ade80"/><rect x="340" y="20" width="16" height="16" rx="4" fill="#ca8a04"/><circle cx="348" cy="28" r="2" fill="#ca8a04">
                <animate attributeName="r" values="2;6;2" dur="1.5s" repeatCount="indefinite" begin="2.70s"/>
                <animate attributeName="opacity" values="1;0.5;1" dur="1.5s" repeatCount="indefinite" begin="2.70s"/>
              </circle><rect x="360" y="20" width="16" height="16" rx="4" fill="#4ade80"/><rect x="380" y="20" width="16" height="16" rx="4" fill="#16a34a"/><circle cx="388" cy="28" r="2" fill="#ca8a04">
                <animate attributeName="r" values="2;6;2" dur="1.5s" repeatCount="indefinite" begin="3.00s"/>
                <animate attributeName="opacity" values="1;0.5;1" dur="1.5s" repeatCount="indefinite" begin="3.00s"/>
              </circle><rect x="400" y="20" width="16" height="16" rx="4" fill="#4ade80"/><rect x="420" y="20" width="16" height="16" rx="4" fill="#ca8a04"/><circle cx="428" cy="28" r="2" fill="#ca8a04">
                <animate attributeName="r" values="2;6;2" dur="1.5s" repeatCount="indefinite" begin="3.30s"/>
                <animate attributeName="opacity" values="1;0.5;1" dur="1.5s" repeatCount="indefinite" begin="3.30s"/>
              </circle><rect x="440" y="20" width="16" height="16" rx="4" fill="#16a34a"/><circle cx="448" cy="28" r="2" fill="#ca8a04">
                <animate attributeName="r" values="2;6;2" dur="1.5s" repeatCount="indefinite" begin="3.45s"/>
                <animate attributeName="opacity" values="1;0.5;1" dur="1.5s" repeatCount="indefinite" begin="3.45s"/>
              </circle><rect x="460" y="20" width="16" height="16" rx="4" fill="#16a34a"/><circle cx="468" cy="28" r="2" fill="#ca8a04">
                <animate attributeName="r" values="2;6;2" dur="1.5s" repeatCount="indefinite" begin="3.60s"/>
                <animate attributeName="opacity" values="1;0.5;1" dur="1.5s" repeatCount="indefinite" begin="3.60s"/>
              </circle><rect x="480" y="20" width="16" height="16" rx="4" fill="#4ade80"/><rect x="500" y="20" width="16" height="16" rx="4" fill="#ca8a04"/><circle cx="508" cy="28" r="2" fill="#ca8a04">
                <animate attributeName="r" values="2;6;2" dur="1.5s" repeatCount="indefinite" begin="3.90s"/>
                <animate attributeName="opacity" values="1;0.5;1" dur="1.5s" repeatCount="indefinite" begin="3.90s"/>
              </circle><rect x="520" y="20" width="16" height="16" rx="4" fill="#ca8a04"/><circle cx="528" cy="28" r="2" fill="#ca8a04">
                <animate attributeName="r" values="2;6;2" dur="1.5s" repeatCount="indefinite" begin="4.05s"/>
                <animate attributeName="opacity" values="1;0.5;1" dur="1.5s" repeatCount="indefinite" begin="4.05s"/>
              </circle><rect x="540" y="20" width="16" height="16" rx="4" fill="#d1d5db"/><rect x="0" y="40" width="16" height="16" rx="4" fill="#4ade80"/><rect x="20" y="40" width="16" height="16" rx="4" fill="#4ade80"/><rect x="40" y="40" width="16" height="16" rx="4" fill="#16a34a"/><circle cx="48" cy="48" r="2" fill="#ca8a04">
                <animate attributeName="r" values="2;6;2" dur="1.5s" repeatCount="indefinite" begin="0.60s"/>
                <animate attributeName="opacity" values="1;0.5;1" dur="1.5s" repeatCount="indefinite" begin="0.60s"/>
              </circle><rect x="60" y="40" width="16" height="16" rx="4" fill="#ca8a04"/><circle cx="68" cy="48" r="2" fill="#ca8a04">
                <animate attributeName="r" values="2;6;2" dur="1.5s" repeatCount="indefinite" begin="0.75s"/>
                <animate attributeName="opacity" values="1;0.5;1" dur="1.5s" repeatCount="indefinite" begin="0.75s"/>
              </circle><rect x="80" y="40" width="16" height="16" rx="4" fill="#ca8a04"/><circle cx="88" cy="48" r="2" fill="#ca8a04">
                <animate attributeName="r" values="2;6;2" dur="1.5s" repeatCount="indefinite" begin="0.90s"/>
                <animate attributeName="opacity" values="1;0.5;1" dur="1.5s" repeatCount="indefinite" begin="0.90s"/>
              </circle><rect x="100" y="40" width="16" height="16" rx="4" fill="#d1d5db"/><rect x="120" y="40" width="16" height="16" rx="4" fill="#4ade80"/><rect x="140" y="40" width="16" height="16" rx="4" fill="#4ade80"/><rect x="160" y="40" width="16" height="16" rx="4" fill="#16a34a"/><circle cx="168" cy="48" r="2" fill="#ca8a04">
                <animate attributeName="r" values="2;6;2" dur="1.5s" repeatCount="indefinite" begin="1.50s"/>
                <animate attributeName="opacity" values="1;0.5;1" dur="1.5s" repeatCount="indefinite" begin="1.50s"/>
              </circle><rect x="180" y="40" width="16" height="16" rx="4" fill="#16a34a"/><circle cx="188" cy="48" r="2" fill="#ca8a04">
                <animate attributeName="r" values="2;6;2" dur="1.5s" repeatCount="indefinite" begin="1.65s"/>
                <animate attributeName="opacity" values="1;0.5;1" dur="1.5s" repeatCount="indefinite" begin="1.65s"/>
              </circle><rect x="200" y="40" width="16" height="16" rx="4" fill="#4ade80"/><rect x="220" y="40" width="16" height="16" rx="4" fill="#4ade80"/><rect x="240" y="40" width="16" height="16" rx="4" fill="#16a34a"/><circle cx="248" cy="48" r="2" fill="#ca8a04">
                <animate attributeName="r" values="2;6;2" dur="1.5s" repeatCount="indefinite" begin="2.10s"/>
                <animate attributeName="opacity" values="1;0.5;1" dur="1.5s" repeatCount="indefinite" begin="2.10s"/>
              </circle><rect x="260" y="40" width="16" height="16" rx="4" fill="#16a34a"/><circle cx="268" cy="48" r="2" fill="#ca8a04">
                <animate attributeName="r" values="2;6;2" dur="1.5s" repeatCount="indefinite" begin="2.25s"/>
                <animate attributeName="opacity" values="1;0.5;1" dur="1.5s" repeatCount="indefinite" begin="2.25s"/>
              </circle><rect x="280" y="40" width="16" height="16" rx="4" fill="#d1d5db"/><rect x="300" y="40" width="16" height="16" rx="4" fill="#4ade80"/><rect x="320" y="40" width="16" height="16" rx="4" fill="#ca8a04"/><circle cx="328" cy="48" r="2" fill="#ca8a04">
                <animate attributeName="r" values="2;6;2" dur="1.5s" repeatCount="indefinite" begin="2.70s"/>
                <animate attributeName="opacity" values="1;0.5;1" dur="1.5s" repeatCount="indefinite" begin="2.70s"/>
              </circle><rect x="340" y="40" width="16" height="16" rx="4" fill="#ca8a04"/><circle cx="348" cy="48" r="2" fill="#ca8a04">
                <animate attributeName="r" values="2;6;2" dur="1.5s" repeatCount="indefinite" begin="2.85s"/>
                <animate attributeName="opacity" values="1;0.5;1" dur="1.5s" repeatCount="indefinite" begin="2.85s"/>
              </circle><rect x="360" y="40" width="16" height="16" rx="4" fill="#16a34a"/><circle cx="368" cy="48" r="2" fill="#ca8a04">
                <animate attributeName="r" values="2;6;2" dur="1.5s" repeatCount="indefinite" begin="3.00s"/>
                <animate attributeName="opacity" values="1;0.5;1" dur="1.5s" repeatCount="indefinite" begin="3.00s"/>
              </circle><rect x="380" y="40" width="16" height="16" rx="4" fill="#4ade80"/><rect x="400" y="40" width="16" height="16" rx="4" fill="#ca8a04"/><circle cx="408" cy="48" r="2" fill="#ca8a04">
                <animate attributeName="r" values="2;6;2" dur="1.5s" repeatCount="indefinite" begin="3.30s"/>
                <animate attributeName="opacity" values="1;0.5;1" dur="1.5s" repeatCount="indefinite" begin="3.30s"/>
              </circle><rect x="420" y="40" width="16" height="16" rx="4" fill="#ca8a04"/><circle cx="428" cy="48" r="2" fill="#ca8a04">
                <animate attributeName="r" values="2;6;2" dur="1.5s" repeatCount="indefinite" begin="3.45s"/>
                <animate attributeName="opacity" values="1;0.5;1" dur="1.5s" repeatCount="indefinite" begin="3.45s"/>
              </circle><rect x="440" y="40" width="16" height="16" rx="4" fill="#16a34a"/><circle cx="448" cy="48" r="2" fill="#ca8a04">
                <animate attributeName="r" values="2;6;2" dur="1.5s" repeatCount="indefinite" begin="3.60s"/>
                <animate attributeName="opacity" values="1;0.5;1" dur="1.5s" repeatCount="indefinite" begin="3.60s"/>
              </circle><rect x="460" y="40" width="16" height="16" rx="4" fill="#4ade80"/><rect x="480" y="40" width="16" height="16" rx="4" fill="#4ade80"/><rect x="500" y="40" width="16" height="16" rx="4" fill="#ca8a04"/><circle cx="508" cy="48" r="2" fill="#ca8a04">
                <animate attributeName="r" values="2;6;2" dur="1.5s" repeatCount="indefinite" begin="4.05s"/>
                <animate attributeName="opacity" values="1;0.5;1" dur="1.5s" repeatCount="indefinite" begin="4.05s"/>
              </circle><rect x="520" y="40" width="16" height="16" rx="4" fill="#4ade80"/><rect x="540" y="40" width="16" height="16" rx="4" fill="#4ade80"/><rect x="0" y="60" width="16" height="16" rx="4" fill="#d1d5db"/><rect x="20" y="60" width="16" height="16" rx="4" fill="#16a34a"/><circle cx="28" cy="68" r="2" fill="#ca8a04">
                <animate attributeName="r" values="2;6;2" dur="1.5s" repeatCount="indefinite" begin="0.60s"/>
                <animate attributeName="opacity" values="1;0.5;1" dur="1.5s" repeatCount="indefinite" begin="0.60s"/>
              </circle><rect x="40" y="60" width="16" height="16" rx="4" fill="#16a34a"/><circle cx="48" cy="68" r="2" fill="#ca8a04">
                <animate attributeName="r" values="2;6;2" dur="1.5s" repeatCount="indefinite" begin="0.75s"/>
                <animate attributeName="opacity" values="1;0.5;1" dur="1.5s" repeatCount="indefinite" begin="0.75s"/>
              </circle><rect x="60" y="60" width="16" height="16" rx="4" fill="#d1d5db"/><rect x="80" y="60" width="16" height="16" rx="4" fill="#ca8a04"/><circle cx="88" cy="68" r="2" fill="#ca8a04">
                <animate attributeName="r" values="2;6;2" dur="1.5s" repeatCount="indefinite" begin="1.05s"/>
                <animate attributeName="opacity" values="1;0.5;1" dur="1.5s" repeatCount="indefinite" begin="1.05s"/>
              </circle><rect x="100" y="60" width="16" height="16" rx="4" fill="#d1d5db"/><rect x="120" y="60" width="16" height="16" rx="4" fill="#4ade80"/><rect x="140" y="60" width="16" height="16" rx="4" fill="#ca8a04"/><circle cx="148" cy="68" r="2" fill="#ca8a04">
                <animate attributeName="r" values="2;6;2" dur="1.5s" repeatCount="indefinite" begin="1.50s"/>
                <animate attributeName="opacity" values="1;0.5;1" dur="1.5s" repeatCount="indefinite" begin="1.50s"/>
              </circle><rect x="160" y="60" width="16" height="16" rx="4" fill="#16a34a"/><circle cx="168" cy="68" r="2" fill="#ca8a04">
                <animate attributeName="r" values="2;6;2" dur="1.5s" repeatCount="indefinite" begin="1.65s"/>
                <animate attributeName="opacity" values="1;0.5;1" dur="1.5s" repeatCount="indefinite" begin="1.65s"/>
              </circle><rect x="180" y="60" width="16" height="16" rx="4" fill="#4ade80"/><rect x="200" y="60" width="16" height="16" rx="4" fill="#4ade80"/><rect x="220" y="60" width="16" height="16" rx="4" fill="#16a34a"/><circle cx="228" cy="68" r="2" fill="#ca8a04">
                <animate attributeName="r" values="2;6;2" dur="1.5s" repeatCount="indefinite" begin="2.10s"/>
                <animate attributeName="opacity" values="1;0.5;1" dur="1.5s" repeatCount="indefinite" begin="2.10s"/>
              </circle><rect x="240" y="60" width="16" height="16" rx="4" fill="#d1d5db"/><rect x="260" y="60" width="16" height="16" rx="4" fill="#4ade80"/><rect x="280" y="60" width="16" height="16" rx="4" fill="#16a34a"/><circle cx="288" cy="68" r="2" fill="#ca8a04">
                <animate attributeName="r" values="2;6;2" dur="1.5s" repeatCount="indefinite" begin="2.55s"/>
                <animate attributeName="opacity" values="1;0.5;1" dur="1.5s" repeatCount="indefinite" begin="2.55s"/>
              </circle><rect x="300" y="60" width="16" height="16" rx="4" fill="#ca8a04"/><circle cx="308" cy="68" r="2" fill="#ca8a04">
                <animate attributeName="r" values="2;6;2" dur="1.5s" repeatCount="indefinite" begin="2.70s"/>
                <animate attributeName="opacity" values="1;0.5;1" dur="1.5s" repeatCount="indefinite" begin="2.70s"/>
              </circle><rect x="320" y="60" width="16" height="16" rx="4" fill="#ca8a04"/><circle cx="328" cy="68" r="2" fill="#ca8a04">
                <animate attributeName="r" values="2;6;2" dur="1.5s" repeatCount="indefinite" begin="2.85s"/>
                <animate attributeName="opacity" values="1;0.5;1" dur="1.5s" repeatCount="indefinite" begin="2.85s"/>
              </circle><rect x="340" y="60" width="16" height="16" rx="4" fill="#4ade80"/><rect x="360" y="60" width="16" height="16" rx="4" fill="#16a34a"/><circle cx="368" cy="68" r="2" fill="#ca8a04">
                <animate attributeName="r" values="2;6;2" dur="1.5s" repeatCount="indefinite" begin="3.15s"/>
                <animate attributeName="opacity" values="1;0.5;1" dur="1.5s" repeatCount="indefinite" begin="3.15s"/>
              </circle><rect x="380" y="60" width="16" height="16" rx="4" fill="#4ade80"/><rect x="400" y="60" width="16" height="16" rx="4" fill="#16a34a"/><circle cx="408" cy="68" r="2" fill="#ca8a04">
                <animate attributeName="r" values="2;6;2" dur="1.5s" repeatCount="indefinite" begin="3.45s"/>
                <animate attributeName="opacity" values="1;0.5;1" dur="1.5s" repeatCount="indefinite" begin="3.45s"/>
              </circle><rect x="420" y="60" width="16" height="16" rx="4" fill="#4ade80"/><rect x="440" y="60" width="16" height="16" rx="4" fill="#d1d5db"/><rect x="460" y="60" width="16" height="16" rx="4" fill="#16a34a"/><circle cx="468" cy="68" r="2" fill="#ca8a04">
                <animate attributeName="r" values="2;6;2" dur="1.5s" repeatCount="indefinite" begin="3.90s"/>
                <animate attributeName="opacity" values="1;0.5;1" dur="1.5s" repeatCount="indefinite" begin="3.90s"/>
              </circle><rect x="480" y="60" width="16" height="16" rx="4" fill="#4ade80"/><rect x="500" y="60" width="16" height="16" rx="4" fill="#16a34a"/><circle cx="508" cy="68" r="2" fill="#ca8a04">
                <animate attributeName="r" values="2;6;2" dur="1.5s" repeatCount="indefinite" begin="4.20s"/>
                <animate attributeName="opacity" values="1;0.5;1" dur="1.5s" repeatCount="indefinite" begin="4.20s"/>
              </circle><rect x="520" y="60" width="16" height="16" rx="4" fill="#d1d5db"/><rect x="540" y="60" width="16" height="16" rx="4" fill="#ca8a04"/><circle cx="548" cy="68" r="2" fill="#ca8a04">
                <animate attributeName="r" values="2;6;2" dur="1.5s" repeatCount="indefinite" begin="4.50s"/>
                <animate attributeName="opacity" values="1;0.5;1" dur="1.5s" repeatCount="indefinite" begin="4.50s"/>
              </circle><rect x="0" y="80" width="16" height="16" rx="4" fill="#16a34a"/><circle cx="8" cy="88" r="2" fill="#ca8a04">
                <animate attributeName="r" values="2;6;2" dur="1.5s" repeatCount="indefinite" begin="0.60s"/>
                <animate attributeName="opacity" values="1;0.5;1" dur="1.5s" repeatCount="indefinite" begin="0.60s"/>
              </circle><rect x="20" y="80" width="16" height="16" rx="4" fill="#16a34a"/><circle cx="28" cy="88" r="2" fill="#ca8a04">
                <animate attributeName="r" values="2;6;2" dur="1.5s" repeatCount="indefinite" begin="0.75s"/>
                <animate attributeName="opacity" values="1;0.5;1" dur="1.5s" repeatCount="indefinite" begin="0.75s"/>
              </circle><rect x="40" y="80" width="16" height="16" rx="4" fill="#ca8a04"/><circle cx="48" cy="88" r="2" fill="#ca8a04">
                <animate attributeName="r" values="2;6;2" dur="1.5s" repeatCount="indefinite" begin="0.90s"/>
                <animate attributeName="opacity" values="1;0.5;1" dur="1.5s" repeatCount="indefinite" begin="0.90s"/>
              </circle><rect x="60" y="80" width="16" height="16" rx="4" fill="#16a34a"/><circle cx="68" cy="88" r="2" fill="#ca8a04">
                <animate attributeName="r" values="2;6;2" dur="1.5s" repeatCount="indefinite" begin="1.05s"/>
                <animate attributeName="opacity" values="1;0.5;1" dur="1.5s" repeatCount="indefinite" begin="1.05s"/>
              </circle><rect x="80" y="80" width="16" height="16" rx="4" fill="#16a34a"/><circle cx="88" cy="88" r="2" fill="#ca8a04">
                <animate attributeName="r" values="2;6;2" dur="1.5s" repeatCount="indefinite" begin="1.20s"/>
                <animate attributeName="opacity" values="1;0.5;1" dur="1.5s" repeatCount="indefinite" begin="1.20s"/>
              </circle><rect x="100" y="80" width="16" height="16" rx="4" fill="#ca8a04"/><circle cx="108" cy="88" r="2" fill="#ca8a04">
                <animate attributeName="r" values="2;6;2" dur="1.5s" repeatCount="indefinite" begin="1.35s"/>
                <animate attributeName="opacity" values="1;0.5;1" dur="1.5s" repeatCount="indefinite" begin="1.35s"/>
              </circle><rect x="120" y="80" width="16" height="16" rx="4" fill="#4ade80"/><rect x="140" y="80" width="16" height="16" rx="4" fill="#4ade80"/><rect x="160" y="80" width="16" height="16" rx="4" fill="#4ade80"/><rect x="180" y="80" width="16" height="16" rx="4" fill="#16a34a"/><circle cx="188" cy="88" r="2" fill="#ca8a04">
                <animate attributeName="r" values="2;6;2" dur="1.5s" repeatCount="indefinite" begin="1.95s"/>
                <animate attributeName="opacity" values="1;0.5;1" dur="1.5s" repeatCount="indefinite" begin="1.95s"/>
              </circle><rect x="200" y="80" width="16" height="16" rx="4" fill="#4ade80"/><rect x="220" y="80" width="16" height="16" rx="4" fill="#4ade80"/><rect x="240" y="80" width="16" height="16" rx="4" fill="#16a34a"/><circle cx="248" cy="88" r="2" fill="#ca8a04">
                <animate attributeName="r" values="2;6;2" dur="1.5s" repeatCount="indefinite" begin="2.40s"/>
                <animate attributeName="opacity" values="1;0.5;1" dur="1.5s" repeatCount="indefinite" begin="2.40s"/>
              </circle><rect x="260" y="80" width="16" height="16" rx="4" fill="#16a34a"/><circle cx="268" cy="88" r="2" fill="#ca8a04">
                <animate attributeName="r" values="2;6;2" dur="1.5s" repeatCount="indefinite" begin="2.55s"/>
                <animate attributeName="opacity" values="1;0.5;1" dur="1.5s" repeatCount="indefinite" begin="2.55s"/>
              </circle><rect x="280" y="80" width="16" height="16" rx="4" fill="#16a34a"/><circle cx="288" cy="88" r="2" fill="#ca8a04">
                <animate attributeName="r" values="2;6;2" dur="1.5s" repeatCount="indefinite" begin="2.70s"/>
                <animate attributeName="opacity" values="1;0.5;1" dur="1.5s" repeatCount="indefinite" begin="2.70s"/>
              </circle><rect x="300" y="80" width="16" height="16" rx="4" fill="#4ade80"/><rect x="320" y="80" width="16" height="16" rx="4" fill="#4ade80"/><rect x="340" y="80" width="16" height="16" rx="4" fill="#d1d5db"/><rect x="360" y="80" width="16" height="16" rx="4" fill="#d1d5db"/><rect x="380" y="80" width="16" height="16" rx="4" fill="#16a34a"/><circle cx="388" cy="88" r="2" fill="#ca8a04">
                <animate attributeName="r" values="2;6;2" dur="1.5s" repeatCount="indefinite" begin="3.45s"/>
                <animate attributeName="opacity" values="1;0.5;1" dur="1.5s" repeatCount="indefinite" begin="3.45s"/>
              </circle><rect x="400" y="80" width="16" height="16" rx="4" fill="#4ade80"/><rect x="420" y="80" width="16" height="16" rx="4" fill="#16a34a"/><circle cx="428" cy="88" r="2" fill="#ca8a04">
                <animate attributeName="r" values="2;6;2" dur="1.5s" repeatCount="indefinite" begin="3.75s"/>
                <animate attributeName="opacity" values="1;0.5;1" dur="1.5s" repeatCount="indefinite" begin="3.75s"/>
              </circle><rect x="440" y="80" width="16" height="16" rx="4" fill="#16a34a"/><circle cx="448" cy="88" r="2" fill="#ca8a04">
                <animate attributeName="r" values="2;6;2" dur="1.5s" repeatCount="indefinite" begin="3.90s"/>
                <animate attributeName="opacity" values="1;0.5;1" dur="1.5s" repeatCount="indefinite" begin="3.90s"/>
              </circle><rect x="460" y="80" width="16" height="16" rx="4" fill="#ca8a04"/><circle cx="468" cy="88" r="2" fill="#ca8a04">
                <animate attributeName="r" values="2;6;2" dur="1.5s" repeatCount="indefinite" begin="4.05s"/>
                <animate attributeName="opacity" values="1;0.5;1" dur="1.5s" repeatCount="indefinite" begin="4.05s"/>
              </circle><rect x="480" y="80" width="16" height="16" rx="4" fill="#4ade80"/><rect x="500" y="80" width="16" height="16" rx="4" fill="#4ade80"/><rect x="520" y="80" width="16" height="16" rx="4" fill="#d1d5db"/><rect x="540" y="80" width="16" height="16" rx="4" fill="#4ade80"/><rect x="0" y="100" width="16" height="16" rx="4" fill="#16a34a"/><circle cx="8" cy="108" r="2" fill="#ca8a04">
                <animate attributeName="r" values="2;6;2" dur="1.5s" repeatCount="indefinite" begin="0.75s"/>
                <animate attributeName="opacity" values="1;0.5;1" dur="1.5s" repeatCount="indefinite" begin="0.75s"/>
              </circle><rect x="20" y="100" width="16" height="16" rx="4" fill="#16a34a"/><circle cx="28" cy="108" r="2" fill="#ca8a04">
                <animate attributeName="r" values="2;6;2" dur="1.5s" repeatCount="indefinite" begin="0.90s"/>
                <animate attributeName="opacity" values="1;0.5;1" dur="1.5s" repeatCount="indefinite" begin="0.90s"/>
              </circle><rect x="40" y="100" width="16" height="16" rx="4" fill="#ca8a04"/><circle cx="48" cy="108" r="2" fill="#ca8a04">
                <animate attributeName="r" values="2;6;2" dur="1.5s" repeatCount="indefinite" begin="1.05s"/>
                <animate attributeName="opacity" values="1;0.5;1" dur="1.5s" repeatCount="indefinite" begin="1.05s"/>
              </circle><rect x="60" y="100" width="16" height="16" rx="4" fill="#ca8a04"/><circle cx="68" cy="108" r="2" fill="#ca8a04">
                <animate attributeName="r" values="2;6;2" dur="1.5s" repeatCount="indefinite" begin="1.20s"/>
                <animate attributeName="opacity" values="1;0.5;1" dur="1.5s" repeatCount="indefinite" begin="1.20s"/>
              </circle><rect x="80" y="100" width="16" height="16" rx="4" fill="#ca8a04"/><circle cx="88" cy="108" r="2" fill="#ca8a04">
                <animate attributeName="r" values="2;6;2" dur="1.5s" repeatCount="indefinite" begin="1.35s"/>
                <animate attributeName="opacity" values="1;0.5;1" dur="1.5s" repeatCount="indefinite" begin="1.35s"/>
              </circle><rect x="100" y="100" width="16" height="16" rx="4" fill="#ca8a04"/><circle cx="108" cy="108" r="2" fill="#ca8a04">
                <animate attributeName="r" values="2;6;2" dur="1.5s" repeatCount="indefinite" begin="1.50s"/>
                <animate attributeName="opacity" values="1;0.5;1" dur="1.5s" repeatCount="indefinite" begin="1.50s"/>
              </circle><rect x="120" y="100" width="16" height="16" rx="4" fill="#4ade80"/><rect x="140" y="100" width="16" height="16" rx="4" fill="#ca8a04"/><circle cx="148" cy="108" r="2" fill="#ca8a04">
                <animate attributeName="r" values="2;6;2" dur="1.5s" repeatCount="indefinite" begin="1.80s"/>
                <animate attributeName="opacity" values="1;0.5;1" dur="1.5s" repeatCount="indefinite" begin="1.80s"/>
              </circle><rect x="160" y="100" width="16" height="16" rx="4" fill="#4ade80"/><rect x="180" y="100" width="16" height="16" rx="4" fill="#d1d5db"/><rect x="200" y="100" width="16" height="16" rx="4" fill="#16a34a"/><circle cx="208" cy="108" r="2" fill="#ca8a04">
                <animate attributeName="r" values="2;6;2" dur="1.5s" repeatCount="indefinite" begin="2.25s"/>
                <animate attributeName="opacity" values="1;0.5;1" dur="1.5s" repeatCount="indefinite" begin="2.25s"/>
              </circle><rect x="220" y="100" width="16" height="16" rx="4" fill="#d1d5db"/><rect x="240" y="100" width="16" height="16" rx="4" fill="#ca8a04"/><circle cx="248" cy="108" r="2" fill="#ca8a04">
                <animate attributeName="r" values="2;6;2" dur="1.5s" repeatCount="indefinite" begin="2.55s"/>
                <animate attributeName="opacity" values="1;0.5;1" dur="1.5s" repeatCount="indefinite" begin="2.55s"/>
              </circle><rect x="260" y="100" width="16" height="16" rx="4" fill="#16a34a"/><circle cx="268" cy="108" r="2" fill="#ca8a04">
                <animate attributeName="r" values="2;6;2" dur="1.5s" repeatCount="indefinite" begin="2.70s"/>
                <animate attributeName="opacity" values="1;0.5;1" dur="1.5s" repeatCount="indefinite" begin="2.70s"/>
              </circle><rect x="280" y="100" width="16" height="16" rx="4" fill="#d1d5db"/><rect x="300" y="100" width="16" height="16" rx="4" fill="#d1d5db"/><rect x="320" y="100" width="16" height="16" rx="4" fill="#ca8a04"/><circle cx="328" cy="108" r="2" fill="#ca8a04">
                <animate attributeName="r" values="2;6;2" dur="1.5s" repeatCount="indefinite" begin="3.15s"/>
                <animate attributeName="opacity" values="1;0.5;1" dur="1.5s" repeatCount="indefinite" begin="3.15s"/>
              </circle><rect x="340" y="100" width="16" height="16" rx="4" fill="#4ade80"/><rect x="360" y="100" width="16" height="16" rx="4" fill="#4ade80"/><rect x="380" y="100" width="16" height="16" rx="4" fill="#16a34a"/><circle cx="388" cy="108" r="2" fill="#ca8a04">
                <animate attributeName="r" values="2;6;2" dur="1.5s" repeatCount="indefinite" begin="3.60s"/>
                <animate attributeName="opacity" values="1;0.5;1" dur="1.5s" repeatCount="indefinite" begin="3.60s"/>
              </circle><rect x="400" y="100" width="16" height="16" rx="4" fill="#d1d5db"/><rect x="420" y="100" width="16" height="16" rx="4" fill="#4ade80"/><rect x="440" y="100" width="16" height="16" rx="4" fill="#16a34a"/><circle cx="448" cy="108" r="2" fill="#ca8a04">
                <animate attributeName="r" values="2;6;2" dur="1.5s" repeatCount="indefinite" begin="4.05s"/>
                <animate attributeName="opacity" values="1;0.5;1" dur="1.5s" repeatCount="indefinite" begin="4.05s"/>
              </circle><rect x="460" y="100" width="16" height="16" rx="4" fill="#4ade80"/><rect x="480" y="100" width="16" height="16" rx="4" fill="#4ade80"/><rect x="500" y="100" width="16" height="16" rx="4" fill="#4ade80"/><rect x="520" y="100" width="16" height="16" rx="4" fill="#16a34a"/><circle cx="528" cy="108" r="2" fill="#ca8a04">
                <animate attributeName="r" values="2;6;2" dur="1.5s" repeatCount="indefinite" begin="4.65s"/>
                <animate attributeName="opacity" values="1;0.5;1" dur="1.5s" repeatCount="indefinite" begin="4.65s"/>
              </circle><rect x="540" y="100" width="16" height="16" rx="4" fill="#4ade80"/><rect x="0" y="120" width="16" height="16" rx="4" fill="#d1d5db"/><rect x="20" y="120" width="16" height="16" rx="4" fill="#d1d5db"/><rect x="40" y="120" width="16" height="16" rx="4" fill="#4ade80"/><rect x="60" y="120" width="16" height="16" rx="4" fill="#16a34a"/><circle cx="68" cy="128" r="2" fill="#ca8a04">
                <animate attributeName="r" values="2;6;2" dur="1.5s" repeatCount="indefinite" begin="1.35s"/>
                <animate attributeName="opacity" values="1;0.5;1" dur="1.5s" repeatCount="indefinite" begin="1.35s"/>
              </circle><rect x="80" y="120" width="16" height="16" rx="4" fill="#4ade80"/><rect x="100" y="120" width="16" height="16" rx="4" fill="#16a34a"/><circle cx="108" cy="128" r="2" fill="#ca8a04">
                <animate attributeName="r" values="2;6;2" dur="1.5s" repeatCount="indefinite" begin="1.65s"/>
                <animate attributeName="opacity" values="1;0.5;1" dur="1.5s" repeatCount="indefinite" begin="1.65s"/>
              </circle><rect x="120" y="120" width="16" height="16" rx="4" fill="#16a34a"/><circle cx="128" cy="128" r="2" fill="#ca8a04">
                <animate attributeName="r" values="2;6;2" dur="1.5s" repeatCount="indefinite" begin="1.80s"/>
                <animate attributeName="opacity" values="1;0.5;1" dur="1.5s" repeatCount="indefinite" begin="1.80s"/>
              </circle><rect x="140" y="120" width="16" height="16" rx="4" fill="#16a34a"/><circle cx="148" cy="128" r="2" fill="#ca8a04">
                <animate attributeName="r" values="2;6;2" dur="1.5s" repeatCount="indefinite" begin="1.95s"/>
                <animate attributeName="opacity" values="1;0.5;1" dur="1.5s" repeatCount="indefinite" begin="1.95s"/>
              </circle><rect x="160" y="120" width="16" height="16" rx="4" fill="#16a34a"/><circle cx="168" cy="128" r="2" fill="#ca8a04">
                <animate attributeName="r" values="2;6;2" dur="1.5s" repeatCount="indefinite" begin="2.10s"/>
                <animate attributeName="opacity" values="1;0.5;1" dur="1.5s" repeatCount="indefinite" begin="2.10s"/>
              </circle><rect x="180" y="120" width="16" height="16" rx="4" fill="#d1d5db"/><rect x="200" y="120" width="16" height="16" rx="4" fill="#ca8a04"/><circle cx="208" cy="128" r="2" fill="#ca8a04">
                <animate attributeName="r" values="2;6;2" dur="1.5s" repeatCount="indefinite" begin="2.40s"/>
                <animate attributeName="opacity" values="1;0.5;1" dur="1.5s" repeatCount="indefinite" begin="2.40s"/>
              </circle><rect x="220" y="120" width="16" height="16" rx="4" fill="#d1d5db"/><rect x="240" y="120" width="16" height="16" rx="4" fill="#16a34a"/><circle cx="248" cy="128" r="2" fill="#ca8a04">
                <animate attributeName="r" values="2;6;2" dur="1.5s" repeatCount="indefinite" begin="2.70s"/>
                <animate attributeName="opacity" values="1;0.5;1" dur="1.5s" repeatCount="indefinite" begin="2.70s"/>
              </circle><rect x="260" y="120" width="16" height="16" rx="4" fill="#4ade80"/><rect x="280" y="120" width="16" height="16" rx="4" fill="#16a34a"/><circle cx="288" cy="128" r="2" fill="#ca8a04">
                <animate attributeName="r" values="2;6;2" dur="1.5s" repeatCount="indefinite" begin="3.00s"/>
                <animate attributeName="opacity" values="1;0.5;1" dur="1.5s" repeatCount="indefinite" begin="3.00s"/>
              </circle><rect x="300" y="120" width="16" height="16" rx="4" fill="#16a34a"/><circle cx="308" cy="128" r="2" fill="#ca8a04">
                <animate attributeName="r" values="2;6;2" dur="1.5s" repeatCount="indefinite" begin="3.15s"/>
                <animate attributeName="opacity" values="1;0.5;1" dur="1.5s" repeatCount="indefinite" begin="3.15s"/>
              </circle><rect x="320" y="120" width="16" height="16" rx="4" fill="#d1d5db"/><rect x="340" y="120" width="16" height="16" rx="4" fill="#d1d5db"/><rect x="360" y="120" width="16" height="16" rx="4" fill="#4ade80"/><rect x="380" y="120" width="16" height="16" rx="4" fill="#d1d5db"/><rect x="400" y="120" width="16" height="16" rx="4" fill="#d1d5db"/><rect x="420" y="120" width="16" height="16" rx="4" fill="#ca8a04"/><circle cx="428" cy="128" r="2" fill="#ca8a04">
                <animate attributeName="r" values="2;6;2" dur="1.5s" repeatCount="indefinite" begin="4.05s"/>
                <animate attributeName="opacity" values="1;0.5;1" dur="1.5s" repeatCount="indefinite" begin="4.05s"/>
              </circle><rect x="440" y="120" width="16" height="16" rx="4" fill="#4ade80"/><rect x="460" y="120" width="16" height="16" rx="4" fill="#d1d5db"/><rect x="480" y="120" width="16" height="16" rx="4" fill="#d1d5db"/><rect x="500" y="120" width="16" height="16" rx="4" fill="#ca8a04"/><circle cx="508" cy="128" r="2" fill="#ca8a04">
                <animate attributeName="r" values="2;6;2" dur="1.5s" repeatCount="indefinite" begin="4.65s"/>
                <animate attributeName="opacity" values="1;0.5;1" dur="1.5s" repeatCount="indefinite" begin="4.65s"/>
              </circle><rect x="520" y="120" width="16" height="16" rx="4" fill="#d1d5db"/><rect x="540" y="120" width="16" height="16" rx="4" fill="#d1d5db"/></svg>