
<svg xmlns="http://www.w3.org/2000/svg"
     viewBox="0 0 560 170"
     width="560"
     height="170">

<style>
  .cell { fill: #e5e7eb; }
  .active { fill: #22c55e; }
</style>

      <rect
        x="0"
        y="0"
        width="16"
        height="16"
        rx="4"
        class="active"
      />
    
      <rect
        x="20"
        y="0"
        width="16"
        height="16"
        rx="4"
        class="cell"
      />
    
      <rect
        x="40"
        y="0"
        width="16"
        height="16"
        rx="4"
        class="cell"
      />
    
      <rect
        x="60"
        y="0"
        width="16"
        height="16"
        rx="4"
        class="active"
      />
    
      <rect
        x="80"
        y="0"
        width="16"
        height="16"
        rx="4"
        class="cell"
      />
    
      <rect
        x="100"
        y="0"
        width="16"
        height="16"
        rx="4"
        class="cell"
      />
    
      <rect
        x="120"
        y="0"
        width="16"
        height="16"
        rx="4"
        class="active"
      />
    
      <rect
        x="140"
        y="0"
        width="16"
        height="16"
        rx="4"
        class="cell"
      />
    
      <rect
        x="160"
        y="0"
        width="16"
        height="16"
        rx="4"
        class="active"
      />
    
      <rect
        x="180"
        y="0"
        width="16"
        height="16"
        rx="4"
        class="active"
      />
    
      <rect
        x="200"
        y="0"
        width="16"
        height="16"
        rx="4"
        class="cell"
      />
    
      <rect
        x="220"
        y="0"
        width="16"
        height="16"
        rx="4"
        class="active"
      />
    
      <rect
        x="240"
        y="0"
        width="16"
        height="16"
        rx="4"
        class="cell"
      />
    
      <rect
        x="260"
        y="0"
        width="16"
        height="16"
        rx="4"
        class="cell"
      />
    
      <rect
        x="280"
        y="0"
        width="16"
        height="16"
        rx="4"
        class="active"
      />
    
      <rect
        x="300"
        y="0"
        width="16"
        height="16"
        rx="4"
        class="cell"
      />
    
      <rect
        x="320"
        y="0"
        width="16"
        height="16"
        rx="4"
        class="cell"
      />
    
      <rect
        x="340"
        y="0"
        width="16"
        height="16"
        rx="4"
        class="active"
      />
    
      <rect
        x="360"
        y="0"
        width="16"
        height="16"
        rx="4"
        class="cell"
      />
    
      <rect
        x="380"
        y="0"
        width="16"
        height="16"
        rx="4"
        class="cell"
      />
    
      <rect
        x="400"
        y="0"
        width="16"
        height="16"
        rx="4"
        class="cell"
      />
    
      <rect
        x="420"
        y="0"
        width="16"
        height="16"
        rx="4"
        class="cell"
      />
    
      <rect
        x="440"
        y="0"
        width="16"
        height="16"
        rx="4"
        class="cell"
      />
    
      <rect
        x="460"
        y="0"
        width="16"
        height="16"
        rx="4"
        class="cell"
      />
    
      <rect
        x="480"
        y="0"
        width="16"
        height="16"
        rx="4"
        class="active"
      />
    
      <rect
        x="500"
        y="0"
        width="16"
        height="16"
        rx="4"
        class="active"
      />
    
      <rect
        x="520"
        y="0"
        width="16"
        height="16"
        rx="4"
        class="cell"
      />
    
      <rect
        x="540"
        y="0"
        width="16"
        height="16"
        rx="4"
        class="cell"
      />
    
      <rect
        x="0"
        y="20"
        width="16"
        height="16"
        rx="4"
        class="cell"
      />
    
      <rect
        x="20"
        y="20"
        width="16"
        height="16"
        rx="4"
        class="cell"
      />
    
      <rect
        x="40"
        y="20"
        width="16"
        height="16"
        rx="4"
        class="active"
      />
    
      <rect
        x="60"
        y="20"
        width="16"
        height="16"
        rx="4"
        class="cell"
      />
    
      <rect
        x="80"
        y="20"
        width="16"
        height="16"
        rx="4"
        class="cell"
      />
    
      <rect
        x="100"
        y="20"
        width="16"
        height="16"
        rx="4"
        class="active"
      />
    
      <rect
        x="120"
        y="20"
        width="16"
        height="16"
        rx="4"
        class="cell"
      />
    
      <rect
        x="140"
        y="20"
        width="16"
        height="16"
        rx="4"
        class="active"
      />
    
      <rect
        x="160"
        y="20"
        width="16"
        height="16"
        rx="4"
        class="cell"
      />
    
      <rect
        x="180"
        y="20"
        width="16"
        height="16"
        rx="4"
        class="cell"
      />
    
      <rect
        x="200"
        y="20"
        width="16"
        height="16"
        rx="4"
        class="cell"
      />
    
      <rect
        x="220"
        y="20"
        width="16"
        height="16"
        rx="4"
        class="active"
      />
    
      <rect
        x="240"
        y="20"
        width="16"
        height="16"
        rx="4"
        class="cell"
      />
    
      <rect
        x="260"
        y="20"
        width="16"
        height="16"
        rx="4"
        class="active"
      />
    
      <rect
        x="280"
        y="20"
        width="16"
        height="16"
        rx="4"
        class="cell"
      />
    
      <rect
        x="300"
        y="20"
        width="16"
        height="16"
        rx="4"
        class="active"
      />
    
      <rect
        x="320"
        y="20"
        width="16"
        height="16"
        rx="4"
        class="active"
      />
    
      <rect
        x="340"
        y="20"
        width="16"
        height="16"
        rx="4"
        class="cell"
      />
    
      <rect
        x="360"
        y="20"
        width="16"
        height="16"
        rx="4"
        class="cell"
      />
    
      <rect
        x="380"
        y="20"
        width="16"
        height="16"
        rx="4"
        class="cell"
      />
    
      <rect
        x="400"
        y="20"
        width="16"
        height="16"
        rx="4"
        class="cell"
      />
    
      <rect
        x="420"
        y="20"
        width="16"
        height="16"
        rx="4"
        class="active"
      />
    
      <rect
        x="440"
        y="20"
        width="16"
        height="16"
        rx="4"
        class="active"
      />
    
      <rect
        x="460"
        y="20"
        width="16"
        height="16"
        rx="4"
        class="active"
      />
    
      <rect
        x="480"
        y="20"
        width="16"
        height="16"
        rx="4"
        class="cell"
      />
    
      <rect
        x="500"
        y="20"
        width="16"
        height="16"
        rx="4"
        class="active"
      />
    
      <rect
        x="520"
        y="20"
        width="16"
        height="16"
        rx="4"
        class="active"
      />
    
      <rect
        x="540"
        y="20"
        width="16"
        height="16"
        rx="4"
        class="cell"
      />
    
      <rect
        x="0"
        y="40"
        width="16"
        height="16"
        rx="4"
        class="cell"
      />
    
      <rect
        x="20"
        y="40"
        width="16"
        height="16"
        rx="4"
        class="active"
      />
    
      <rect
        x="40"
        y="40"
        width="16"
        height="16"
        rx="4"
        class="cell"
      />
    
      <rect
        x="60"
        y="40"
        width="16"
        height="16"
        rx="4"
        class="cell"
      />
    
      <rect
        x="80"
        y="40"
        width="16"
        height="16"
        rx="4"
        class="active"
      />
    
      <rect
        x="100"
        y="40"
        width="16"
        height="16"
        rx="4"
        class="cell"
      />
    
      <rect
        x="120"
        y="40"
        width="16"
        height="16"
        rx="4"
        class="active"
      />
    
      <rect
        x="140"
        y="40"
        width="16"
        height="16"
        rx="4"
        class="cell"
      />
    
      <rect
        x="160"
        y="40"
        width="16"
        height="16"
        rx="4"
        class="cell"
      />
    
      <rect
        x="180"
        y="40"
        width="16"
        height="16"
        rx="4"
        class="cell"
      />
    
      <rect
        x="200"
        y="40"
        width="16"
        height="16"
        rx="4"
        class="cell"
      />
    
      <rect
        x="220"
        y="40"
        width="16"
        height="16"
        rx="4"
        class="cell"
      />
    
      <rect
        x="240"
        y="40"
        width="16"
        height="16"
        rx="4"
        class="cell"
      />
    
      <rect
        x="260"
        y="40"
        width="16"
        height="16"
        rx="4"
        class="cell"
      />
    
      <rect
        x="280"
        y="40"
        width="16"
        height="16"
        rx="4"
        class="cell"
      />
    
      <rect
        x="300"
        y="40"
        width="16"
        height="16"
        rx="4"
        class="cell"
      />
    
      <rect
        x="320"
        y="40"
        width="16"
        height="16"
        rx="4"
        class="active"
      />
    
      <rect
        x="340"
        y="40"
        width="16"
        height="16"
        rx="4"
        class="cell"
      />
    
      <rect
        x="360"
        y="40"
        width="16"
        height="16"
        rx="4"
        class="cell"
      />
    
      <rect
        x="380"
        y="40"
        width="16"
        height="16"
        rx="4"
        class="cell"
      />
    
      <rect
        x="400"
        y="40"
        width="16"
        height="16"
        rx="4"
        class="cell"
      />
    
      <rect
        x="420"
        y="40"
        width="16"
        height="16"
        rx="4"
        class="cell"
      />
    
      <rect
        x="440"
        y="40"
        width="16"
        height="16"
        rx="4"
        class="cell"
      />
    
      <rect
        x="460"
        y="40"
        width="16"
        height="16"
        rx="4"
        class="cell"
      />
    
      <rect
        x="480"
        y="40"
        width="16"
        height="16"
        rx="4"
        class="cell"
      />
    
      <rect
        x="500"
        y="40"
        width="16"
        height="16"
        rx="4"
        class="cell"
      />
    
      <rect
        x="520"
        y="40"
        width="16"
        height="16"
        rx="4"
        class="active"
      />
    
      <rect
        x="540"
        y="40"
        width="16"
        height="16"
        rx="4"
        class="cell"
      />
    
      <rect
        x="0"
        y="60"
        width="16"
        height="16"
        rx="4"
        class="cell"
      />
    
      <rect
        x="20"
        y="60"
        width="16"
        height="16"
        rx="4"
        class="cell"
      />
    
      <rect
        x="40"
        y="60"
        width="16"
        height="16"
        rx="4"
        class="active"
      />
    
      <rect
        x="60"
        y="60"
        width="16"
        height="16"
        rx="4"
        class="active"
      />
    
      <rect
        x="80"
        y="60"
        width="16"
        height="16"
        rx="4"
        class="cell"
      />
    
      <rect
        x="100"
        y="60"
        width="16"
        height="16"
        rx="4"
        class="cell"
      />
    
      <rect
        x="120"
        y="60"
        width="16"
        height="16"
        rx="4"
        class="cell"
      />
    
      <rect
        x="140"
        y="60"
        width="16"
        height="16"
        rx="4"
        class="cell"
      />
    
      <rect
        x="160"
        y="60"
        width="16"
        height="16"
        rx="4"
        class="cell"
      />
    
      <rect
        x="180"
        y="60"
        width="16"
        height="16"
        rx="4"
        class="active"
      />
    
      <rect
        x="200"
        y="60"
        width="16"
        height="16"
        rx="4"
        class="active"
      />
    
      <rect
        x="220"
        y="60"
        width="16"
        height="16"
        rx="4"
        class="cell"
      />
    
      <rect
        x="240"
        y="60"
        width="16"
        height="16"
        rx="4"
        class="active"
      />
    
      <rect
        x="260"
        y="60"
        width="16"
        height="16"
        rx="4"
        class="active"
      />
    
      <rect
        x="280"
        y="60"
        width="16"
        height="16"
        rx="4"
        class="cell"
      />
    
      <rect
        x="300"
        y="60"
        width="16"
        height="16"
        rx="4"
        class="cell"
      />
    
      <rect
        x="320"
        y="60"
        width="16"
        height="16"
        rx="4"
        class="active"
      />
    
      <rect
        x="340"
        y="60"
        width="16"
        height="16"
        rx="4"
        class="cell"
      />
    
      <rect
        x="360"
        y="60"
        width="16"
        height="16"
        rx="4"
        class="active"
      />
    
      <rect
        x="380"
        y="60"
        width="16"
        height="16"
        rx="4"
        class="cell"
      />
    
      <rect
        x="400"
        y="60"
        width="16"
        height="16"
        rx="4"
        class="cell"
      />
    
      <rect
        x="420"
        y="60"
        width="16"
        height="16"
        rx="4"
        class="cell"
      />
    
      <rect
        x="440"
        y="60"
        width="16"
        height="16"
        rx="4"
        class="active"
      />
    
      <rect
        x="460"
        y="60"
        width="16"
        height="16"
        rx="4"
        class="cell"
      />
    
      <rect
        x="480"
        y="60"
        width="16"
        height="16"
        rx="4"
        class="cell"
      />
    
      <rect
        x="500"
        y="60"
        width="16"
        height="16"
        rx="4"
        class="cell"
      />
    
      <rect
        x="520"
        y="60"
        width="16"
        height="16"
        rx="4"
        class="cell"
      />
    
      <rect
        x="540"
        y="60"
        width="16"
        height="16"
        rx="4"
        class="active"
      />
    
      <rect
        x="0"
        y="80"
        width="16"
        height="16"
        rx="4"
        class="cell"
      />
    
      <rect
        x="20"
        y="80"
        width="16"
        height="16"
        rx="4"
        class="cell"
      />
    
      <rect
        x="40"
        y="80"
        width="16"
        height="16"
        rx="4"
        class="cell"
      />
    
      <rect
        x="60"
        y="80"
        width="16"
        height="16"
        rx="4"
        class="active"
      />
    
      <rect
        x="80"
        y="80"
        width="16"
        height="16"
        rx="4"
        class="cell"
      />
    
      <rect
        x="100"
        y="80"
        width="16"
        height="16"
        rx="4"
        class="cell"
      />
    
      <rect
        x="120"
        y="80"
        width="16"
        height="16"
        rx="4"
        class="cell"
      />
    
      <rect
        x="140"
        y="80"
        width="16"
        height="16"
        rx="4"
        class="cell"
      />
    
      <rect
        x="160"
        y="80"
        width="16"
        height="16"
        rx="4"
        class="active"
      />
    
      <rect
        x="180"
        y="80"
        width="16"
        height="16"
        rx="4"
        class="cell"
      />
    
      <rect
        x="200"
        y="80"
        width="16"
        height="16"
        rx="4"
        class="cell"
      />
    
      <rect
        x="220"
        y="80"
        width="16"
        height="16"
        rx="4"
        class="active"
      />
    
      <rect
        x="240"
        y="80"
        width="16"
        height="16"
        rx="4"
        class="cell"
      />
    
      <rect
        x="260"
        y="80"
        width="16"
        height="16"
        rx="4"
        class="cell"
      />
    
      <rect
        x="280"
        y="80"
        width="16"
        height="16"
        rx="4"
        class="active"
      />
    
      <rect
        x="300"
        y="80"
        width="16"
        height="16"
        rx="4"
        class="active"
      />
    
      <rect
        x="320"
        y="80"
        width="16"
        height="16"
        rx="4"
        class="active"
      />
    
      <rect
        x="340"
        y="80"
        width="16"
        height="16"
        rx="4"
        class="cell"
      />
    
      <rect
        x="360"
        y="80"
        width="16"
        height="16"
        rx="4"
        class="cell"
      />
    
      <rect
        x="380"
        y="80"
        width="16"
        height="16"
        rx="4"
        class="active"
      />
    
      <rect
        x="400"
        y="80"
        width="16"
        height="16"
        rx="4"
        class="cell"
      />
    
      <rect
        x="420"
        y="80"
        width="16"
        height="16"
        rx="4"
        class="cell"
      />
    
      <rect
        x="440"
        y="80"
        width="16"
        height="16"
        rx="4"
        class="active"
      />
    
      <rect
        x="460"
        y="80"
        width="16"
        height="16"
        rx="4"
        class="cell"
      />
    
      <rect
        x="480"
        y="80"
        width="16"
        height="16"
        rx="4"
        class="cell"
      />
    
      <rect
        x="500"
        y="80"
        width="16"
        height="16"
        rx="4"
        class="cell"
      />
    
      <rect
        x="520"
        y="80"
        width="16"
        height="16"
        rx="4"
        class="active"
      />
    
      <rect
        x="540"
        y="80"
        width="16"
        height="16"
        rx="4"
        class="active"
      />
    
      <rect
        x="0"
        y="100"
        width="16"
        height="16"
        rx="4"
        class="cell"
      />
    
      <rect
        x="20"
        y="100"
        width="16"
        height="16"
        rx="4"
        class="cell"
      />
    
      <rect
        x="40"
        y="100"
        width="16"
        height="16"
        rx="4"
        class="cell"
      />
    
      <rect
        x="60"
        y="100"
        width="16"
        height="16"
        rx="4"
        class="cell"
      />
    
      <rect
        x="80"
        y="100"
        width="16"
        height="16"
        rx="4"
        class="cell"
      />
    
      <rect
        x="100"
        y="100"
        width="16"
        height="16"
        rx="4"
        class="cell"
      />
    
      <rect
        x="120"
        y="100"
        width="16"
        height="16"
        rx="4"
        class="active"
      />
    
      <rect
        x="140"
        y="100"
        width="16"
        height="16"
        rx="4"
        class="cell"
      />
    
      <rect
        x="160"
        y="100"
        width="16"
        height="16"
        rx="4"
        class="active"
      />
    
      <rect
        x="180"
        y="100"
        width="16"
        height="16"
        rx="4"
        class="active"
      />
    
      <rect
        x="200"
        y="100"
        width="16"
        height="16"
        rx="4"
        class="cell"
      />
    
      <rect
        x="220"
        y="100"
        width="16"
        height="16"
        rx="4"
        class="cell"
      />
    
      <rect
        x="240"
        y="100"
        width="16"
        height="16"
        rx="4"
        class="cell"
      />
    
      <rect
        x="260"
        y="100"
        width="16"
        height="16"
        rx="4"
        class="cell"
      />
    
      <rect
        x="280"
        y="100"
        width="16"
        height="16"
        rx="4"
        class="cell"
      />
    
      <rect
        x="300"
        y="100"
        width="16"
        height="16"
        rx="4"
        class="active"
      />
    
      <rect
        x="320"
        y="100"
        width="16"
        height="16"
        rx="4"
        class="cell"
      />
    
      <rect
        x="340"
        y="100"
        width="16"
        height="16"
        rx="4"
        class="cell"
      />
    
      <rect
        x="360"
        y="100"
        width="16"
        height="16"
        rx="4"
        class="cell"
      />
    
      <rect
        x="380"
        y="100"
        width="16"
        height="16"
        rx="4"
        class="cell"
      />
    
      <rect
        x="400"
        y="100"
        width="16"
        height="16"
        rx="4"
        class="active"
      />
    
      <rect
        x="420"
        y="100"
        width="16"
        height="16"
        rx="4"
        class="cell"
      />
    
      <rect
        x="440"
        y="100"
        width="16"
        height="16"
        rx="4"
        class="active"
      />
    
      <rect
        x="460"
        y="100"
        width="16"
        height="16"
        rx="4"
        class="active"
      />
    
      <rect
        x="480"
        y="100"
        width="16"
        height="16"
        rx="4"
        class="cell"
      />
    
      <rect
        x="500"
        y="100"
        width="16"
        height="16"
        rx="4"
        class="cell"
      />
    
      <rect
        x="520"
        y="100"
        width="16"
        height="16"
        rx="4"
        class="cell"
      />
    
      <rect
        x="540"
        y="100"
        width="16"
        height="16"
        rx="4"
        class="cell"
      />
    
      <rect
        x="0"
        y="120"
        width="16"
        height="16"
        rx="4"
        class="active"
      />
    
      <rect
        x="20"
        y="120"
        width="16"
        height="16"
        rx="4"
        class="cell"
      />
    
      <rect
        x="40"
        y="120"
        width="16"
        height="16"
        rx="4"
        class="cell"
      />
    
      <rect
        x="60"
        y="120"
        width="16"
        height="16"
        rx="4"
        class="cell"
      />
    
      <rect
        x="80"
        y="120"
        width="16"
        height="16"
        rx="4"
        class="cell"
      />
    
      <rect
        x="100"
        y="120"
        width="16"
        height="16"
        rx="4"
        class="cell"
      />
    
      <rect
        x="120"
        y="120"
        width="16"
        height="16"
        rx="4"
        class="cell"
      />
    
      <rect
        x="140"
        y="120"
        width="16"
        height="16"
        rx="4"
        class="active"
      />
    
      <rect
        x="160"
        y="120"
        width="16"
        height="16"
        rx="4"
        class="active"
      />
    
      <rect
        x="180"
        y="120"
        width="16"
        height="16"
        rx="4"
        class="cell"
      />
    
      <rect
        x="200"
        y="120"
        width="16"
        height="16"
        rx="4"
        class="active"
      />
    
      <rect
        x="220"
        y="120"
        width="16"
        height="16"
        rx="4"
        class="cell"
      />
    
      <rect
        x="240"
        y="120"
        width="16"
        height="16"
        rx="4"
        class="cell"
      />
    
      <rect
        x="260"
        y="120"
        width="16"
        height="16"
        rx="4"
        class="active"
      />
    
      <rect
        x="280"
        y="120"
        width="16"
        height="16"
        rx="4"
        class="cell"
      />
    
      <rect
        x="300"
        y="120"
        width="16"
        height="16"
        rx="4"
        class="cell"
      />
    
      <rect
        x="320"
        y="120"
        width="16"
        height="16"
        rx="4"
        class="active"
      />
    
      <rect
        x="340"
        y="120"
        width="16"
        height="16"
        rx="4"
        class="active"
      />
    
      <rect
        x="360"
        y="120"
        width="16"
        height="16"
        rx="4"
        class="cell"
      />
    
      <rect
        x="380"
        y="120"
        width="16"
        height="16"
        rx="4"
        class="active"
      />
    
      <rect
        x="400"
        y="120"
        width="16"
        height="16"
        rx="4"
        class="cell"
      />
    
      <rect
        x="420"
        y="120"
        width="16"
        height="16"
        rx="4"
        class="cell"
      />
    
      <rect
        x="440"
        y="120"
        width="16"
        height="16"
        rx="4"
        class="cell"
      />
    
      <rect
        x="460"
        y="120"
        width="16"
        height="16"
        rx="4"
        class="active"
      />
    
      <rect
        x="480"
        y="120"
        width="16"
        height="16"
        rx="4"
        class="cell"
      />
    
      <rect
        x="500"
        y="120"
        width="16"
        height="16"
        rx="4"
        class="cell"
      />
    
      <rect
        x="520"
        y="120"
        width="16"
        height="16"
        rx="4"
        class="cell"
      />
    
      <rect
        x="540"
        y="120"
        width="16"
        height="16"
        rx="4"
        class="cell"
      />
    
<g>
  <rect x="0" y="146" width="10" height="10" fill="#111827"/>
  <rect x="10" y="146" width="10" height="10" fill="#22c55e"/>

  <animateTransform
    attributeName="transform"
    type="translate"
    from="0 0"
    to="540 0"
    dur="6s"
    repeatCount="indefinite"
  />
</g>
</svg>