<svg xmlns="http://www.w3.org/2000/svg" xml:space="preserve" width="800" height="800" viewBox="0 0 503.275 503.275"><path d="M253.01 88.075c-1.9.1-3.9.2-5.9.3h3.3c-2.9.1 5.6-.4 2.6-.3zm-113.5 93.4c0-17.6 4.9-33.5 13.9-46.9h.6c17.8-25.9 59.1-43.5 93.1-46.1-34-.5-82-8.5-82-8.5-75.9-7.8-162.1-76.9-162.1-76.9 3.4 21.3 9.4 38.4 17.1 52.9v45.2c2.6 16.2 8.5 29.8 17 41.7l-.8 40.2c3.4 30.7 17.9 47.8 42.7 59.7 34.1 17.1 59.7 17.1 59.7 17.1h58c-27.3-10.2-53.8-29-57.2-68.3h-.9l-2.7-.3 3.6-1.4v-8.4zm-56.8-.2c.3.2.6.4.8.6-.2-.1-.5-.3-.8-.6z" style="fill:#aab1ba" transform="translate(1 1)"/><path d="M497.91 3.075s-86.2 69.1-162.1 76.8c0 0-51.2 8.5-85.3 8.5 35.8 0 75.9 16.2 96.4 46.1h.9-.1c9.4 13.7 14.5 29 14.5 47.8-.9 3.4-.9 6-.9 8.5-3.4 39.3-30.7 58-57.2 68.3h58s25.6 0 59.7-17.1c24.7-11.9 39.3-29 42.7-59.7v-38.4h-.9c9.4-11.9 15.4-25.6 17.9-41.8v-45.2l-.5-2.3c8.1-14.8 13.7-31.2 16.9-51.5z" style="fill:#aab1ba" transform="translate(1 1)"/><path d="M378.41 310.275h-118.6c-2.6 3.4-6 6-9.4 8.5-3.4-2.6-6.8-5.1-9.4-8.5h-118.6c-9.4 0-17.1 7.7-17.1 17.1v153.6c0 9.4 7.7 17.1 17.1 17.1h256c9.4 0 17.1-7.7 17.1-17.1v-153.6c0-9.4-7.7-17.1-17.1-17.1zm-128 119.5c-7.7 0-14.5-3.4-18.8-8.5-4.3-4.3-6.8-10.2-6.8-17.1 0-14.5 11.1-25.6 25.6-25.6 14.5 0 25.6 11.1 25.6 25.6 0 6.8-1.7 12.8-6 17.1-5.1 5.1-11.9 8.5-19.6 8.5z" style="fill:#ffd0a1" transform="translate(1 1)"/><path d="M207.81 212.175c0-2.6-1.7-4.3-4.3-4.3s-4.3 1.7-4.3 4.3 1.7 4.3 4.3 4.3 4.3-1.7 4.3-4.3m93.8 0c0-2.6-1.7-4.3-4.3-4.3s-4.3 1.7-4.3 4.3 1.7 4.3 4.3 4.3 4.3-1.7 4.3-4.3m59.8-29.9c0 3.4 0 6-.9 8.5-3.4 39.3-30.7 58-57.2 68.3-9.4 3.4-19.6 6.8-28.2 8.5 0 0-8.5-8.5-25.6-8.5s-25.6 8.5-25.6 8.5c-8.5-2.6-17.9-5.1-28.2-8.5-26.5-10.2-53.8-29-57.2-68.3v-8.5c0-17.9 5.1-34.1 14.5-47.8 20.6-29.8 60.7-46 96.6-46s75.1 16.2 96.4 46.1c10.2 13.6 15.4 29.8 15.4 47.7" style="fill:#ecf4f7" transform="translate(1 1)"/><path d="M224.81 404.175c0-14.5 11.1-25.6 25.6-25.6 14.5 0 25.6 11.1 25.6 25.6 0 6.8-2.6 12.8-6 17.1-5.1 5.1-11.9 8.5-19.6 8.5-7.7 0-14.5-3.4-18.8-8.5-4.2-4.3-6.8-10.3-6.8-17.1" style="fill:#ff7474" transform="translate(1 1)"/><path d="M259.81 310.275c-2.6 3.4-6 6-9.4 8.5-3.4-2.6-6.8-5.1-9.4-8.5-16.2-17.9-16.2-42.7-16.2-42.7s8.5-8.5 25.6-8.5 25.6 8.5 25.6 8.5 0 24.8-16.2 42.7" style="fill:#ffd0a1" transform="translate(1 1)"/><path d="M379.41 503.275h-256c-11.9 0-21.3-9.4-21.3-21.3v-119.5c0-2.6 1.7-4.3 4.3-4.3 2.6 0 4.3 1.7 4.3 4.3v119.5c0 6.8 6 12.8 12.8 12.8h256c6.8 0 12.8-6 12.8-12.8v-119.5c0-2.6 1.7-4.3 4.3-4.3s4.3 1.7 4.3 4.3v119.5c-.1 11.9-9.5 21.3-21.5 21.3zm-17-34.1h-1.7l-59.7-25.6c-1.7-.9-2.6-2.6-2.6-4.3v-1.7c.9-2.6 3.4-3.4 6-2.6l59.7 25.6c1.7.9 2.6 2.6 2.6 4.3v1.7c-.9 1.7-2.6 2.6-4.3 2.6zm-221.9 0c-1.7 0-3.4-.9-4.3-2.6v-1.7c0-1.7.9-3.4 2.6-4.3l59.7-25.6c2.6-.9 4.3 0 6 2.6v1.7c0 1.7-.9 3.4-2.6 4.3l-59.7 25.6h-1.7zm110.9-34.1c-15.4 0-28.2-11.9-29.9-27.3l-117.8-75.9c-.9-.9-1.7-2.6-1.7-3.4 0-11.9 9.4-21.3 21.3-21.3h85.3c2.6 0 4.3 1.7 4.3 4.3 0 2.6-1.7 4.3-4.3 4.3h-85.3c-6 0-11.9 4.3-12.8 10.2l111.8 71.7c3.4-12.8 15.4-23 29-23 13.7 0 25.6 9.4 29 23l111.8-71.7c-.9-6-6-10.2-12.8-10.2h-85.3c-2.6 0-4.3-1.7-4.3-4.3 0-2.6 1.7-4.3 4.3-4.3h85.3c11.9 0 21.3 9.4 21.3 21.3 0 1.7-.9 2.6-1.7 3.4l-117.8 75.9c-1.5 15.3-14.3 27.3-29.7 27.3zm-21.3-29.9c0 11.9 9.4 21.3 21.3 21.3s21.3-9.4 21.3-21.3-9.4-21.3-21.3-21.3-21.3 9.3-21.3 21.3zm21.3-81.1c-.9 0-1.7 0-2.6-.9-23-15.4-26.5-41.8-27.3-51.2-40.1-10.2-85.3-30.7-85.3-88.7 0-60.6 59.7-98.1 115.2-98.1s115.2 37.5 115.2 98.1c0 58-45.2 78.5-85.3 88.7-.9 9.4-5.1 36.7-27.3 51.2-.9.9-1.7.9-2.6.9zm-21.3-53.7c.9 6.8 3.4 30.7 21.3 44.4 17.9-13.7 20.5-37.5 21.3-44.4-2.6-1.7-9.4-6-21.3-6-11.1 0-18.7 4.3-21.3 6zm21.3-14.5c13.7 0 23 5.1 26.5 8.5 37.5-9.4 80.2-28.2 80.2-81.1 0-55.5-55.5-89.6-106.7-89.6s-106.7 34.1-106.7 89.6c0 52.9 42.7 70.8 80.2 81.1 3.5-3.4 12.9-8.5 26.5-8.5zm111 8.5c-2.6 0-4.3-1.7-4.3-4.3 0-2.6 1.7-4.3 4.3-4.3 0 0 24.7-.9 58-16.2 25.6-11.9 36.7-29 40.1-56.3 0-2.6 2.6-4.3 5.1-3.4 2.6 0 4.3 2.6 3.4 5.1-3.4 30.7-17.1 49.5-45.2 63.1-35 15.4-60.6 16.3-61.4 16.3zm-221.9 0c-.9 0-26.5-.9-61.4-17.9-28.2-13.7-41-32.4-45.2-63.1 0-2.6 1.7-4.3 3.4-5.1 2.6 0 4.3 1.7 5.1 3.4 3.4 27.3 15.4 44.4 40.1 56.3 33.3 16.2 58 16.2 58 16.2 2.6 0 4.3 1.7 4.3 4.3 0 4.2-1.7 5.9-4.3 5.9zm157.9-42.7c-5.1 0-8.5-3.4-8.5-8.5s3.4-8.5 8.5-8.5 8.5 3.4 8.5 8.5-3.4 8.5-8.5 8.5zm-93.9 0c-5.1 0-8.5-3.4-8.5-8.5s3.4-8.5 8.5-8.5 8.5 3.4 8.5 8.5-3.4 8.5-8.5 8.5zm-95.6-29c-.9 0-20.5-1.7-39.3-14.5-31.6-20.5-48.6-45.2-52.9-75.1 0-2.6 1.7-4.3 3.4-5.1 2.6 0 4.3 1.7 5.1 3.4 3.4 27.3 19.6 49.5 49.5 69.1 16.2 11.1 34.1 12.8 34.1 12.8 2.6 0 4.3 2.6 4.3 4.3.1 3.4-2.5 5.1-4.2 5.1zm285 0c-2.6 0-4.3-1.7-4.3-4.3s1.7-4.3 4.3-4.3c0 0 17.9-1.7 34.1-12.8 29.9-19.6 46.1-41.8 49.5-69.1 0-2.6 2.6-4.3 5.1-3.4 2.6 0 4.3 2.6 3.4 5.1-4.3 29.9-21.3 53.8-52.9 75.1-17.8 12-37.5 13.7-39.2 13.7zm-270.5-56.3h-.8c-.9 0-27.3-7.7-43.5-17.1-29.1-17-69.2-47.8-78.5-114.3 0-1.7.8-3.4 1.7-4.3 1.7-.9 3.4-.9 5.1 0 .8.9 86.2 68.3 159.6 76 2.6 0 4.3 2.6 3.4 4.3 0 2.6-2.6 4.3-4.3 3.4-63.1-6-131.4-52.9-155.3-70.8 11.1 55.5 46.9 81.9 72.5 97.3 16.2 9.4 41.8 16.2 41.8 17.1 2.6.9 3.4 3.4 2.6 5.1-.9 2.4-2.6 3.3-4.3 3.3zm256 0c-1.7 0-3.4-.9-4.3-3.4-.9-2.6.9-4.3 2.6-5.1 0 0 25.6-7.7 41.8-17.1 26.5-15.4 61.4-41.8 72.5-97.3-23.9 17.9-92.2 64.9-155.3 70.8-2.6 0-4.3-1.7-4.3-3.4 0-2.6 1.7-4.3 3.4-4.3 74.4-7.6 158.8-75 159.7-75.9 1.7-.9 3.4-.9 5.1 0s2.6 2.6 1.7 4.3c-9.4 66.6-49.5 97.3-78.5 114.3-17.1 9.4-42.7 17.1-43.5 17.1h-.9z" style="fill:#51565f"/></svg>
